<svg width="31" height="32" viewBox="0 0 31 32" fill="none" xmlns="http://www.w3.org/2000/svg">
<path fill-rule="evenodd" clip-rule="evenodd" d="M15.4983 0C16.3267 0 16.9983 0.671573 16.9983 1.5V4.30811L19.2397 2.05355C19.8238 1.46606 20.7736 1.46328 21.361 2.04736C21.9485 2.63143 21.9513 3.58117 21.3672 4.16867L16.9983 8.5632V13.3957L21.1467 10.9866L22.7457 4.98367C22.959 4.18315 23.7808 3.70707 24.5813 3.9203C25.3818 4.13353 25.8579 4.95534 25.6447 5.75585L24.8195 8.85374L27.2318 7.45285C27.9481 7.03682 28.8661 7.28031 29.2822 7.99669C29.6982 8.71308 29.4547 9.63109 28.7383 10.0471L26.3037 11.461L29.3907 12.2931C30.1906 12.5087 30.6643 13.3319 30.4487 14.1318C30.2331 14.9316 29.4099 15.4053 28.61 15.1897L22.6495 13.5831L18.4873 16.0002L22.6487 18.4169L28.6094 16.8103C29.4093 16.5947 30.2325 17.0684 30.448 17.8683C30.6636 18.6681 30.19 19.4913 29.3901 19.7069L26.3029 20.539L28.7375 21.9529C29.4539 22.3689 29.6974 23.2869 29.2814 24.0033C28.8653 24.7197 27.9473 24.9632 27.231 24.5471L24.8188 23.1463L25.644 26.2442C25.8573 27.0447 25.3812 27.8665 24.5807 28.0797C23.7802 28.293 22.9584 27.8169 22.7451 27.0164L21.1459 21.0134L16.9983 18.6047V23.4368L21.3672 27.8313C21.9513 28.4188 21.9485 29.3686 21.361 29.9526C20.7736 30.5367 19.8238 30.5339 19.2397 29.9464L16.9983 27.6919V30.5C16.9983 31.3284 16.3267 32 15.4983 32C14.6699 32 13.9983 31.3284 13.9983 30.5V27.6919L11.7569 29.9464C11.1729 30.5339 10.2231 30.5367 9.63564 29.9527C9.04814 29.3686 9.04536 28.4188 9.62943 27.8313L13.9983 23.4368V18.6071L9.85485 21.0134L8.25574 27.0164C8.04249 27.8169 7.22068 28.293 6.42017 28.0797C5.61966 27.8665 5.14359 27.0447 5.35683 26.2442L6.18206 23.1463L3.76985 24.5471C3.05346 24.9632 2.13545 24.7197 1.71942 24.0033C1.30339 23.2869 1.54688 22.3689 2.26327 21.9529L4.69789 20.539L1.61075 19.7069C0.810869 19.4913 0.337205 18.6681 0.552794 17.8683C0.768383 17.0684 1.59159 16.5947 2.39147 16.8103L8.35214 18.4169L12.5135 16.0002L8.3514 13.5831L2.39074 15.1897C1.59085 15.4053 0.767649 14.9316 0.552058 14.1317C0.336467 13.3319 0.81013 12.5087 1.61001 12.2931L4.69717 11.461L2.26253 10.0471C1.54614 9.63109 1.30266 8.71308 1.71869 7.99669C2.13472 7.28031 3.05272 7.03682 3.76911 7.45285L6.18132 8.8537L5.35609 5.75586C5.14285 4.95535 5.61892 4.13354 6.41943 3.92029C7.21994 3.70705 8.04176 4.18312 8.255 4.98363L9.85412 10.9866L13.9983 13.3933V8.56319L9.62943 4.16866C9.04536 3.58116 9.04814 2.63142 9.63564 2.04735C10.2231 1.46328 11.1729 1.46606 11.7569 2.05356L13.9983 4.30808V1.5C13.9983 0.671573 14.6699 0 15.4983 0Z" fill="white"/>
</svg>
