<svg width="74" height="74" viewBox="0 0 74 74" fill="none" xmlns="http://www.w3.org/2000/svg">
<rect width="74" height="74" rx="5" fill="#F1F1F1"/>
<path d="M49.8333 21.333H25.1667C21.7609 21.333 19 24.0939 19 27.4997V55.2497C19 58.6554 21.7609 61.4163 25.1667 61.4163H49.8333C53.2391 61.4163 56 58.6554 56 55.2497V27.4997C56 24.0939 53.2391 21.333 49.8333 21.333Z" stroke="#2C5CA3" stroke-width="5" stroke-linecap="round" stroke-linejoin="round"/>
<path d="M31.334 33.6665V49.0832" stroke="#2C5CA3" stroke-width="5" stroke-linecap="round" stroke-linejoin="round"/>
<path d="M43.666 33.6665V49.0832" stroke="#2C5CA3" stroke-width="5" stroke-linecap="round" stroke-linejoin="round"/>
<path d="M49.834 61.4165V64.4998" stroke="#2C5CA3" stroke-width="5" stroke-linecap="round" stroke-linejoin="round"/>
<path d="M25.167 61.4165V64.4998" stroke="#2C5CA3" stroke-width="5" stroke-linecap="round" stroke-linejoin="round"/>
<path d="M31.334 12.0833C31.334 10.3805 32.7144 9 34.4173 9H40.584C42.2869 9 43.6673 10.3805 43.6673 12.0833V21.3333H31.334V12.0833Z" stroke="#2C5CA3" stroke-width="5" stroke-linecap="round" stroke-linejoin="round"/>
</svg>
