<svg width="74" height="74" viewBox="0 0 74 74" fill="none" xmlns="http://www.w3.org/2000/svg">
<rect width="74" height="74" rx="5" fill="#F1F1F1"/>
<path d="M39.375 35H38.4167V25H39.375C40.6458 25 41.8646 25.5268 42.7632 26.4645C43.6618 27.4021 44.1667 28.6739 44.1667 30C44.1667 30.5304 44.3686 31.0391 44.728 31.4142C45.0875 31.7893 45.575 32 46.0833 32C46.5917 32 47.0792 31.7893 47.4386 31.4142C47.7981 31.0391 48 30.5304 48 30C47.9949 27.6147 47.0846 25.3286 45.4682 23.6419C43.8518 21.9552 41.6609 21.0053 39.375 21H38.4167V19C38.4167 18.4696 38.2147 17.9609 37.8553 17.5858C37.4958 17.2107 37.0083 17 36.5 17C35.9917 17 35.5042 17.2107 35.1447 17.5858C34.7853 17.9609 34.5833 18.4696 34.5833 19V21H33.625C31.3375 21 29.1437 21.9482 27.5262 23.636C25.9087 25.3239 25 27.6131 25 30C25 32.3869 25.9087 34.6761 27.5262 36.364C29.1437 38.0518 31.3375 39 33.625 39H34.5833V49H33.625C32.3542 49 31.1354 48.4732 30.2368 47.5355C29.3382 46.5979 28.8333 45.3261 28.8333 44C28.8333 43.4696 28.6314 42.9609 28.272 42.5858C27.9125 42.2107 27.425 42 26.9167 42C26.4083 42 25.9208 42.2107 25.5614 42.5858C25.2019 42.9609 25 43.4696 25 44C25.0051 46.3853 25.9154 48.6714 27.5318 50.3581C29.1482 52.0448 31.3391 52.9947 33.625 53H34.5833V55C34.5833 55.5304 34.7853 56.0391 35.1447 56.4142C35.5042 56.7893 35.9917 57 36.5 57C37.0083 57 37.4958 56.7893 37.8553 56.4142C38.2147 56.0391 38.4167 55.5304 38.4167 55V53H39.375C41.6625 53 43.8563 52.0518 45.4738 50.364C47.0913 48.6761 48 46.3869 48 44C48 41.6131 47.0913 39.3239 45.4738 37.636C43.8563 35.9482 41.6625 35 39.375 35ZM33.625 35C32.3542 35 31.1354 34.4732 30.2368 33.5355C29.3382 32.5979 28.8333 31.3261 28.8333 30C28.8333 28.6739 29.3382 27.4021 30.2368 26.4645C31.1354 25.5268 32.3542 25 33.625 25H34.5833V35H33.625ZM39.375 49H38.4167V39H39.375C40.6458 39 41.8646 39.5268 42.7632 40.4645C43.6618 41.4021 44.1667 42.6739 44.1667 44C44.1667 45.3261 43.6618 46.5979 42.7632 47.5355C41.8646 48.4732 40.6458 49 39.375 49Z" fill="#2C5CA3"/>
</svg>
