<svg width="168" height="168" viewBox="0 0 168 168" fill="none" xmlns="http://www.w3.org/2000/svg">
<path d="M108.774 167.346H58.5706C56.3514 167.346 54.2231 166.465 52.654 164.895C51.0848 163.326 50.2032 161.198 50.2032 158.979C50.2032 156.76 51.0848 154.631 52.654 153.062C54.2231 151.493 56.3514 150.612 58.5706 150.612H75.3052V125.51C75.3052 123.29 76.1867 121.162 77.7559 119.593C79.3251 118.024 81.4533 117.142 83.6725 117.142C85.8916 117.142 88.0199 118.024 89.5891 119.593C91.1582 121.162 92.0398 123.29 92.0398 125.51V150.612H108.774C110.994 150.612 113.122 151.493 114.691 153.062C116.26 154.631 117.142 156.76 117.142 158.979C117.142 161.198 116.26 163.326 114.691 164.895C113.122 166.465 110.994 167.346 108.774 167.346ZM117.142 41.8365C114.923 41.8365 112.794 40.955 111.225 39.3858C109.656 37.8166 108.774 35.6884 108.774 33.4692V8.36731C108.774 6.14816 109.656 4.0199 111.225 2.45073C112.794 0.881553 114.923 0 117.142 0C119.361 0 121.489 0.881553 123.058 2.45073C124.627 4.0199 125.509 6.14816 125.509 8.36731V33.4692C125.509 35.6884 124.627 37.8166 123.058 39.3858C121.489 40.955 119.361 41.8365 117.142 41.8365ZM83.6725 41.8365C81.4533 41.8365 79.3251 40.955 77.7559 39.3858C76.1867 37.8166 75.3052 35.6884 75.3052 33.4692V8.36731C75.3052 6.14816 76.1867 4.0199 77.7559 2.45073C79.3251 0.881553 81.4533 0 83.6725 0C85.8916 0 88.0199 0.881553 89.5891 2.45073C91.1582 4.0199 92.0398 6.14816 92.0398 8.36731V33.4692C92.0398 35.6884 91.1582 37.8166 89.5891 39.3858C88.0199 40.955 85.8916 41.8365 83.6725 41.8365ZM50.2032 41.8365C47.9841 41.8365 45.8558 40.955 44.2867 39.3858C42.7175 37.8166 41.8359 35.6884 41.8359 33.4692V8.36731C41.8359 6.14816 42.7175 4.0199 44.2867 2.45073C45.8558 0.881553 47.9841 0 50.2032 0C52.4224 0 54.5506 0.881553 56.1198 2.45073C57.689 4.0199 58.5706 6.14816 58.5706 8.36731V33.4692C58.5706 35.6884 57.689 37.8166 56.1198 39.3858C54.5506 40.955 52.4224 41.8365 50.2032 41.8365Z" fill="#2C5CA3"/>
<path d="M133.877 25.1021H33.469C29.0307 25.1021 24.7742 26.8652 21.6358 30.0035C18.4975 33.1419 16.7344 37.3984 16.7344 41.8367V75.3059C16.7344 77.525 17.6159 79.6533 19.1851 81.2225C20.7543 82.7916 22.8825 83.6732 25.1017 83.6732H142.244C144.463 83.6732 146.591 82.7916 148.161 81.2225C149.73 79.6533 150.611 77.525 150.611 75.3059V41.8367C150.611 37.3984 148.848 33.1419 145.71 30.0035C142.571 26.8652 138.315 25.1021 133.877 25.1021Z" fill="#ABC5EC"/>
<path d="M142.244 66.938H25.1018C20.6635 66.938 16.407 68.7011 13.2686 71.8394C10.1303 74.9778 8.36719 79.2343 8.36719 83.6726V125.509C8.36719 127.728 9.24874 129.857 10.8179 131.426C12.3871 132.995 14.5153 133.876 16.7345 133.876H150.611C152.831 133.876 154.959 132.995 156.528 131.426C158.097 129.857 158.979 127.728 158.979 125.509V83.6726C158.979 79.2343 157.216 74.9778 154.077 71.8394C150.939 68.7011 146.682 66.938 142.244 66.938Z" fill="#2C5CA3"/>
<path d="M158.979 133.877H8.36731C6.14816 133.877 4.0199 132.996 2.45073 131.426C0.881553 129.857 0 127.729 0 125.51C0 123.291 0.881553 121.162 2.45073 119.593C4.0199 118.024 6.14816 117.143 8.36731 117.143H158.979C161.198 117.143 163.326 118.024 164.895 119.593C166.465 121.162 167.346 123.291 167.346 125.51C167.346 127.729 166.465 129.857 164.895 131.426C163.326 132.996 161.198 133.877 158.979 133.877Z" fill="#ABC5EC"/>
</svg>
