<svg width="49" height="49" viewBox="0 0 49 49" fill="none" xmlns="http://www.w3.org/2000/svg">
<circle cx="24.425" cy="24.425" r="24.425" fill="white"/>
<path d="M20.6667 43.7778C11.2222 42.1111 4 33.8889 4 24C4 13 13 4 24 4C35 4 44 13 44 24C44 33.8889 36.7778 42.1111 27.3333 43.7778L26.2222 42.8889H21.7778L20.6667 43.7778Z" fill="white"/>
<path d="M31.7781 29.5555L32.667 24H27.3337V20.1111C27.3337 18.5555 27.8892 17.3333 30.3337 17.3333H32.8892V12.2222C31.4448 12 29.8892 11.7778 28.4448 11.7778C23.8892 11.7778 20.667 14.5555 20.667 19.5555V24H15.667V29.5555H20.667V43.6667C21.7781 43.8889 22.8892 44 24.0003 44C25.1114 44 26.2225 43.8889 27.3337 43.6667V29.5555H31.7781Z" fill="#2C5CA3"/>
</svg>
