<svg width="29" height="29" viewBox="0 0 29 29" fill="none" xmlns="http://www.w3.org/2000/svg">
<path d="M14.5 13.05C14.2132 13.05 13.9329 13.135 13.6944 13.2944C13.456 13.4537 13.2701 13.6802 13.1604 13.9451C13.0506 14.2101 13.0219 14.5016 13.0779 14.7829C13.1338 15.0642 13.2719 15.3225 13.4747 15.5253C13.6775 15.7281 13.9358 15.8662 14.2171 15.9221C14.4984 15.9781 14.7899 15.9494 15.0549 15.8396C15.3198 15.7299 15.5463 15.544 15.7056 15.3056C15.865 15.0671 15.95 14.7868 15.95 14.5C15.95 14.1154 15.7972 13.7466 15.5253 13.4747C15.2534 13.2028 14.8846 13.05 14.5 13.05ZM15.225 0C21.75 0 21.895 5.1765 18.4585 6.8875C17.82 7.26608 17.2764 7.78556 16.8693 8.40628C16.4622 9.02699 16.2023 9.73252 16.1095 10.469C16.8028 10.7566 17.4152 11.2096 17.893 11.7885C23.2 8.8885 29 10.034 29 15.225C29 21.75 23.809 21.895 22.1125 18.4585C21.723 17.8203 21.1949 17.2778 20.5675 16.8713C19.94 16.4647 19.2292 16.2043 18.4875 16.1095C18.1964 16.8008 17.7439 17.4124 17.168 17.893C20.068 23.2435 18.908 29 13.717 29C7.25 29 7.0905 23.809 10.527 22.098C11.1552 21.7144 11.6912 21.1973 12.0972 20.5834C12.5031 19.9694 12.769 19.2737 12.876 18.5455C12.1653 18.2675 11.5402 17.8075 11.0635 17.2115C5.713 20.0825 0 18.9515 0 13.775C0 7.25 5.133 7.0905 6.844 10.527C7.22814 11.1625 7.75126 11.7026 8.37407 12.107C8.99688 12.5113 9.70321 12.7693 10.44 12.8615C10.7192 12.1635 11.1797 11.5528 11.774 11.0925C8.8885 5.8 10.034 0 15.196 0H15.225Z" fill="white"/>
</svg>
