<svg width="17" height="19" viewBox="0 0 17 19" fill="none" xmlns="http://www.w3.org/2000/svg">
<path fill-rule="evenodd" clip-rule="evenodd" d="M14.875 16.2122C14.875 16.7642 14.399 17.0001 13.8125 17.0001H12.75C12.1635 17.0001 11.6875 16.7642 11.6875 16.2122V15.2122C11.6875 14.1072 10.7366 13.0001 9.5625 13.0001H7.4375C6.26344 13.0001 5.3125 14.1072 5.3125 15.2122V16.2122C5.3125 16.7642 4.8365 17.0001 4.25 17.0001H3.1875C2.601 17.0001 2.125 16.7642 2.125 16.2122V8.14912C2.125 8.01612 2.18131 7.88911 2.28012 7.79511L7.73819 2.65913C8.15363 2.26813 8.82619 2.26813 9.24057 2.65913L14.7199 7.81513C14.8187 7.90913 14.875 8.03616 14.875 8.16816V16.2122ZM17 7.62513C17 7.36013 16.8885 7.10714 16.6908 6.91914L9.99814 0.589121C9.16939 -0.193879 7.82318 -0.196861 6.99124 0.583139L0.312378 6.84815C0.112628 7.03615 0 7.29016 0 7.55616V17.2122C0 18.3172 0.950938 19.0001 2.125 19.0001H5.3125C6.48656 19.0001 7.4375 18.3172 7.4375 17.2122V16.2122C7.4375 15.6602 7.9135 15.2122 8.5 15.2122C9.0865 15.2122 9.5625 15.6602 9.5625 16.2122V17.2122C9.5625 18.3172 10.5134 19.0001 11.6875 19.0001H14.875C16.0491 19.0001 17 18.3172 17 17.2122V7.62513Z" fill="white"/>
</svg>
