<svg width="74" height="74" viewBox="0 0 74 74" fill="none" xmlns="http://www.w3.org/2000/svg">
<rect width="74" height="74" rx="5" fill="#F1F1F1"/>
<path d="M57.4091 35.0499L38.9558 16.6062C38.7652 16.4141 38.5384 16.2616 38.2885 16.1576C38.0387 16.0536 37.7707 16 37.5 16C37.2293 16 36.9613 16.0536 36.7115 16.1576C36.4616 16.2616 36.2348 16.4141 36.0442 16.6062L17.5909 35.0499C17.3064 35.338 17.1137 35.704 17.037 36.1015C16.9604 36.4991 17.0033 36.9104 17.1603 37.2836C17.3141 37.6578 17.5753 37.9782 17.911 38.2043C18.2467 38.4304 18.6419 38.5521 19.0467 38.5541H21.097V53.514C21.1344 54.4726 21.5502 55.3773 22.2534 56.0303C22.9566 56.6832 23.89 57.0311 24.8492 56.9978H30.3237C30.8675 56.9978 31.389 56.7819 31.7735 56.3976C32.1581 56.0133 32.3741 55.492 32.3741 54.9485V44.907C32.3741 44.3635 32.5901 43.8422 32.9746 43.4579C33.3591 43.0736 33.8806 42.8577 34.4244 42.8577H40.5756C41.1194 42.8577 41.6409 43.0736 42.0254 43.4579C42.4099 43.8422 42.6259 44.3635 42.6259 44.907V54.9485C42.6259 55.492 42.842 56.0133 43.2265 56.3976C43.611 56.7819 44.1325 56.9978 44.6763 56.9978H50.1508C51.11 57.0311 52.0434 56.6832 52.7466 56.0303C53.4498 55.3773 53.8656 54.4726 53.903 53.514V38.5541H55.9533C56.3581 38.5521 56.7533 38.4304 57.089 38.2043C57.4247 37.9782 57.6859 37.6578 57.8397 37.2836C57.9967 36.9104 58.0396 36.4991 57.963 36.1015C57.8863 35.704 57.6936 35.338 57.4091 35.0499Z" fill="#2C5CA3"/>
</svg>
