<svg width="49" height="49" viewBox="0 0 49 49" fill="none" xmlns="http://www.w3.org/2000/svg">
<circle cx="24.425" cy="24.425" r="24.425" fill="white"/>
<path d="M24.9 13.5046C28.6114 13.5046 29.051 13.5187 30.5167 13.5855C31.8719 13.6474 32.608 13.8738 33.0978 14.0642C33.7466 14.3163 34.2096 14.6176 34.696 15.104C35.1825 15.5904 35.4837 16.0534 35.7358 16.7021C35.9262 17.192 36.1526 17.9281 36.2145 19.2832C36.2813 20.749 36.2954 21.1886 36.2954 24.9C36.2954 28.6115 36.2813 29.0511 36.2145 30.5168C36.1526 31.872 35.9262 32.608 35.7358 33.0978C35.4837 33.7466 35.1824 34.2097 34.696 34.6961C34.2096 35.1825 33.7466 35.4838 33.0978 35.7358C32.608 35.9262 31.8719 36.1527 30.5167 36.2145C29.0512 36.2814 28.6116 36.2955 24.9 36.2955C21.1883 36.2955 20.7487 36.2814 19.2832 36.2145C17.928 36.1526 17.192 35.9262 16.7021 35.7358C16.0534 35.4838 15.5903 35.1825 15.1039 34.6961C14.6175 34.2096 14.3162 33.7466 14.0642 33.0978C13.8738 32.6081 13.6473 31.872 13.5855 30.5168C13.5186 29.0511 13.5045 28.6115 13.5045 24.9C13.5045 21.1886 13.5186 20.749 13.5855 19.2833C13.6474 17.9281 13.8738 17.192 14.0642 16.7021C14.3162 16.0534 14.6175 15.5904 15.1039 15.104C15.5904 14.6175 16.0534 14.3163 16.7021 14.0642C17.1919 13.8738 17.928 13.6474 19.2832 13.5855C20.7489 13.5187 21.1885 13.5046 24.9 13.5046ZM24.9 11C21.125 11 20.6516 11.016 19.1691 11.0836C17.6895 11.1512 16.679 11.3862 15.795 11.7297C14.8808 12.085 14.1057 12.5603 13.3329 13.333C12.5602 14.1058 12.085 14.8809 11.7297 15.795C11.3861 16.6791 11.1512 17.6896 11.0836 19.1691C11.016 20.6516 11 21.125 11 24.9C11 28.675 11.016 29.1484 11.0836 30.6309C11.1512 32.1105 11.3861 33.121 11.7297 34.005C12.0849 34.9191 12.5602 35.6943 13.3329 36.4671C14.1057 37.2398 14.8808 37.715 15.795 38.0702C16.6791 38.4139 17.6895 38.6488 19.169 38.7164C20.6516 38.784 21.125 38.8 24.9 38.8C28.675 38.8 29.1484 38.784 30.6309 38.7164C32.1104 38.6488 33.1209 38.4139 34.0049 38.0702C34.9191 37.7151 35.6942 37.2398 36.467 36.4671C37.2397 35.6943 37.715 34.9192 38.0702 34.005C38.4138 33.1209 38.6488 32.1105 38.7164 30.631C38.784 29.1484 38.8 28.675 38.8 24.9C38.8 21.125 38.784 20.6516 38.7164 19.1691C38.6488 17.6896 38.4138 16.6791 38.0702 15.7951C37.715 14.8809 37.2397 14.1058 36.467 13.333C35.6942 12.5603 34.9191 12.0849 34.005 11.7297C33.1209 11.3862 32.1104 11.1512 30.6309 11.0836C29.1484 11.016 28.675 11 24.9 11ZM24.9 17.7621C20.9578 17.7621 17.7621 20.958 17.7621 24.9C17.7621 28.8422 20.9578 32.0379 24.9 32.0379C28.8421 32.0379 32.0379 28.8422 32.0379 24.9C32.0379 20.9579 28.8421 17.7621 24.9 17.7621ZM24.9 29.5334C22.3411 29.5334 20.2666 27.4589 20.2666 24.9C20.2666 22.3411 22.3411 20.2666 24.9 20.2666C27.4589 20.2666 29.5334 22.3411 29.5334 24.9C29.5334 27.4589 27.4589 29.5334 24.9 29.5334ZM33.9878 17.4801C33.9878 18.4014 33.2411 19.1481 32.3198 19.1481C31.3986 19.1481 30.6518 18.4014 30.6518 17.4801C30.6518 16.5589 31.3986 15.8121 32.3198 15.8121C33.2411 15.8121 33.9878 16.5589 33.9878 17.4801Z" fill="#2C5CA3"/>
</svg>
