<svg width="53" height="54" viewBox="0 0 53 54" fill="none" xmlns="http://www.w3.org/2000/svg">
<path d="M52.7916 9.64484C52.5916 9.15804 52.252 8.74132 51.8156 8.44721C51.3792 8.1531 50.8654 7.99476 50.3392 7.99213H45.0079V2.66082C45.0052 2.13455 44.8469 1.62084 44.5528 1.18442C44.2587 0.747994 43.842 0.408396 43.3552 0.208418C42.8697 0.00428343 42.3347 -0.0514892 41.8176 0.0481373C41.3005 0.147764 40.8245 0.398325 40.4496 0.768205L32.4526 8.76517C32.2056 9.01425 32.0101 9.30965 31.8775 9.63442C31.7448 9.9592 31.6776 10.307 31.6796 10.6578V17.5618L25.7885 23.4263C25.5386 23.6741 25.3403 23.9689 25.205 24.2937C25.0697 24.6186 25 24.967 25 25.3189C25 25.6708 25.0697 26.0192 25.205 26.344C25.3403 26.6689 25.5386 26.9637 25.7885 27.2115C26.0363 27.4614 26.3311 27.6597 26.656 27.795C26.9808 27.9303 27.3292 28 27.6811 28C28.033 28 28.3814 27.9303 28.7063 27.795C29.0311 27.6597 29.3259 27.4614 29.5737 27.2115L35.4382 21.3204H42.3422C42.693 21.3224 43.0408 21.2552 43.3656 21.1225C43.6904 20.9899 43.9857 20.7944 44.2348 20.5474L52.2318 12.5504C52.6017 12.1755 52.8522 11.6995 52.9519 11.1824C53.0515 10.6653 52.9957 10.1303 52.7916 9.64484Z" fill="#ABC5EC"/>
<path d="M26.5 54C19.4718 54 12.7314 51.1554 7.76167 46.0919C2.79196 41.0284 0 34.1608 0 27C0 19.8392 2.79196 12.9716 7.76167 7.90812C12.7314 2.84463 19.4718 0 26.5 0H27.613C27.961 0.0319112 28.2994 0.133348 28.609 0.298518C28.9185 0.463687 29.1931 0.689356 29.417 0.962639C29.6409 1.23592 29.8098 1.55147 29.9141 1.89126C30.0183 2.23105 30.0558 2.58843 30.0245 2.943C29.9932 3.29757 29.8936 3.64238 29.7315 3.95775C29.5694 4.27312 29.3479 4.55286 29.0797 4.78102C28.8115 5.00917 28.5018 5.18126 28.1683 5.28747C27.8348 5.39367 27.484 5.43191 27.136 5.4H26.5C22.307 5.4 18.2082 6.66682 14.7219 9.04026C11.2356 11.4137 8.51833 14.7872 6.91375 18.734C5.30918 22.6809 4.88935 27.024 5.70735 31.214C6.52536 35.4039 8.54446 39.2527 11.5093 42.2735C14.4742 45.2943 18.2517 47.3515 22.3641 48.185C26.4765 49.0184 30.7391 48.5907 34.6129 46.9558C38.4867 45.3209 41.7977 42.5524 44.1272 39.0003C46.4566 35.4482 47.7 31.2721 47.7 27C47.7132 26.7842 47.7132 26.5678 47.7 26.352C47.6672 25.9972 47.7037 25.6392 47.8074 25.2988C47.9111 24.9584 48.0799 24.6423 48.3041 24.3687C48.5283 24.0951 48.8034 23.8695 49.1136 23.7047C49.4238 23.54 49.763 23.4395 50.1115 23.409C50.4598 23.3756 50.8111 23.4128 51.1452 23.5185C51.4793 23.6241 51.7895 23.7961 52.0581 24.0245C52.3266 24.2529 52.5481 24.5332 52.7097 24.8493C52.8714 25.1654 52.9701 25.5109 53 25.866C53 26.244 53 26.622 53 27C53 34.1608 50.208 41.0284 45.2383 46.0919C40.2686 51.1554 33.5282 54 26.5 54ZM42.082 30.24C42.2226 29.5239 42.0782 28.7803 41.6806 28.1726C41.283 27.565 40.6648 27.1432 39.962 27C39.2592 26.8568 38.5293 27.0039 37.9329 27.409C37.3366 27.8141 36.9226 28.4439 36.782 29.16C36.4014 31.078 35.5165 32.8545 34.2219 34.2999C32.9272 35.7452 31.2715 36.805 29.4317 37.3661C27.5918 37.9272 25.6369 37.9684 23.7758 37.4854C21.9147 37.0024 20.2173 36.0133 18.8651 34.6238C17.5129 33.2343 16.5566 31.4966 16.0984 29.5963C15.6402 27.6961 15.6973 25.7047 16.2636 23.8349C16.8299 21.9652 17.8842 20.2873 19.3137 18.9806C20.7433 17.6739 22.4944 16.7875 24.38 16.416C25.0828 16.2728 25.701 15.851 26.0986 15.2434C26.4962 14.6357 26.6406 13.8921 26.5 13.176C26.3594 12.4599 25.9454 11.8301 25.3491 11.425C24.7527 11.0199 24.0228 10.8728 23.32 11.016C20.506 11.602 17.9003 12.9537 15.7798 14.9275C13.6593 16.9013 12.1031 19.4235 11.2766 22.2261C10.4501 25.0287 10.3841 28.0071 11.0857 30.8448C11.7872 33.6826 13.2301 36.2737 15.2611 38.343C17.292 40.4122 19.8352 41.8824 22.6204 42.5971C25.4056 43.3119 28.3288 43.2447 31.0795 42.4026C33.8302 41.5605 36.3057 39.975 38.2429 37.8145C40.1801 35.6539 41.5068 32.9991 42.082 30.132V30.24Z" fill="#2C5CA3"/>
</svg>
