<svg width="19" height="19" viewBox="0 0 19 19" fill="none" xmlns="http://www.w3.org/2000/svg">
<path fill-rule="evenodd" clip-rule="evenodd" d="M9.5 0C4.25331 0 0 4.25325 0 9.5C0 14.7467 4.25331 19 9.5 19C14.7467 19 19 14.7467 19 9.5C19 4.25325 14.7467 0 9.5 0ZM9.5 17.1C5.30937 17.1 1.9 13.6906 1.9 9.5C1.9 5.30937 5.30937 1.9 9.5 1.9C13.6907 1.9 17.1 5.30937 17.1 9.5C17.1 13.6906 13.6907 17.1 9.5 17.1ZM10.6896 5.7C10.6896 6.38879 10.1881 6.8875 9.50965 6.8875C8.80377 6.8875 8.31458 6.38879 8.31458 5.68682C8.31458 5.01215 8.81702 4.5125 9.50965 4.5125C10.1881 4.5125 10.6896 5.01215 10.6896 5.7ZM8.55208 8.55H10.4521V14.25H8.55208V8.55Z" fill="white"/>
</svg>
