<svg width="168" height="168" viewBox="0 0 168 168" fill="none" xmlns="http://www.w3.org/2000/svg">
<path d="M167.346 92.0404V108.775C167.346 110.994 166.465 113.122 164.895 114.692C163.326 116.261 161.198 117.142 158.979 117.142H142.244C140.025 117.142 137.897 116.261 136.328 114.692C134.758 113.122 133.877 110.994 133.877 108.775V92.0404C133.877 89.8212 134.758 87.693 136.328 86.1238C137.897 84.5546 140.025 83.6731 142.244 83.6731H158.979C161.198 83.6731 163.326 84.5546 164.895 86.1238C166.465 87.693 167.346 89.8212 167.346 92.0404ZM158.979 33.4692H142.244C140.025 33.4692 137.897 34.3508 136.328 35.92C134.758 37.4891 133.877 39.6174 133.877 41.8365V58.5712C133.877 60.7903 134.758 62.9186 136.328 64.4877C137.897 66.0569 140.025 66.9385 142.244 66.9385H158.979C161.198 66.9385 163.326 66.0569 164.895 64.4877C166.465 62.9186 167.346 60.7903 167.346 58.5712V41.8365C167.346 39.6174 166.465 37.4891 164.895 35.92C163.326 34.3508 161.198 33.4692 158.979 33.4692Z" fill="#ABC5EC"/>
<path d="M133.877 0H16.7346C7.49234 0 0 7.49234 0 16.7346V150.612C0 159.854 7.49234 167.346 16.7346 167.346H133.877C143.119 167.346 150.612 159.854 150.612 150.612V16.7346C150.612 7.49234 143.119 0 133.877 0Z" fill="#2C5CA3"/>
<path d="M95.3867 81.9995C98.6455 77.6545 100.407 72.3697 100.407 66.9383C100.407 60.2809 97.7624 53.8961 93.0549 49.1886C88.3474 44.4811 81.9626 41.8364 75.3052 41.8364C68.6477 41.8364 62.2629 44.4811 57.5554 49.1886C52.8479 53.8961 50.2032 60.2809 50.2032 66.9383C50.2032 72.3697 51.9648 77.6545 55.2236 81.9995C51.0669 85.1171 47.6931 89.1596 45.3694 93.807C43.0457 98.4544 41.8359 103.579 41.8359 108.775V117.142C41.8359 119.361 42.7175 121.49 44.2867 123.059C45.8558 124.628 47.9841 125.51 50.2032 125.51H100.407C102.626 125.51 104.754 124.628 106.324 123.059C107.893 121.49 108.774 119.361 108.774 117.142V108.775C108.774 103.579 107.565 98.4544 105.241 93.807C102.917 89.1596 99.5434 85.1171 95.3867 81.9995Z" fill="#ABC5EC"/>
</svg>
