<svg width="25" height="19" viewBox="0 0 25 19" fill="none" xmlns="http://www.w3.org/2000/svg">
<path d="M24.4717 7.61044L17.1252 0.229341C16.8209 -0.0763515 16.3276 -0.0764037 16.0232 0.229341L13.8193 2.44362L12.1663 4.10439L10.5135 2.44367L8.30933 0.229289C8.00502 -0.0764037 7.51168 -0.0764559 7.20737 0.229289L0.228258 7.24144C0.0820772 7.38826 0 7.58743 0 7.79505C0 8.00272 0.0821292 8.20184 0.228258 8.34866L2.43224 10.563C2.58439 10.7159 2.78382 10.7923 2.9832 10.7923C3.0981 10.7923 3.2127 10.7661 3.31857 10.7153L10.8805 18.313C11.3362 18.7708 11.9351 19 12.5337 19C13.1323 19 13.7309 18.7711 14.1866 18.3132C14.5977 17.9002 14.8366 17.3604 14.8676 16.7817C15.4221 16.7509 15.9678 16.5235 16.3905 16.0989C16.8136 15.6738 17.0399 15.1251 17.0702 14.5674C17.6253 14.5369 18.1715 14.3095 18.5945 13.8845L18.5955 13.8835L21.3816 11.0842C21.4855 11.134 21.5996 11.1613 21.7168 11.1613C21.9235 11.1613 22.1217 11.0788 22.2678 10.932L24.4717 8.71766C24.6179 8.57084 24.7 8.37173 24.7 8.1641C24.7 7.95638 24.6179 7.75726 24.4717 7.61044ZM1.88118 7.79505L7.75843 1.89006L8.8605 2.99723L8.6285 3.23032L2.9832 8.90221L1.88118 7.79505ZM15.2886 14.9917C14.9849 15.2968 14.4908 15.2969 14.1869 14.9921L13.0846 13.8845C12.7803 13.5788 12.2869 13.5788 11.9826 13.8845C11.6783 14.1902 11.6783 14.6859 11.9827 14.9916L13.0845 16.0986C13.2314 16.2464 13.3129 16.4434 13.3129 16.6524C13.3129 16.8615 13.2318 17.0581 13.0846 17.206C12.7808 17.5113 12.2864 17.5113 11.9826 17.206L4.45253 9.64027L9.96246 4.10439L11.0644 5.21156L9.41145 6.87233C8.50055 7.78811 8.50019 9.27826 9.4114 10.1939C9.86714 10.6518 10.4657 10.8807 11.0644 10.8807C11.663 10.8807 12.2616 10.6518 12.7172 10.194L14.3703 8.53316L17.1248 11.3007L17.4932 11.6708C17.64 11.8186 17.7208 12.0149 17.7208 12.2237C17.7208 12.4325 17.6399 12.6289 17.493 12.7767L17.4923 12.7775C17.1886 13.0823 16.6949 13.0824 16.391 12.7778L16.3903 12.777L15.2885 11.6701C14.9842 11.3644 14.4908 11.3644 14.1866 11.6702C13.8823 11.9759 13.8823 12.4716 14.1866 12.7773L15.2879 13.8838L15.2886 13.8845C15.5924 14.1898 15.5924 14.6864 15.2886 14.9917ZM19.1455 11.1165L18.5948 10.5632L18.2272 10.1938L14.9213 6.87233C14.7751 6.72551 14.577 6.64305 14.3703 6.64305C14.1637 6.64305 13.9654 6.72551 13.8194 6.87233L11.6154 9.08666C11.3116 9.39199 10.8172 9.39194 10.5134 9.08671C10.2097 8.78149 10.2096 8.28488 10.5134 7.9796L12.7168 5.76574L12.718 5.76459L14.3704 4.10434L20.2476 10.0093L19.1455 11.1165ZM21.7168 9.27122L15.4722 2.99718L16.5742 1.89006L22.8187 8.16405L21.7168 9.27122Z" fill="white"/>
</svg>
