<svg width="168" height="168" viewBox="0 0 168 168" fill="none" xmlns="http://www.w3.org/2000/svg">
<path d="M158.979 41.8364H8.36731C6.14816 41.8364 4.0199 42.718 2.45073 44.2872C0.881553 45.8563 0 47.9846 0 50.2037V150.611C0 155.05 1.76311 159.306 4.90145 162.445C8.0398 165.583 12.2963 167.346 16.7346 167.346H150.612C155.05 167.346 159.306 165.583 162.445 162.445C165.583 159.306 167.346 155.05 167.346 150.611V50.2037C167.346 47.9846 166.465 45.8563 164.895 44.2872C163.326 42.718 161.198 41.8364 158.979 41.8364Z" fill="#2C5CA3"/>
<path d="M167.346 33.4692V58.5712H0V33.4692C0 29.0309 1.76311 24.7744 4.90145 21.6361C8.0398 18.4977 12.2963 16.7346 16.7346 16.7346H150.612C155.05 16.7346 159.306 18.4977 162.445 21.6361C165.583 24.7744 167.346 29.0309 167.346 33.4692ZM64.5119 131.45L97.9812 97.9812C99.5568 96.4056 100.442 94.2686 100.442 92.0404C100.442 89.8122 99.5568 87.6752 97.9812 86.0996C96.4056 84.524 94.2686 83.6388 92.0404 83.6388C89.8122 83.6388 87.6752 84.524 86.0996 86.0996L58.5712 113.712L47.7773 102.834C46.2017 101.259 44.0648 100.373 41.8365 100.373C39.6083 100.373 37.4713 101.259 35.8957 102.834C34.3202 104.41 33.435 106.547 33.435 108.775C33.435 111.003 34.3202 113.14 35.8957 114.716L52.6304 131.45C53.4082 132.235 54.3336 132.857 55.3533 133.282C56.3729 133.707 57.4666 133.925 58.5712 133.925C59.6757 133.925 60.7694 133.707 61.789 133.282C62.8087 132.857 63.7341 132.235 64.5119 131.45ZM97.9812 131.45L131.45 97.9812C132.231 97.201 132.849 96.2748 133.272 95.2555C133.694 94.2362 133.911 93.1437 133.911 92.0404C133.911 90.9371 133.694 89.8446 133.272 88.8253C132.849 87.8059 132.231 86.8798 131.45 86.0996C130.67 85.3194 129.744 84.7006 128.725 84.2784C127.705 83.8562 126.613 83.6388 125.51 83.6388C124.406 83.6388 123.314 83.8562 122.294 84.2784C121.275 84.7006 120.349 85.3194 119.569 86.0996L86.0996 119.569C85.3153 120.347 84.6929 121.272 84.2681 122.292C83.8433 123.311 83.6246 124.405 83.6246 125.51C83.6246 126.614 83.8433 127.708 84.2681 128.727C84.6929 129.747 85.3153 130.673 86.0996 131.45C86.8774 132.235 87.8029 132.857 88.8225 133.282C89.8421 133.707 90.9358 133.925 92.0404 133.925C93.145 133.925 94.2386 133.707 95.2583 133.282C96.2779 132.857 97.2033 132.235 97.9812 131.45Z" fill="#ABC5EC"/>
<path d="M117.142 41.8365C114.923 41.8365 112.794 40.955 111.225 39.3858C109.656 37.8166 108.774 35.6884 108.774 33.4692V8.36731C108.774 6.14816 109.656 4.0199 111.225 2.45073C112.794 0.881553 114.923 0 117.142 0C119.361 0 121.489 0.881553 123.058 2.45073C124.627 4.0199 125.509 6.14816 125.509 8.36731V33.4692C125.509 35.6884 124.627 37.8166 123.058 39.3858C121.489 40.955 119.361 41.8365 117.142 41.8365ZM58.5706 33.4692V8.36731C58.5706 6.14816 57.689 4.0199 56.1198 2.45073C54.5506 0.881553 52.4224 0 50.2032 0C47.9841 0 45.8558 0.881553 44.2867 2.45073C42.7175 4.0199 41.8359 6.14816 41.8359 8.36731V33.4692C41.8359 35.6884 42.7175 37.8166 44.2867 39.3858C45.8558 40.955 47.9841 41.8365 50.2032 41.8365C52.4224 41.8365 54.5506 40.955 56.1198 39.3858C57.689 37.8166 58.5706 35.6884 58.5706 33.4692Z" fill="#2C5CA3"/>
</svg>
