<svg width="49" height="49" viewBox="0 0 49 49" fill="none" xmlns="http://www.w3.org/2000/svg">
<circle cx="24.425" cy="24.425" r="24.425" fill="white"/>
<path d="M36 22.575V17.862C33.8757 17.862 32.2545 17.2729 31.2083 16.1278C30.1346 14.821 29.533 13.1661 29.5073 11.4481V11.1079L25.2188 11V30.1423C25.0716 30.9775 24.6814 31.7457 24.1008 32.3431C23.5202 32.9406 22.7771 33.3386 21.9719 33.4834C21.1666 33.6282 20.338 33.5128 19.5979 33.1528C18.8578 32.7928 18.2418 32.2056 17.8331 31.4703C17.4244 30.7351 17.2427 29.8872 17.3125 29.0413C17.3822 28.1953 17.7001 27.392 18.2232 26.7397C18.7464 26.0874 19.4495 25.6175 20.2378 25.3936C21.026 25.1697 21.8615 25.2024 22.6313 25.4874V20.9238C22.1824 20.8474 21.7284 20.8085 21.2736 20.8076C19.6372 20.8076 18.0376 21.3118 16.677 22.2563C15.3165 23.2009 14.256 24.5434 13.6298 26.1142C13.0036 27.6849 12.8397 29.4133 13.159 31.0808C13.4782 32.7483 14.2662 34.28 15.4233 35.4822C16.5804 36.6844 18.0546 37.5031 19.6595 37.8348C21.2644 38.1665 22.928 37.9963 24.4398 37.3456C25.9516 36.695 27.2438 35.5932 28.1529 34.1796C29.062 32.766 29.5472 31.104 29.5472 29.4038C29.5463 29.0515 29.525 28.6996 29.4833 28.35V20.7578C31.4334 22.0232 33.7022 22.6558 36 22.575Z" fill="#2C5CA3"/>
</svg>
