<svg width="80" height="147" viewBox="0 0 80 147" fill="none" xmlns="http://www.w3.org/2000/svg">
<path d="M53.6581 79.5427C53.8761 79.1901 54.0977 78.8409 54.3103 78.4847C54.4344 78.2791 54.5762 78.0753 54.3032 77.8573C54.0498 77.6552 53.83 77.6836 53.6014 77.8856C53.2097 78.233 52.8127 78.5786 52.4193 78.9242C52.095 78.9969 51.9496 79.2982 51.7086 79.4789C51.6271 79.541 51.5136 79.665 51.6501 79.7342C52.0967 79.961 52.5469 80.2694 53.0219 80.3279C53.3887 80.3722 53.5624 79.9078 53.6581 79.5427ZM25.5778 124.254C25.67 124.323 25.7621 124.394 25.8561 124.463C26.6873 125.233 27.5451 125.908 28.7998 125.725C29.8402 125.575 30.8894 125.47 31.9368 125.373C32.5217 125.318 32.6138 125.091 32.2753 124.637C31.5115 122.895 30.916 121.1 30.4888 119.246C30.2957 118.413 29.927 118.058 29.2536 118.149C27.398 118.399 25.5406 118.647 23.724 119.124C23.07 119.265 22.4142 119.411 21.7603 119.551C21.365 119.634 21.2126 119.792 21.5228 120.16C21.8595 120.561 22.1449 121.007 22.556 121.342C23.3677 122.523 24.4329 123.441 25.5884 124.263L25.5778 124.254ZM34.3507 124.382C34.3401 124.43 34.3525 124.469 34.3897 124.502C34.5811 124.843 34.8292 125.156 35.2351 125.174C36.8248 125.241 38.4146 125.307 40.0061 125.197C40.2436 125.181 40.4314 125.077 40.5661 124.885C41.6756 123.306 42.9924 121.902 44.2756 120.47C44.5591 120.153 44.4617 120.04 44.1143 119.939C42.8205 119.561 41.5161 119.232 40.194 118.969C38.0442 118.533 35.8713 118.283 33.6825 118.166C32.5855 117.881 32.27 118.161 32.5359 119.255C32.7769 120.237 33.0445 121.215 33.3688 122.172C33.6276 122.932 33.8225 123.733 34.3507 124.382ZM60.1394 78.4244C61.0592 78.2259 61.3091 78.3429 61.9188 79.2592C61.6264 79.5445 61.2808 79.7288 60.8856 79.8281C60.4567 79.938 60.4655 80.1294 60.7526 80.4165C61.0982 80.7585 61.4261 81.1201 61.7504 81.4816C62.9911 82.8676 64.1218 84.3421 65.2047 85.8539C65.4953 86.258 65.8285 86.6054 66.4169 86.4689C67.1914 86.2881 67.9712 86.1268 68.751 85.9673C69.2384 85.8681 69.2668 85.6395 68.9761 85.2885C68.5844 84.8136 68.191 84.3386 67.8082 83.8583C66.6579 82.4174 65.4794 81.0067 63.9073 79.9929C63.8666 79.6898 63.6043 79.5711 63.404 79.4098C61.5094 77.891 59.4447 76.6362 57.2772 75.5515C56.3715 75.0978 56.3786 75.1191 55.7104 75.8954C55.4641 76.1807 55.4925 76.2941 55.8203 76.4714C56.6551 76.9251 57.465 77.4195 58.2856 77.8981C58.7659 78.8002 59.2905 78.949 60.1394 78.4244ZM64.1306 87.83L64.1395 87.8389C64.0846 87.5252 63.8807 87.2842 63.7319 87.0183C62.8103 85.3701 61.5945 83.9451 60.3237 82.5663C59.2657 81.4178 58.1846 80.2889 56.8554 79.4382C56.7543 79.3637 56.648 79.2929 56.5523 79.2131C55.9533 78.7186 55.6927 78.7665 55.3276 79.4329C55.0919 79.8635 54.9625 80.3296 54.8491 80.8011C54.6311 81.0191 54.5407 81.2814 54.8208 81.4781C55.5173 81.9708 56.1411 82.5734 56.9457 82.9066C57.2311 83.1795 57.5164 83.4507 57.8018 83.7236C57.7858 83.7892 57.8089 83.8158 57.8762 83.798C59.5989 85.386 61.1195 87.153 62.5338 89.0157C62.6153 89.1238 62.6969 89.2301 62.7784 89.3382C63.0371 89.7725 63.2906 90.212 63.5564 90.6427C65.8356 94.3397 67.3899 98.2441 67.2428 102.7C67.0992 107.063 65.5148 110.691 62.0305 113.397C61.6051 113.727 61.3003 114.078 61.1479 114.581C60.8767 115.474 60.5364 116.371 60.0136 117.116C59.1753 118.308 59.0512 119.388 59.9941 120.536C60.0207 120.568 60.0295 120.616 60.0473 120.657C60.2263 121.077 60.4602 121.13 60.7597 120.766C60.8856 120.614 61.0256 120.47 61.1408 120.309C62.1988 118.835 63.1984 117.326 64.0598 115.726C66.0607 112.013 67.2269 108.041 67.5494 103.853C67.9358 98.8395 66.8954 94.0455 64.9849 89.4233C64.7935 88.9607 64.6818 88.4503 64.3008 88.0817C64.2724 87.9789 64.2458 87.8743 64.1306 87.83ZM48.9739 91.4473L48.9562 91.4366C48.8516 91.5643 48.9261 91.7096 48.9757 91.8071C49.6155 93.0477 50.055 94.3645 50.4733 95.6884C50.5814 96.0818 50.6417 96.4983 50.7533 96.8794C51.246 98.5808 51.3098 100.311 51.285 102.058C51.246 104.929 50.6169 107.715 50.0887 110.515C49.892 111.559 50.2766 112.373 51.3045 112.683C52.7649 113.124 54.2625 113.105 55.7548 112.816C56.0755 112.899 56.3697 112.754 56.6657 112.69C61.4722 111.659 64.4071 107.972 64.533 103.182C64.5471 102.648 64.4248 102.48 63.9056 102.76C63.5741 102.937 63.2285 102.903 62.9148 102.648C62.213 102.079 61.9826 100.458 62.5196 99.7275C62.7234 99.4492 62.9964 99.2897 63.3579 99.2631C64.3557 99.1905 64.3593 99.1798 64.058 98.198C63.9481 97.84 63.8081 97.4891 63.6734 97.1381C63.599 96.9485 63.5086 96.766 63.241 96.8386C62.5604 97.0212 62.2236 96.5994 61.9312 96.0925C61.6087 95.536 61.8018 95.0539 62.1847 94.6427C62.4913 94.3131 62.4239 94.0402 62.2378 93.6928C60.1518 89.8132 57.3339 86.5859 53.7875 83.9664C51.9798 82.6301 50.0497 82.1356 47.93 82.9278C46.1808 83.5818 44.6867 84.9376 46.4236 86.9386C47.2229 88.3954 48.0204 89.8504 48.8197 91.3073C48.8534 91.3711 48.8286 91.4987 48.9739 91.4473ZM34.0831 89.5367C36.6954 89.5385 39.3078 89.5403 41.9202 89.5438C42.7159 89.5545 43.5135 89.5828 44.3092 89.5722C44.9118 89.5651 44.9863 89.4233 44.6797 88.9005C43.8024 87.4153 42.8949 85.9496 41.8475 84.5743C41.5941 84.2393 41.3619 84.1543 40.956 84.2517C39.9122 84.5016 38.863 84.8224 37.8031 84.8862C35.9723 84.9979 34.1309 85.0333 32.2948 84.9217C31.4069 84.8667 30.519 84.7551 29.6381 84.6275C28.1973 84.4183 26.8255 83.9434 25.4502 83.4879C25.1259 83.3798 24.8848 83.4631 24.7803 83.8175C24.6987 83.8459 24.5906 83.8512 24.5392 83.9079C23.0806 85.5172 21.934 87.3444 20.8599 89.2177C20.5941 89.6821 20.883 89.838 21.2782 89.815C22.0899 89.7671 22.9105 89.8026 23.7098 89.613C23.7718 89.6342 23.8339 89.675 23.8941 89.6732C25.7462 89.636 27.5965 89.6023 29.4485 89.5509C30.0954 89.5332 30.5066 89.1592 30.7157 88.562C30.8504 88.1809 30.9798 87.8052 31.4299 87.6847C31.9599 87.6067 32.4543 87.8584 32.9772 87.8495C32.7521 89.0919 33.0285 89.5137 34.0831 89.5367ZM45.0802 128.511C45.1653 128.738 45.2432 128.969 45.3354 129.192C47.0049 133.291 48.3324 137.486 48.9775 141.882C49.2681 143.865 49.2929 143.861 51.3488 143.61C52.4175 143.707 53.4862 143.645 54.5549 143.643C57.3215 143.647 60.0863 143.65 62.8528 143.652C63.7407 143.652 63.7638 143.65 63.7283 142.778C63.583 139.23 63.0123 135.748 62.0003 132.345C60.6676 127.857 58.9148 123.563 56.3839 119.586C55.5314 118.246 54.6364 117.619 53.0254 117.839C51.8451 118 50.7126 118.138 49.7413 118.893C47.5472 120.6 45.72 122.661 43.976 124.807C43.7457 125.091 43.7084 125.392 43.8679 125.732C44.2596 126.572 44.6371 127.42 45.0199 128.263C45.0306 128.29 45.0341 128.318 45.027 128.347C44.9898 128.421 45.0075 128.474 45.0802 128.511ZM43.0952 91.2133C42.7922 91.1602 42.4891 91.0627 42.186 91.0609C39.4017 91.0379 36.6157 91.0219 33.8314 91.0272C32.8194 91.029 32.3852 91.4331 32.2381 92.4221C31.7915 95.4208 31.5646 98.4372 31.4494 101.464C31.4051 102.646 31.8287 103.035 33.0339 102.985C36.9453 103.125 40.8267 103.556 44.6938 104.137C45.642 104.348 46.5937 104.536 47.5632 104.623C48.1853 104.678 48.5291 104.371 48.5716 103.752C48.6195 103.068 48.685 102.384 48.6833 101.7C48.6709 98.2919 47.7386 95.1124 46.2464 92.0765C46.0691 91.7149 45.8387 91.3675 45.4028 91.2949C44.6389 91.1637 43.8697 91.0981 43.0952 91.2133ZM44.949 106.008C44.7328 105.828 44.4634 105.805 44.2011 105.769C43.3912 105.661 42.5795 105.562 41.7678 105.459C38.7619 105.08 35.7508 104.791 32.7202 104.736C31.8695 104.72 31.4193 105.101 31.4211 105.879C31.4282 108.954 31.5788 112.022 32.0112 115.067C32.1619 116.13 32.7024 116.515 33.8013 116.492C34.5864 116.578 35.3698 116.678 36.1549 116.747C37.9502 116.905 39.7101 117.3 41.4984 117.514C42.6415 117.931 43.852 118.089 45.0093 118.443C45.6509 118.64 46.1099 118.466 46.5353 117.977C47.3027 117.092 48.0807 116.215 48.8995 115.379C49.3142 114.955 49.2823 114.71 48.8428 114.328C47.7121 113.341 47.2991 112.064 47.4728 110.574C47.5986 109.496 47.7794 108.433 48.0133 107.375C48.086 107.049 48.2402 106.615 47.7316 106.494C46.8135 106.28 45.9043 106.005 44.949 106.008ZM6.74712 109.211C6.76484 109.234 6.78788 109.246 6.81801 109.246C8.17559 110.556 9.76889 111.421 11.628 111.777C12.2767 112.024 12.9466 112.075 13.6325 112.006C13.7619 112.004 13.8895 112.004 14.0189 112.002C15.061 112.043 15.3162 111.763 15.0698 110.62C14.7579 109.167 14.7172 107.698 14.6711 106.225C14.6268 104.814 14.5825 103.398 14.6002 101.992C14.6214 100.194 15.0149 98.4124 15.4083 96.6525C15.7114 95.3003 16.0818 93.964 16.4221 92.6205C16.6915 92.041 16.9556 91.4597 17.2285 90.8819C17.7637 89.7494 18.3043 88.6205 18.8431 87.4897C19.5343 86.7915 19.8515 85.8362 20.649 85.0617C20.4045 85.0812 20.3158 85.0706 20.2396 85.0971C17.1487 86.1517 14.1925 87.488 11.4774 89.3205C8.6488 91.2293 6.21897 93.5333 4.64163 96.5976C2.41916 100.917 3.26455 106.067 6.6142 109.106C6.61951 109.19 6.66914 109.218 6.74712 109.211ZM22.5862 117.667C24.6633 117.247 26.7422 116.841 28.8459 116.575C29.7427 116.462 30.0121 116.052 29.9022 115.159C29.7906 114.26 29.6718 113.362 29.5672 112.461C29.3049 110.196 29.328 107.917 29.25 105.643C29.1951 104.961 28.9186 104.685 28.2416 104.747C24.8476 105.051 21.459 105.409 18.1076 106.06C17.5156 106.175 17.248 106.441 17.2941 107.098C17.5156 110.345 18.1519 113.495 19.4084 116.506C20.1936 118.386 20.5197 118.514 22.416 117.769C22.4763 117.745 22.5294 117.7 22.5862 117.667ZM18.1519 122.376C17.9374 122.812 17.6964 123.237 17.5103 123.685C15.0752 129.554 13.8682 135.689 13.5403 142.015C13.4517 143.73 13.45 143.73 15.2187 143.631C16.8581 143.634 18.4957 143.64 20.1351 143.643C22.5915 143.647 25.0461 143.643 27.5025 143.657C27.896 143.659 27.9669 143.477 27.9952 143.133C28.0874 141.967 28.1884 140.801 28.3373 139.64C28.7112 136.701 29.2128 133.788 30.0511 130.939C30.1787 130.503 30.122 130.167 29.5974 130.025C29.2801 129.94 28.97 129.803 28.6829 129.642C25.195 127.691 22.1041 125.265 19.6583 122.066C19.4102 121.741 19.1993 121.108 18.8661 121.188C18.4283 121.295 18.3043 121.917 18.1519 122.376ZM20.245 103.976C20.4629 103.963 20.6845 103.97 20.8989 103.935C23.2313 103.545 25.5743 103.226 27.9314 103.035C28.993 102.948 29.2908 102.646 29.3032 101.587C29.3227 100.039 29.4432 98.4975 29.5371 96.9538C29.6311 95.4066 29.9572 93.8931 30.0972 92.3565C30.2726 91.4491 29.9802 91.0627 29.0426 91.0574C26.3629 91.0414 23.6885 91.1992 21.0124 91.3463C20.0234 91.4012 19.5484 91.8655 19.2401 92.7163C17.98 96.1988 17.2214 99.7735 17.1789 103.487C17.17 104.224 17.45 104.52 18.182 104.449C18.8874 104.38 19.5715 104.194 20.245 103.976ZM22.4532 48.5523C22.556 48.843 22.6854 49.1283 22.7528 49.4278C22.8981 50.0747 23.2118 50.2147 23.8746 50.0481C26.0776 49.4952 28.3089 49.5678 30.5296 49.9719C31.5841 50.1633 31.577 50.197 31.9794 49.2276C32.6404 47.6343 33.1597 47.2851 34.8948 47.2869C40.497 47.2904 46.101 47.2975 51.7033 47.2975C51.9337 47.2975 52.1853 47.3666 52.398 47.2125C52.3945 47.1557 52.4104 47.0973 52.3874 47.0742C52.2669 46.9466 52.1393 46.8225 52.0099 46.7038C49.7148 44.593 47.0634 43.0458 44.187 41.8956C42.8577 41.3639 41.4736 40.958 40.0256 40.857C31.2155 39.23 22.6305 43.4977 19.809 47.3206C21.0478 47.0618 21.8719 47.5722 22.4532 48.5523ZM38.3472 67.6311C38.2515 67.4858 38.1133 67.4769 37.9609 67.5088C37.4079 67.2448 36.8301 67.0232 36.3055 66.7113C32.6316 64.5225 30.9426 61.1339 30.4995 57.0062C30.5083 55.9003 30.4835 54.7944 30.5367 53.692C30.5668 53.0788 30.262 52.8608 29.7463 52.7704C28.3674 52.5276 26.985 52.4531 25.592 52.6339C24.1883 52.8165 23.887 53.1479 23.8746 54.548C23.8711 54.8351 23.8729 55.1222 23.8711 55.4093C23.7896 57.1852 23.5184 58.9327 22.8272 60.5756C21.101 64.6678 18.2298 67.3086 13.6183 67.6737C12.4397 67.64 12.4451 67.6364 12.8367 68.7583C13.7193 71.2891 15.1779 73.4496 17.0796 75.3176C18.6818 76.8914 20.4895 78.1887 22.494 79.206C22.9158 79.2503 23.1586 79.6136 23.5184 79.7802C26.8982 81.3328 30.4463 82.1888 34.1611 82.2313C37.9626 82.2739 41.6171 81.4746 45.1493 80.0656C48.2331 78.8356 51.0068 77.1129 53.2594 74.6813C55.7849 71.9555 57.481 68.7707 58.0871 65.0453C58.555 62.1671 58.4752 59.3279 57.777 56.4993C57.7256 56.2919 57.6511 56.1218 57.4845 56.0013C56.3556 55.186 55.1734 54.4488 53.986 53.7221C53.745 53.575 53.5908 53.6034 53.3657 53.8214C52.9527 54.2219 52.7968 54.6473 52.8198 55.2268C52.8978 57.2118 52.5859 59.1294 51.8327 60.9903C49.9717 65.5806 45.3939 68.4428 40.3801 67.936C39.6959 67.8668 39.0473 67.6099 38.3561 67.6347L38.3472 67.6311ZM30.542 144.538C30.48 145.559 29.6346 146.355 28.612 146.355C24.6881 146.353 20.5888 146.344 16.7305 146.344C15.3605 146.344 13.7123 146.35 12.1952 146.353C11.3622 146.355 10.6993 145.653 10.7525 144.82L10.8695 142.931C10.9439 138.261 11.5979 133.669 12.819 129.16C13.7831 125.6 15.1159 122.184 16.8758 118.943C17.1736 118.395 17.2604 117.954 16.9502 117.358C16.5533 116.598 16.3122 115.758 16.0003 114.953C15.917 114.737 15.8993 114.498 15.5182 114.569C11.9736 115.239 8.78526 114.338 5.95667 112.203C0.361522 107.978 -0.925168 100.63 2.77008 94.4212C5.09356 90.5168 8.47688 87.768 12.3724 85.5721C15.1478 84.0072 18.0969 82.8835 21.186 82.1197C21.3314 82.0842 21.4962 82.0913 21.622 81.9159C19.4084 80.8046 17.4004 79.4045 15.6281 77.6854C12.6843 74.8302 10.5806 71.4841 9.7618 67.4114C9.71395 67.1739 9.60938 67.0214 9.38962 66.9062C4.60086 64.3949 2.86224 60.2406 3.02706 55.0637C3.03061 54.9627 3.04478 54.7979 3.06251 54.6969C3.19011 53.9259 3.18657 53.2046 2.34473 52.7633C2.27383 52.7243 2.22775 52.6321 2.17458 52.563C1.65176 51.8807 1.5401 48.8589 2.00799 48.134C2.42093 47.496 3.02174 47.2674 3.76434 47.2709C7.57301 47.2851 11.3835 47.2745 15.1921 47.2975C15.8089 47.3011 16.2183 47.1469 16.6401 46.6311C19.3287 43.3559 22.7279 41.0714 26.6749 39.5597C28.0962 39.0156 29.5424 38.5388 31.0329 38.2978C31.9102 38.156 32.7999 37.8972 33.7127 37.9965C33.7889 38.0302 33.8668 38.0585 33.9253 37.9646C34.7654 37.6279 35.648 37.7785 36.5129 37.7466C36.6245 37.8583 36.7397 37.8671 36.8549 37.7519C37.3211 37.798 37.8067 37.6828 38.2462 37.9274C38.427 38.1064 38.6414 38.0195 38.847 37.9947C40.1071 37.9309 41.3194 38.2623 42.5263 38.5282C46.0727 39.3133 49.2416 40.9208 52.0772 43.1698C55.5633 45.9346 58.3618 49.2382 59.8842 53.4935C60.0295 53.8993 60.322 54.1492 60.6428 54.3867C62.1687 55.5245 63.7106 56.6393 65.093 57.9579C66.5463 59.3421 67.3279 61.008 67.3261 63.0285C67.3243 63.8473 67.3491 64.6661 67.3545 65.4866C67.3615 66.5766 66.72 67.3617 65.8161 67.3724C64.9069 67.3848 64.2512 66.6404 64.2299 65.5309C64.2104 64.4693 64.2193 63.406 64.2175 62.3426C64.2175 61.8818 64.0775 61.4741 63.7815 61.1197C62.984 60.1644 62.0181 59.3988 60.9423 58.5392C61.061 59.7621 61.1301 60.8521 61.1 61.9438C60.999 65.5912 60.1093 69.0312 58.3228 72.2178C58.0198 72.7584 58.0836 72.9569 58.6312 73.2174C64.5081 76.007 69.1817 80.163 72.5313 85.7405C76.4712 92.2998 77.8943 99.3996 76.799 106.98C76.1132 111.729 74.5465 116.162 71.8721 120.171C69.825 123.241 67.3243 125.883 64.2848 127.987C63.6805 128.405 63.6025 128.768 63.8488 129.44C65.4581 133.842 66.2751 138.401 66.3921 143.083L66.4967 144.4C66.58 145.455 65.747 146.357 64.6889 146.357C63.7549 146.357 62.7996 146.357 61.9968 146.357C61.2914 146.275 60.5878 146.284 59.8824 146.35C56.1748 146.348 52.4671 146.348 48.7595 146.346C47.6429 146.346 46.7089 145.499 46.6008 144.388L46.4608 142.95C46.1684 140.955 45.8033 138.977 45.1972 136.999C44.9614 137.563 44.7683 138.1 44.5148 138.606C44.0487 139.539 43.2973 139.9 42.2729 139.737C41.3761 139.594 40.5874 139.189 39.8643 138.672C37.9006 137.268 36.5696 135.358 35.6019 133.178C35.4601 132.857 35.3485 132.589 34.8912 132.549C34.2993 132.497 33.718 132.373 33.1632 132.162C32.5802 131.941 32.4065 132.088 32.3179 132.543C32.1938 133.194 32.0201 133.837 31.8783 134.484C31.2633 137.3 30.8876 140.152 30.6324 143.021L30.542 144.538ZM74.3497 105.195C74.4242 104.78 74.1619 104.53 73.9031 104.284C72.7653 103.194 71.4875 102.283 70.2114 101.369C70.0094 101.225 69.818 100.892 69.5415 101.062C69.3182 101.2 69.3447 101.542 69.343 101.799C69.3341 102.907 69.249 104.008 69.1073 105.103C68.6589 108.562 67.7656 111.901 66.3549 115.097C66.2539 115.327 66.1865 115.547 66.2858 115.797C66.8564 117.232 67.4466 118.661 67.9074 120.139C68.0191 120.495 68.2105 120.648 68.5295 120.24C69.5291 118.966 70.4205 117.622 71.1596 116.185C72.0067 114.537 72.6146 112.802 73.1428 111.017C73.7082 109.098 74.0325 107.15 74.3497 105.195ZM74.348 101.679C74.4756 100.334 74.2895 99.1107 74.1034 97.8931C73.5806 94.4478 72.4782 91.1992 70.7785 88.1526C70.5481 87.7396 70.2805 87.589 69.8109 87.729C69.0913 87.9434 68.354 88.0994 67.6292 88.2997C66.6402 88.5726 66.5622 88.6843 66.9273 89.6378C67.8365 92.0215 68.5029 94.4708 68.9619 96.9769C69.047 97.443 69.2561 97.7957 69.6248 98.0775C70.4524 98.7066 71.2606 99.3606 72.1007 99.972C72.8291 100.504 73.4618 101.163 74.348 101.679ZM44.0718 50.3725C43.1448 49.995 42.7833 50.6968 42.4005 51.5812C40.832 55.2144 39.2103 58.8246 37.5975 62.4401C36.9542 63.8827 36.9418 63.8774 38.3508 64.558C39.2103 64.9727 39.2759 64.9461 39.6605 64.0688C41.4718 59.9358 43.2831 55.8028 45.0997 51.6716C45.6792 50.3512 45.6881 50.3565 44.0718 50.3725ZM14.6622 50.3689C13.7353 50.0162 13.3684 50.6897 12.9945 51.5386C11.5164 54.8971 9.9922 58.2344 8.46979 61.5734C8.05153 62.4897 8.02849 62.4808 8.82071 63.1507C8.88806 63.2075 8.95363 63.2677 9.0263 63.3191C10.173 64.1503 9.94789 64.2762 10.5505 62.9558C12.2554 59.2145 13.9249 55.4554 15.6317 51.7141C16.2537 50.353 16.2856 50.3671 14.6622 50.3689ZM41.4044 50.3636C40.9596 50.3636 40.6034 50.4044 40.2595 50.3547C39.6782 50.2697 39.3858 50.5178 39.1554 51.0353C37.7411 54.2272 36.3038 57.4103 34.87 60.5933C34.7565 60.8468 34.6927 61.0789 34.8274 61.3501C35.0809 61.8641 35.3662 62.3532 35.8306 62.876C37.6986 58.6828 39.5347 54.5604 41.4044 50.3636ZM7.04486 61.0453C7.26109 60.8716 7.32312 60.6536 7.4135 60.4533C7.94165 59.2854 8.46802 58.1139 8.99794 56.9459C9.91953 54.9113 10.8394 52.875 11.7734 50.8457C11.9559 50.4487 11.924 50.2856 11.4402 50.3352C11.068 50.3742 10.6816 50.3973 10.313 50.3477C9.77243 50.275 9.51368 50.5231 9.30986 50.9839C8.60094 52.5807 7.9895 54.2396 7.1069 55.7372C6.05415 57.5219 6.06478 59.2021 6.98461 60.969C6.9917 60.9885 7.00942 61.0027 7.04486 61.0453ZM66.3992 122.478C66.3956 122.452 66.3992 122.383 66.3797 122.321C65.9862 121.054 65.6194 119.777 65.0292 118.579C64.8041 118.122 64.6411 118.216 64.4107 118.576C63.544 119.937 62.6189 121.257 61.614 122.521C61.4155 122.769 61.357 122.984 61.5183 123.297C61.8621 123.965 62.1811 124.65 62.454 125.35C62.6242 125.782 62.8032 125.768 63.1275 125.527C64.1785 124.749 65.1657 123.896 66.1475 123.035C66.3017 122.897 66.4098 122.737 66.3992 122.478ZM42.7727 131.84C41.4186 132.111 39.8696 132.297 38.2958 132.26C37.9059 132.251 37.9715 132.524 38.0885 132.772C38.512 133.676 39.065 134.5 39.7154 135.251C40.279 135.9 40.8816 136.526 41.6348 136.958C42.0017 137.169 42.4093 137.268 42.5901 136.707C43.0261 135.34 43.3168 133.938 43.5223 132.52C43.572 132.164 43.4763 131.79 42.7727 131.84ZM40.5466 129.456C41.0677 129.447 41.5622 129.33 42.0549 129.206C42.381 129.123 42.5068 128.969 42.3438 128.637C42.1098 128.162 41.89 127.68 41.665 127.2C41.5214 126.895 41.2999 126.838 40.9631 126.863C39.4638 126.971 37.9609 126.939 36.4597 126.851C36.1691 126.833 35.7827 126.769 35.6604 127.003C35.5204 127.269 35.8323 127.522 36.0486 127.701C37.3547 128.781 38.902 129.247 40.5466 129.456ZM29.7268 127.124C30.877 128.331 35.4424 129.935 37.1527 129.743C35.6303 129.24 34.3649 128.444 33.4876 127.113C33.4096 126.994 33.305 126.916 33.1615 126.916C32.0272 126.915 30.8894 126.902 29.7268 127.124ZM55.5403 50.9591C55.3276 50.3122 54.8651 49.8479 54.3812 49.325C54.0214 50.4629 54.9944 50.555 55.5403 50.9591Z" fill="#31080B"/>
<path d="M38.8489 37.993C38.6433 38.0178 38.4306 38.1046 38.248 37.9256C38.4802 37.6633 38.6628 37.8388 38.8489 37.993Z" fill="#447F59"/>
<path d="M36.8567 37.7518C36.7397 37.867 36.6263 37.8581 36.5146 37.7464C36.6298 37.6826 36.7433 37.6773 36.8567 37.7518Z" fill="#447F59"/>
<path d="M33.9256 37.9644C33.8671 38.0566 33.7909 38.03 33.7129 37.9963C33.7767 37.9609 33.8387 37.9255 33.9025 37.8936C33.9132 37.8882 33.9344 37.906 33.9504 37.9148C33.9415 37.929 33.9344 37.9467 33.9256 37.9644Z" fill="#447F59"/>
<path d="M79.9791 144.586L79.9365 144.558L79.9542 144.51L80.0003 144.538L79.9791 144.586Z" fill="#74CD92"/>
<path d="M30.5003 57.0079C30.9434 61.1356 32.6324 64.5225 36.3064 66.713C36.831 67.025 37.4087 67.2465 37.9617 67.5106C38.0574 67.6559 38.1938 67.6701 38.348 67.6329L38.3569 67.6364C38.3711 67.9607 38.6582 68.0015 38.8673 68.083C42.2524 69.4087 45.5524 69.3112 48.7302 67.4485C49.3203 67.1029 49.8698 66.6882 50.4475 66.3231C51.0412 65.9474 51.3337 66.052 51.6367 66.69C51.9044 67.2518 51.7289 67.7888 51.5074 68.2886C50.0541 71.562 47.6987 74.0752 44.6929 75.9379C40.2852 78.669 35.4362 79.6012 30.2858 79.2361C27.0372 79.0057 23.9251 78.3322 21.0079 76.8577C20.6835 76.6929 20.4248 76.684 20.1961 76.9888C17.5873 74.6972 15.4375 72.0672 14.0941 68.8274C13.9346 68.4446 13.908 68.0068 13.6191 67.6789C18.2307 67.3121 21.1018 64.6731 22.8262 60.5809C23.5192 58.938 23.7904 57.1905 23.8701 55.4146C24.0757 55.2888 24.221 55.0885 24.4674 55.0052C26.2113 54.4239 27.9641 54.369 29.74 54.8652C30.2291 55.0017 30.4028 55.2782 30.3886 55.7779C30.3798 56.1838 30.2717 56.6145 30.5003 57.0079ZM25.7789 71.3671C27.4608 71.3724 28.9797 70.309 29.4405 68.8026C29.662 68.0759 29.4777 67.5088 28.9371 67.2589C28.3753 66.9984 28.0155 67.1579 27.5406 67.8721C26.5339 69.3857 25.0771 69.3697 24.12 67.8314C23.7248 67.1969 23.2587 67.0108 22.6986 67.266C22.2254 67.4822 22.0376 68.044 22.2183 68.7033C22.6472 70.2824 24.0917 71.3618 25.7789 71.3671ZM21.2578 64.939C21.2241 65.5238 21.6937 66.0573 22.2804 66.1034C22.8936 66.1512 23.4146 65.7081 23.4501 65.1109C23.4838 64.5384 22.9964 64.0191 22.3956 63.9837C21.8089 63.95 21.2897 64.3878 21.2578 64.939ZM28.3026 63.989C27.7001 64.0014 27.2428 64.4569 27.2499 65.0364C27.2588 65.6213 27.7391 66.1105 28.2938 66.0998C28.9052 66.0874 29.382 65.6054 29.3855 64.9975C29.3873 64.4303 28.9017 63.9766 28.3026 63.989Z" fill="#74CD92"/>
<path d="M20.1973 76.9868C20.4259 76.682 20.6829 76.6909 21.009 76.8557C23.9262 78.3302 27.0366 79.0037 30.287 79.2341C35.4373 79.5992 40.2863 78.667 44.694 75.9359C47.6998 74.0732 50.0552 71.5618 51.5085 68.2866C51.73 67.7868 51.9055 67.2498 51.6379 66.688C51.3348 66.05 51.0424 65.9454 50.4487 66.3211C49.8709 66.6862 49.3215 67.1009 48.7313 67.4465C45.5536 69.3092 42.2518 69.4067 38.8684 68.081C38.6611 67.9995 38.374 67.9587 38.358 67.6344C39.051 67.6096 39.6997 67.8666 40.3838 67.9357C45.3976 68.4426 49.9754 65.5803 51.8364 60.99C52.5896 59.1309 52.9015 57.2115 52.8235 55.2265C52.8005 54.6452 52.9565 54.2216 53.3694 53.8211C53.5945 53.6031 53.7504 53.5747 53.9897 53.7218C55.1771 54.4485 56.3593 55.184 57.4882 56.001C57.6548 56.1215 57.7293 56.2935 57.7807 56.499C58.4789 59.3276 58.5587 62.1669 58.0908 65.0451C57.4847 68.7704 55.7886 71.9553 53.2631 74.6811C51.0105 77.1127 48.2368 78.8353 45.153 80.0653C41.6226 81.4743 37.9681 82.2736 34.1648 82.2311C30.45 82.1903 26.9019 81.3325 23.5221 79.78C23.1623 79.6152 22.9213 79.2501 22.4977 79.2058C22.5509 78.9913 22.4073 78.9045 22.2602 78.7963C21.5141 78.2593 20.7786 77.7099 20.1973 76.9868ZM49.2293 75.4751C49.2258 75.9554 49.6866 76.3204 50.1757 76.1982C50.9112 76.0138 51.3827 75.5034 51.7353 74.8672C51.8913 74.5871 51.9852 74.2894 51.7726 73.9987C51.5439 73.685 51.2178 73.5769 50.8403 73.6301C50.2253 73.7169 49.2346 74.8548 49.2293 75.4751Z" fill="#74CD92"/>
<path d="M48.822 91.3017C48.0227 89.8449 47.2251 88.3898 46.4258 86.933C46.4241 86.7238 46.4772 86.5608 46.6881 86.4491C47.3651 86.0894 48.0776 85.9511 48.8397 86.0415C49.5947 86.1319 50.1477 86.7292 50.8885 86.8461C50.4241 87.7199 50.6315 88.2888 51.5832 88.6291C51.9519 88.7602 52.3559 88.7957 52.7441 88.8736C53.2527 89.0775 53.795 89.1608 54.2842 89.4514C55.5496 90.2082 56.6679 91.1617 57.6321 92.2392C61.5347 96.6062 62.3393 101.652 60.4943 107.105C59.6667 109.549 58.1691 111.598 55.7588 112.809C54.2647 113.097 52.7689 113.117 51.3085 112.676C50.2806 112.365 49.896 111.552 50.0927 110.508C50.6209 107.708 51.25 104.922 51.289 102.051C51.3138 100.303 51.25 98.5734 50.7573 96.872C50.6474 96.4928 50.5872 96.0763 50.4773 95.681C51.429 96.1046 51.9075 96.989 52.4729 97.7741C52.9 98.3679 53.3148 98.9474 54.0556 99.1742C54.0254 99.7946 53.8996 100.445 54.566 100.853C53.476 100.846 53.1606 101.118 53.0719 102.226C52.9993 103.15 53.04 104.085 52.9071 104.998C52.7689 105.95 52.7352 106.822 53.4955 107.541C53.0064 107.646 52.5509 107.811 52.3737 108.337C52.2017 108.849 52.2514 109.328 52.675 109.719C53.1517 110.161 53.6107 109.934 54.0184 109.638C54.807 109.069 54.6103 108.178 53.5877 107.564C54.5518 107.582 55.1278 107.114 55.4433 106.207C55.5762 105.824 55.6648 105.434 55.695 105.053C55.8048 103.681 56.014 102.283 55.2111 101.016C55.3281 100.775 55.6418 100.815 55.7871 100.542C56.2142 99.7432 55.9555 99.1335 54.9293 98.6904C54.9577 98.2828 54.8549 97.9124 54.6475 97.5597C53.7029 95.954 52.5509 94.5042 51.2164 93.2122C50.5287 92.5476 49.8676 91.8263 48.9638 91.4275L48.9815 91.4382C48.923 91.3992 48.8716 91.3513 48.822 91.3017ZM50.9594 89.2742C50.8725 88.7992 50.5464 88.3933 50.1441 88.0389C49.8712 87.7979 49.5451 87.7092 49.2402 87.9255C48.9336 88.1435 48.7972 88.4784 48.9088 88.8595C49.0577 89.3681 49.3962 89.7616 49.8233 90.038C50.2894 90.3393 50.9611 89.9069 50.9594 89.2742Z" fill="#74CD92"/>
<path d="M45.0217 128.265C44.6389 127.421 44.2614 126.574 43.8697 125.734C43.7102 125.394 43.7474 125.093 43.9778 124.809C45.72 122.665 47.549 120.603 49.7431 118.895C50.7143 118.14 51.8468 118.002 53.0272 117.84C54.6382 117.621 55.5332 118.248 56.3857 119.588C58.9165 123.565 60.6693 127.859 62.0021 132.347C63.0123 135.751 63.5848 139.232 63.7301 142.78C63.7655 143.652 63.7443 143.654 62.8546 143.654C60.088 143.652 57.3232 143.649 54.5567 143.645C54.9324 143.443 55.3382 143.562 55.7282 143.544C56.9776 143.493 57.6192 142.848 57.6121 141.579C57.6032 139.96 57.3445 138.365 57.0202 136.793C56.313 133.376 55.3879 130.018 54.0232 126.792C53.5571 125.692 53.0555 124.611 52.4299 123.592C51.8681 122.675 51.4268 122.546 50.5176 123.094C49.9558 123.432 49.4276 123.847 48.9385 124.288C48.0098 125.128 47.0563 125.949 46.3172 126.973C45.7271 127.246 45.4949 127.877 45.0217 128.265ZM57.5306 130.64C58.0889 130.654 58.3848 130.353 58.3122 129.865C58.1704 128.924 57.722 128.107 56.99 127.491C56.6781 127.228 56.2864 127.264 55.9391 127.505C55.5704 127.76 55.62 128.095 55.7583 128.449C56.0259 129.135 56.4229 129.743 56.8695 130.323C57.0414 130.544 57.263 130.672 57.5306 130.64ZM57.7291 133.864C57.7167 134.61 58.0534 135.182 58.4185 135.734C58.617 136.033 58.8775 136.292 59.2976 136.159C59.7194 136.026 59.9781 135.725 59.9905 135.289C60.0083 134.573 59.8505 133.89 59.4163 133.298C59.1186 132.891 58.7021 132.768 58.2466 132.944C57.8301 133.107 57.6706 133.465 57.7291 133.864Z" fill="#74CD92"/>
<path d="M40.0274 40.8569C41.4754 40.958 42.8596 41.3638 44.1888 41.8955C47.0652 43.0457 49.7166 44.5929 52.0117 46.7038C52.1411 46.8225 52.2687 46.9466 52.3892 47.0742C52.4105 47.0972 52.3963 47.1557 52.3999 47.2124C52.1872 47.3666 51.9373 47.2975 51.7051 47.2975C46.1029 47.2975 40.4989 47.2904 34.8966 47.2868C33.1615 47.2851 32.6405 47.636 31.9812 49.2275C31.5789 50.197 31.586 50.1633 30.5314 49.9719C28.3108 49.5696 26.0794 49.4951 23.8765 50.0481C23.2136 50.2147 22.8999 50.0729 22.7546 49.4278C22.6872 49.1283 22.5561 48.8447 22.4551 48.554C23.5805 47.4056 24.8087 46.3776 26.145 45.488C29.8651 43.0103 34.0069 41.7608 38.4182 41.2947C38.9694 41.2344 39.5454 41.2008 40.0274 40.8569ZM39.8236 42.9128C39.8201 43.4658 40.3039 43.9709 40.7576 43.9301C41.1493 43.8947 41.4896 43.7369 41.5073 43.2566C41.525 42.7444 41.1298 42.2943 40.6424 42.2836C40.1515 42.273 39.8431 42.4839 39.8236 42.9128ZM38.0779 43.1698C38.4146 43.1822 38.622 43.0546 38.6202 42.6842C38.6185 42.3492 38.4891 42.1312 38.1258 42.1383C37.7961 42.1454 37.5923 42.3244 37.5657 42.6558C37.5391 43.0085 37.7288 43.1751 38.0779 43.1698Z" fill="#74CD92"/>
<path d="M46.3174 126.976C47.0564 125.95 48.0099 125.13 48.9386 124.291C49.426 123.85 49.9541 123.435 50.5177 123.097C51.4269 122.549 51.8682 122.679 52.43 123.595C53.0557 124.614 53.5572 125.695 54.0233 126.796C55.388 130.021 56.3132 133.38 57.0203 136.797C57.3446 138.369 57.6034 139.964 57.6122 141.582C57.6193 142.849 56.9778 143.494 55.7283 143.547C55.3384 143.563 54.9325 143.445 54.5568 143.648C53.4881 143.65 52.4176 143.712 51.3507 143.615C51.1203 142.939 51.053 142.243 51.0937 141.532C51.1274 141.454 51.1451 141.364 51.1965 141.3C51.909 140.391 51.7335 139.7 50.6719 139.235C50.5443 138.612 50.4344 137.984 50.2856 137.364C49.7344 135.049 48.9794 132.8 48.0117 130.626C47.4658 129.397 46.8827 128.19 46.3174 126.976Z" fill="#74CD92"/>
<path d="M44.6931 104.137C40.826 103.555 36.9446 103.125 33.0332 102.985C32.8418 101.718 33.0438 100.445 32.9995 99.1778C32.9268 97.1202 33.1962 95.0838 33.3114 93.0386C33.3611 92.1542 33.634 91.9468 34.5325 91.938C37.4232 91.9096 40.312 91.9716 43.2009 92.0904C43.4667 92.163 43.4685 92.4129 43.5465 92.6097C44.959 96.1401 45.2709 99.8265 45.1238 103.582C45.1096 103.906 44.9909 104.071 44.6931 104.137Z" fill="#F1BB7E"/>
<path d="M41.4964 117.518C39.7099 117.302 37.95 116.906 36.1529 116.75C35.366 116.681 34.5827 116.582 33.7993 116.495C33.5973 116.183 33.3438 115.903 33.2924 115.512C32.8954 112.414 32.984 109.301 33 106.191C33.0018 105.803 33.179 105.636 33.5654 105.627C35.7559 105.578 37.9323 105.806 40.1105 105.993C41.6878 106.127 43.2421 106.519 44.8407 106.443C44.8071 106.638 44.7681 106.831 44.7433 107.026C44.387 109.773 43.6462 112.414 42.6076 114.978C42.2603 115.836 41.7162 116.607 41.4964 117.518Z" fill="#F1BB7E"/>
<path d="M20.1351 143.643C18.4957 143.639 16.8581 143.634 15.2188 143.631C15.4527 143.141 15.4545 142.615 15.4722 142.09C15.513 140.821 15.6671 139.565 15.9188 138.321C16.4062 138.53 16.867 138.535 17.2516 138.115C17.5954 137.739 17.5298 137.303 17.3951 136.871C17.2126 136.291 16.6898 136.362 16.2467 136.288C16.2644 136.045 16.2538 135.797 16.3016 135.561C16.9928 132.231 17.8666 128.951 19.0611 125.764C19.2525 125.254 19.288 124.642 19.7576 124.25C20.2007 124.32 20.3992 124.704 20.6438 124.991C21.6823 126.205 22.8255 127.301 24.2079 128.109C24.8051 128.46 24.8866 128.894 24.7006 129.496C24.3886 130.507 24.1299 131.531 23.8924 132.563C23.2845 135.205 22.8538 137.876 22.5472 140.566C22.3133 142.645 21.9943 143.095 20.1351 143.643Z" fill="#74CD92"/>
<path d="M50.8882 86.8479C50.1456 86.7309 49.5926 86.1337 48.8394 86.0433C48.0773 85.9511 47.3649 86.0911 46.6878 86.4509C46.4769 86.5626 46.4238 86.7256 46.4255 86.9347C44.6887 84.9338 46.1845 83.578 47.932 82.924C50.0499 82.1318 51.9799 82.628 53.7894 83.9626C57.3358 86.582 60.1538 89.8094 62.2398 93.689C62.4259 94.0363 62.495 94.3111 62.1866 94.6389C61.8038 95.0501 61.6106 95.5322 61.9332 96.0887C62.2256 96.5938 62.5623 97.0174 63.2429 96.8348C63.5105 96.7621 63.6009 96.9447 63.6753 97.1343C63.8118 97.4852 63.95 97.8344 64.0599 98.1942C64.3612 99.176 64.3577 99.1866 63.3599 99.2593C62.9983 99.2859 62.7254 99.4454 62.5216 99.7237C61.9846 100.454 62.2132 102.075 62.9168 102.644C63.2305 102.9 63.5761 102.933 63.9075 102.756C64.4286 102.476 64.5491 102.646 64.5349 103.178C64.4091 107.97 61.4741 111.655 56.6677 112.686C56.3717 112.75 56.0775 112.895 55.7567 112.812C58.1653 111.602 59.6646 109.553 60.4923 107.109C62.3372 101.655 61.5344 96.6097 57.63 92.2428C56.6659 91.1652 55.5476 90.2099 54.2821 89.4549C53.793 89.1625 53.2507 89.081 52.742 88.8772C53.0539 87.6507 52.2617 86.7841 50.8882 86.8479ZM48.1482 84.3578C48.0826 83.9573 47.7849 83.7836 47.418 83.7322C47.0476 83.679 46.4167 84.1877 46.4787 84.4978C46.5602 84.9019 46.8934 85.1412 47.2798 85.1412C47.7406 85.1412 48.0436 84.8452 48.1482 84.3578Z" fill="#74CD92"/>
<path d="M11.6276 111.777C9.76665 111.423 8.17513 110.558 6.81754 109.246C6.814 108.95 6.67753 108.697 6.56056 108.438C5.60706 106.352 5.16399 104.188 5.57693 101.896C5.91722 101.932 6.23446 101.845 6.52866 101.689C6.99123 101.445 7.18441 101.04 7.09757 100.534C7.00895 100.016 6.6669 99.7484 6.15293 99.6634C5.61947 99.5748 5.33767 99.8495 5.125 100.289C5.03107 100.482 5.05411 100.73 4.85029 100.87C4.35405 100.468 4.57381 99.954 4.69078 99.4985C4.79712 99.0909 5.19589 99.2575 5.48832 99.2504C5.68682 99.2469 5.88709 99.2735 6.08381 99.2522C6.84058 99.1707 7.43253 98.5344 7.20745 97.8379C6.97351 97.1095 7.27125 96.6522 7.65407 96.1595C8.02094 95.6899 8.36299 95.1954 8.77062 94.763C9.39801 94.093 9.90489 93.2441 11.0764 93.3877C11.5833 93.4497 11.8615 92.9464 11.6985 92.3934C11.5992 92.0602 11.6417 91.8528 11.9235 91.6579C12.1398 91.5072 12.317 91.2999 12.5314 91.1457C13.2155 90.6565 13.8252 90.054 14.7131 89.6375C14.6121 90.1762 14.3977 90.6902 15.0995 90.7576C15.5763 90.8036 15.9272 90.536 15.9289 90.0965C15.9325 89.4106 15.3902 89.4567 14.8656 89.517C15.2501 89.2121 15.6188 88.9321 16.0264 88.7336C16.948 88.2834 17.7704 87.6011 18.8426 87.4912C18.3038 88.6219 17.765 89.7509 17.228 90.8834C16.9551 91.4612 16.6893 92.0425 16.4216 92.622C15.2998 93.4426 14.4757 94.529 13.7136 95.6651C11.7392 98.6071 10.3781 101.762 10.7219 105.399C10.924 107.541 11.5797 109.544 13.2545 111.05C13.5806 111.345 13.9741 111.564 14.3498 111.83C14.2063 111.905 14.1123 111.956 14.0166 112.006C13.8872 112.007 13.7596 112.007 13.6303 112.009C12.971 111.869 12.3064 111.761 11.6276 111.777ZM8.69618 107.309C8.71391 107.883 9.14635 108.351 9.56815 108.282C10.0449 108.204 10.3816 107.913 10.4029 107.407C10.4242 106.907 10.0219 106.558 9.50081 106.561C8.95139 106.565 8.71391 106.873 8.69618 107.309Z" fill="#74CD92"/>
<path d="M30.0993 92.3544C29.9593 93.8927 29.6332 95.4045 29.5392 96.9517C29.4453 98.4954 29.3266 100.037 29.3053 101.585C29.2911 102.644 28.9951 102.946 27.9335 103.032C25.5746 103.224 23.2334 103.543 20.901 103.933C20.6866 103.968 20.4651 103.961 20.2471 103.974C20.2648 102.588 20.2931 101.212 20.497 99.8264C20.8514 97.4249 21.3973 95.0837 22.2055 92.801C22.2799 92.5919 22.3969 92.3668 22.7017 92.3313C25.1687 92.0407 27.634 91.8227 30.0993 92.3544Z" fill="#F1BB7E"/>
<path d="M20.1346 143.643C21.9937 143.096 22.3127 142.645 22.5502 140.563C22.8568 137.873 23.2875 135.202 23.8954 132.559C24.1329 131.528 24.3916 130.503 24.7036 129.493C24.8897 128.891 24.8081 128.456 24.2109 128.106C22.8285 127.296 21.6871 126.2 20.6468 124.988C20.4004 124.701 20.2019 124.315 19.7588 124.247C19.4327 123.443 18.8532 122.856 18.1514 122.374C18.3056 121.915 18.4296 121.295 18.8656 121.19C19.1988 121.11 19.4097 121.743 19.6578 122.067C22.1036 125.265 25.1927 127.691 28.6824 129.644C28.9695 129.805 29.2796 129.942 29.5969 130.027C30.1215 130.167 30.1782 130.503 30.0506 130.941C29.2123 133.789 28.7107 136.703 28.3368 139.641C28.1897 140.802 28.0887 141.968 27.9947 143.135C27.9681 143.478 27.8955 143.661 27.502 143.659C25.0456 143.643 22.5892 143.645 20.1346 143.643Z" fill="#74CD92"/>
<path d="M29.2503 105.643C29.3265 107.917 29.3052 110.196 29.5675 112.461C29.6721 113.361 29.7908 114.26 29.9025 115.159C30.0141 116.052 29.743 116.461 28.8462 116.575C26.7407 116.84 24.6636 117.246 22.5864 117.666C22.434 117.324 22.2816 116.982 22.1327 116.638C21.4451 115.052 21.1651 113.354 20.8354 111.68C20.582 110.388 20.465 109.067 20.3923 107.749C20.3657 107.277 20.5341 107.031 21.0197 106.912C21.5372 106.786 22.0707 106.772 22.5776 106.643C24.7681 106.084 27.019 105.928 29.2503 105.643Z" fill="#F1BB7E"/>
<path d="M74.3498 105.195C74.0308 107.152 73.7082 109.097 73.1411 111.015C72.6147 112.802 72.005 114.535 71.1579 116.183C70.4206 117.62 69.5273 118.964 68.5278 120.238C68.2088 120.646 68.0174 120.493 67.9057 120.137C67.4449 118.659 66.8547 117.231 66.284 115.795C66.1848 115.543 66.2521 115.325 66.3532 115.095C67.7621 111.899 68.6554 108.56 69.1055 105.101C69.2473 104.006 69.3324 102.903 69.3413 101.797C69.343 101.542 69.3165 101.198 69.5398 101.06C69.818 100.89 70.0094 101.221 70.2097 101.367C71.4857 102.281 72.7653 103.192 73.9014 104.282C74.1619 104.53 74.4242 104.778 74.3498 105.195Z" fill="#B66740"/>
<path d="M18.8433 87.4897C17.771 87.5996 16.9487 88.2819 16.0271 88.7321C15.6194 88.9306 15.2508 89.2106 14.8662 89.5154C15.3908 89.457 15.9331 89.4091 15.9296 90.095C15.9278 90.5363 15.5751 90.8021 15.1002 90.756C14.3983 90.6887 14.6128 90.1765 14.7138 89.636C13.8259 90.0524 13.2162 90.655 12.5321 91.1442C12.3176 91.2984 12.1404 91.5057 11.9242 91.6564C11.6442 91.8513 11.5999 92.0587 11.6991 92.3919C11.8622 92.9448 11.5857 93.4482 11.077 93.3861C9.90554 93.2426 9.40044 94.0897 8.77127 94.7614C8.36541 95.1957 8.02159 95.6884 7.65472 96.158C7.27013 96.6507 6.97239 97.108 7.2081 97.8364C7.43318 98.5311 6.84124 99.1692 6.08446 99.2507C5.88774 99.2719 5.68747 99.2454 5.48897 99.2489C5.19654 99.2542 4.796 99.0894 4.69144 99.497C4.57446 99.9525 4.3547 100.465 4.85094 100.869C4.86689 101.128 5.00691 101.326 5.16641 101.514C5.15755 101.59 5.193 101.626 5.26743 101.622C5.37023 101.712 5.47479 101.803 5.57759 101.895C5.16464 104.187 5.60949 106.351 6.56121 108.437C6.67996 108.695 6.81642 108.949 6.8182 109.245C6.78807 109.245 6.76503 109.232 6.7473 109.207C6.7349 109.129 6.69236 109.092 6.61261 109.103C3.26296 106.063 2.41758 100.913 4.64004 96.594C6.21739 93.5297 8.64721 91.2257 11.4758 89.3169C14.191 87.4844 17.1472 86.1481 20.2381 85.0935C20.3143 85.067 20.4046 85.0776 20.6475 85.0581C19.8517 85.8379 19.5327 86.7932 18.8433 87.4897Z" fill="#FCF8E6"/>
<path d="M74.3478 101.679C73.4635 101.163 72.8307 100.504 72.1006 99.9737C71.2605 99.3623 70.4523 98.7083 69.6247 98.0791C69.2542 97.7973 69.0469 97.4429 68.9618 96.9785C68.5028 94.4725 67.8364 92.0232 66.9272 89.6394C66.5639 88.6842 66.6401 88.5725 67.6291 88.3014C68.3539 88.1011 69.0912 87.9451 69.8108 87.7307C70.2804 87.5907 70.548 87.7413 70.7784 88.1543C72.4781 91.2008 73.5804 94.4495 74.1033 97.8948C74.2876 99.1106 74.4754 100.334 74.3478 101.679Z" fill="#B66740"/>
<path d="M41.4971 117.518C41.7168 116.607 42.2609 115.836 42.6083 114.978C43.6469 112.412 44.3877 109.771 44.7439 107.026C44.7687 106.831 44.8095 106.636 44.8414 106.443C44.8768 106.299 44.9141 106.154 44.9495 106.01C45.9048 106.007 46.814 106.281 47.7303 106.498C48.2371 106.618 48.0829 107.052 48.012 107.379C47.7781 108.437 47.5991 109.502 47.4715 110.578C47.296 112.068 47.709 113.344 48.8415 114.331C49.281 114.714 49.3129 114.959 48.8982 115.382C48.0794 116.219 47.3031 117.096 46.5339 117.98C46.1086 118.47 45.6496 118.643 45.008 118.447C43.8507 118.092 42.6384 117.934 41.4971 117.518Z" fill="#F1BB7E"/>
<path d="M14.0188 112.002C14.1145 111.953 14.2102 111.901 14.352 111.827C13.9745 111.563 13.5828 111.341 13.2567 111.047C11.5819 109.541 10.9261 107.538 10.7241 105.395C10.3803 101.758 11.7414 98.6037 13.7157 95.6617C14.4778 94.5256 15.3037 93.4392 16.4238 92.6187C16.0835 93.9621 15.7113 95.2984 15.41 96.6506C15.0166 98.4105 14.6231 100.192 14.6019 101.991C14.5841 103.396 14.6285 104.812 14.6728 106.223C14.7206 107.696 14.7596 109.165 15.0715 110.618C15.3143 111.765 15.0609 112.045 14.0188 112.002ZM13.9585 105.803C13.9408 105.344 13.4251 104.954 12.8597 104.973C12.4007 104.989 11.9239 105.464 11.9222 105.909C11.9204 106.35 12.523 106.949 12.9643 106.948C13.441 106.942 13.978 106.324 13.9585 105.803Z" fill="#74CD92"/>
<path d="M64.3025 88.0818C64.6836 88.4504 64.7952 88.9591 64.9866 89.4234C66.8972 94.0456 67.9375 98.8414 67.5511 103.853C67.2286 108.04 66.0624 112.011 64.0615 115.726C63.1984 117.327 62.2006 118.837 61.1425 120.309C61.0273 120.471 60.8873 120.612 60.7615 120.767C60.462 121.13 60.2262 121.077 60.049 120.657C60.0313 120.616 60.0224 120.568 59.9958 120.536C59.0547 119.389 59.1788 118.31 60.0153 117.116C60.5382 116.371 60.8784 115.474 61.1496 114.581C61.302 114.078 61.6069 113.729 62.0322 113.397C65.5165 110.691 67.0992 107.065 67.2445 102.7C67.3916 98.2442 65.8373 94.3398 63.5582 90.6428C63.2923 90.2121 63.0389 89.7726 62.7801 89.3383C62.9999 89.1363 62.8333 89.0016 62.6986 88.8598C62.7269 88.7783 62.7553 88.6985 62.7837 88.617C63.3366 88.3618 63.007 87.9099 62.9946 87.5465C62.9892 87.4083 62.7447 87.2878 63.0105 87.1371C63.2303 87.0131 63.3242 87.1708 63.4518 87.2843C63.6716 87.4827 63.7708 87.8301 64.143 87.8372L64.1342 87.8283C64.1749 87.9577 64.0633 88.1101 64.198 88.2236C64.2299 88.1775 64.2671 88.1296 64.3025 88.0818Z" fill="#B66740"/>
<path d="M30.099 92.3547C27.6337 91.823 25.1684 92.041 22.6996 92.3334C22.3948 92.3689 22.2778 92.5957 22.2034 92.8031C21.3952 95.0858 20.8493 97.427 20.4949 99.8285C20.2911 101.213 20.2627 102.59 20.245 103.976C19.5715 104.194 18.8856 104.38 18.182 104.447C17.4501 104.518 17.1701 104.222 17.1789 103.485C17.2232 99.7718 17.98 96.1953 19.2401 92.7145C19.5485 91.8638 20.0235 91.3994 21.0124 91.3445C23.6886 91.1974 26.3612 91.0414 29.0427 91.0556C29.982 91.0609 30.2727 91.4473 30.099 92.3547Z" fill="#FCF8E6"/>
<path d="M29.2497 105.643C27.0184 105.928 24.7676 106.084 22.5752 106.643C22.0684 106.772 21.5349 106.786 21.0174 106.912C20.5335 107.031 20.3652 107.277 20.39 107.749C20.4644 109.067 20.5796 110.387 20.8331 111.68C21.1609 113.356 21.441 115.054 22.1304 116.638C22.2793 116.982 22.4334 117.324 22.5841 117.666C22.5274 117.702 22.4742 117.744 22.414 117.769C20.5176 118.513 20.1915 118.386 19.4064 116.505C18.1533 113.494 17.5153 110.345 17.2938 107.098C17.2495 106.442 17.5171 106.175 18.1073 106.06C21.4569 105.407 24.8456 105.051 28.2413 104.746C28.9201 104.684 29.1948 104.961 29.2497 105.643Z" fill="#FCF8E6"/>
<path d="M18.1521 122.375C18.8539 122.858 19.4334 123.444 19.7595 124.249C19.2899 124.64 19.2544 125.252 19.063 125.762C17.8685 128.949 16.9947 132.229 16.3035 135.56C16.2539 135.795 16.2646 136.043 16.2486 136.286C15.4014 137.102 15.3465 137.444 15.9207 138.321C15.6691 139.565 15.5149 140.822 15.4741 142.091C15.4564 142.615 15.4546 143.142 15.2207 143.631C13.4519 143.73 13.4537 143.73 13.5423 142.014C13.8719 135.689 15.0771 129.553 17.5123 123.685C17.6966 123.237 17.9358 122.811 18.1521 122.375Z" fill="#FCF8E6"/>
<path d="M44.6937 104.137C44.9914 104.071 45.1102 103.907 45.1226 103.582C45.2697 99.8268 44.956 96.1404 43.5452 92.61C43.4672 92.4132 43.4655 92.1634 43.1979 92.0907C43.1624 91.7983 43.0295 91.5182 43.0951 91.2134C43.8678 91.0982 44.6387 91.1638 45.4008 91.2932C45.8368 91.3676 46.0672 91.715 46.2444 92.0747C47.7367 95.1089 48.6689 98.2902 48.6814 101.698C48.6831 102.382 48.6193 103.068 48.5697 103.751C48.5254 104.369 48.1833 104.676 47.5613 104.621C46.5936 104.536 45.6419 104.348 44.6937 104.137Z" fill="#F1BB7E"/>
<path d="M40.0282 40.8566C39.5461 41.2005 38.9701 41.2341 38.4171 41.2926C34.0059 41.7587 29.864 43.0082 26.144 45.4859C24.8076 46.3756 23.5794 47.4053 22.454 48.552C21.8709 47.5701 21.0486 47.0614 19.8115 47.3184C22.633 43.4974 31.218 39.2297 40.0282 40.8566Z" fill="#FCF8E6"/>
<path d="M44.0716 50.3722C45.688 50.3562 45.6791 50.3527 45.0995 51.6695C43.2829 55.8008 41.4716 59.9338 39.6604 64.0668C39.2758 64.944 39.2102 64.9706 38.3506 64.5559C36.9417 63.8754 36.9541 63.8807 37.5974 62.438C39.2102 58.8243 40.8319 55.2141 42.4003 51.5791C42.7814 50.6965 43.1447 49.9929 44.0716 50.3722Z" fill="#FCF8E6"/>
<path d="M24.7803 83.8156C24.8831 83.4629 25.1241 83.3796 25.4502 83.486C26.8255 83.9415 28.199 84.4164 29.6381 84.6256C30.519 84.7532 31.4069 84.8666 32.2948 84.9198C34.1309 85.0314 35.9723 84.996 37.8031 84.8843C38.8647 84.8205 39.9122 84.498 40.9561 84.2498C41.3619 84.1524 41.5941 84.2392 41.8475 84.5724C42.8949 85.9495 43.8024 87.4134 44.6797 88.8986C44.988 89.4214 44.9118 89.5632 44.3092 89.5703C43.5135 89.5809 42.7177 89.5526 41.9202 89.5419C41.4629 88.3651 40.754 87.346 39.8891 86.4422C39.3752 85.9052 38.7602 85.8006 38.0264 86.054C37.3671 86.2827 36.6476 86.3305 35.9759 86.5308C35.0933 86.7931 34.0636 86.6974 33.4025 87.5321C33.2607 87.6367 33.1189 87.7413 32.9772 87.8458C32.4543 87.8547 31.9599 87.603 31.4299 87.681C31.8376 87.5144 31.8624 87.2805 31.57 86.965C31.2297 86.5981 30.8043 86.3855 30.3417 86.2171C29.0586 85.7527 27.779 85.2742 26.4976 84.801C25.973 84.3898 25.2872 84.2605 24.7803 83.8156Z" fill="#F1BB7E"/>
<path d="M14.662 50.3687C16.2854 50.3669 16.2535 50.3528 15.6314 51.7139C13.9229 55.4552 12.2552 59.2125 10.5502 62.9556C9.94765 64.276 10.1727 64.1484 9.02605 63.3189C8.95516 63.2675 8.88781 63.2073 8.82047 63.1505C8.02825 62.4806 8.05129 62.4913 8.46955 61.5732C9.99196 58.2342 11.5161 54.8969 12.9942 51.5384C13.3682 50.6895 13.7351 50.016 14.662 50.3687Z" fill="#FCF8E6"/>
<path d="M23.7243 119.125C25.5409 118.648 27.3983 118.4 29.2539 118.15C29.9273 118.06 30.2977 118.415 30.4892 119.248C30.9181 121.101 31.5118 122.897 32.2756 124.639C31.1679 124.993 30.0957 124.839 29.0412 124.414C28.949 124.252 28.7807 124.286 28.6371 124.256L28.6424 124.272C27.1625 123.391 25.7429 122.422 24.7008 121.027C24.279 120.462 23.54 120.015 23.7243 119.125Z" fill="#F1BB7E"/>
<path d="M46.3172 126.977C46.8826 128.191 47.4657 129.398 48.0115 130.622C48.9774 132.797 49.7324 135.046 50.2854 137.36C50.4325 137.979 50.5441 138.608 50.6718 139.232C49.7803 139.377 49.3071 139.877 49.3851 140.591C49.4613 141.297 49.9469 141.596 50.8968 141.525C50.9624 141.52 51.028 141.527 51.0936 141.529C51.0528 142.238 51.1201 142.934 51.3505 143.611C49.2947 143.863 49.2699 143.867 48.9792 141.883C48.3341 137.488 47.0066 133.293 45.3371 129.194C45.245 128.969 45.167 128.74 45.0819 128.513C45.0872 128.492 45.1032 128.467 45.0979 128.451C45.0819 128.414 45.0536 128.382 45.0305 128.348C45.0376 128.32 45.0341 128.293 45.0234 128.265C45.4949 127.877 45.727 127.246 46.3172 126.977Z" fill="#FCF8E6"/>
<path d="M40.1939 118.966C41.5161 119.23 42.8205 119.558 44.1143 119.935C44.4599 120.036 44.5591 120.151 44.2755 120.467C42.9924 121.899 41.6738 123.303 40.5661 124.882C40.4314 125.073 40.2436 125.176 40.0061 125.194C38.4145 125.304 36.8248 125.238 35.235 125.171C34.8274 125.153 34.5793 124.839 34.3896 124.499C34.4251 124.46 34.4605 124.423 34.496 124.384L34.4924 124.386C34.5456 124.35 34.6006 124.316 34.6537 124.281C34.6821 124.261 34.7087 124.242 34.7335 124.219C36.4083 123.326 37.8421 122.131 39.0685 120.692C39.5169 120.173 40.1284 119.744 40.1939 118.966Z" fill="#F1BB7E"/>
<path d="M44.9497 106.009C44.9142 106.152 44.877 106.297 44.8416 106.441C43.2429 106.515 41.6904 106.125 40.1113 105.991C37.9331 105.805 35.7585 105.576 33.5662 105.626C33.178 105.635 33.0026 105.799 33.0008 106.189C32.9849 109.3 32.898 112.412 33.2932 115.51C33.3429 115.902 33.5981 116.183 33.8001 116.493C32.7013 116.516 32.1607 116.132 32.0101 115.069C31.5777 112.022 31.427 108.954 31.4199 105.881C31.4182 105.103 31.8701 104.722 32.719 104.738C35.7497 104.793 38.7626 105.082 41.7666 105.461C42.5783 105.564 43.39 105.663 44.2 105.771C44.4623 105.805 44.7317 105.83 44.9497 106.009Z" fill="#FCF8E6"/>
<path d="M63.9093 79.9925C65.4813 81.008 66.6599 82.4188 67.8101 83.8579C68.1947 84.3382 68.5864 84.8132 68.9781 85.2882C69.2687 85.6391 69.2404 85.8677 68.753 85.9669C67.9732 86.1265 67.1934 86.2877 66.4189 86.4685C65.8305 86.605 65.4955 86.2576 65.2066 85.8535C64.1237 84.3417 62.993 82.869 61.7524 81.4813C61.4281 81.1179 61.1002 80.7582 60.7546 80.4161C60.4657 80.129 60.4586 79.9376 60.8875 79.8277C61.281 79.7284 61.6283 79.5424 61.9208 79.2588C62.4985 79.5672 63.1773 79.6576 63.6966 80.0935C63.771 80.1573 63.8526 80.0616 63.9093 79.9925Z" fill="#B66740"/>
<path d="M26.4975 84.771C27.7788 85.2477 29.0567 85.728 30.3416 86.1959C30.8042 86.3643 31.2295 86.5787 31.5698 86.9492C31.8622 87.2664 31.8374 87.5003 31.4298 87.6687C30.9796 87.7892 30.8485 88.1685 30.7155 88.5513C30.5064 89.1521 30.097 89.5279 29.4483 89.5473C27.5981 89.6005 25.746 89.6342 23.894 89.6714C23.8337 89.6732 23.7717 89.6324 23.7096 89.6112C23.6671 89.2407 23.8124 88.9359 23.979 88.6116C24.6826 87.2363 25.5581 85.9832 26.4975 84.771Z" fill="#F1BB7E"/>
<path d="M43.0951 91.2134C43.0295 91.5183 43.1642 91.7983 43.1978 92.0907C40.3108 91.972 37.4201 91.9082 34.5295 91.9383C33.631 91.9472 33.358 92.1545 33.3084 93.0389C33.195 95.0841 32.9256 97.1205 32.9965 99.1782C33.0408 100.445 32.8388 101.718 33.0302 102.985C31.825 103.036 31.3996 102.647 31.4457 101.464C31.5609 98.4373 31.7878 95.4191 32.2344 92.4221C32.3815 91.4332 32.8157 91.0274 33.8277 91.0274C36.612 91.0238 39.398 91.0398 42.1823 91.061C42.4907 91.0646 42.792 91.1603 43.0951 91.2134Z" fill="#FCF8E6"/>
<path d="M40.1938 118.965C40.1282 119.742 39.515 120.171 39.0684 120.695C37.8402 122.134 36.4082 123.329 34.7334 124.222C34.5384 123.391 34.3062 122.567 34.1609 121.727C33.9553 120.546 33.5654 119.387 33.6842 118.163C35.8729 118.28 38.0458 118.529 40.1938 118.965Z" fill="#F1BB7E"/>
<path d="M41.405 50.3636C39.5352 54.5604 37.6991 58.6846 35.8329 62.8761C35.3686 62.3532 35.0832 61.8641 34.8298 61.3501C34.6951 61.079 34.7589 60.8468 34.8723 60.5934C36.3061 57.4103 37.7435 54.2272 39.1577 51.0353C39.3864 50.5178 39.6806 50.2715 40.2619 50.3548C40.6039 50.4044 40.9602 50.3636 41.405 50.3636Z" fill="#FCF8E6"/>
<path d="M33.4033 87.5324C34.0644 86.6976 35.0941 86.7951 35.9767 86.531C36.6484 86.3308 37.368 86.2829 38.0272 86.0543C38.761 85.8008 39.376 85.9054 39.8899 86.4424C40.7548 87.3481 41.4637 88.3654 41.921 89.5422C39.3086 89.5404 36.6963 89.5386 34.0839 89.5351C33.9527 88.9467 33.8074 88.3618 33.6993 87.7681C33.6621 87.5678 33.5717 87.5253 33.4033 87.5324Z" fill="#F1BB7E"/>
<path d="M7.04408 61.0453C7.00863 61.0028 6.99091 60.9886 6.98028 60.9691C6.06045 59.2021 6.05159 57.522 7.10256 55.7373C7.98517 54.2397 8.59661 52.5808 9.30553 50.984C9.50935 50.5249 9.7681 50.2768 10.3087 50.3477C10.6773 50.3973 11.0637 50.3743 11.4358 50.3353C11.9214 50.2857 11.9516 50.4487 11.769 50.8457C10.835 52.875 9.9152 54.9114 8.99361 56.946C8.46369 58.1139 7.93909 59.2837 7.40917 60.4534C7.32233 60.6536 7.2603 60.8716 7.04408 61.0453Z" fill="#FCF8E6"/>
<path d="M66.3992 122.478C66.4098 122.737 66.3017 122.897 66.1457 123.033C65.1639 123.895 64.1767 124.747 63.1257 125.525C62.7996 125.766 62.6206 125.78 62.4523 125.348C62.1793 124.648 61.8603 123.964 61.5165 123.296C61.3552 122.982 61.4155 122.767 61.6122 122.519C62.6171 121.256 63.544 119.937 64.4089 118.574C64.6375 118.214 64.8006 118.12 65.0274 118.578C65.6194 119.776 65.9845 121.052 66.3779 122.319C66.3992 122.383 66.3974 122.452 66.3992 122.478Z" fill="#B66740"/>
<path d="M42.7725 131.84C43.4761 131.792 43.5736 132.164 43.5222 132.522C43.3184 133.94 43.0259 135.342 42.59 136.708C42.411 137.272 42.0016 137.171 41.6347 136.96C40.8797 136.526 40.2789 135.902 39.7153 135.253C39.0649 134.503 38.5119 133.678 38.0883 132.774C37.9713 132.526 37.9058 132.253 38.2957 132.261C39.8677 132.295 41.4167 132.111 42.7725 131.84Z" fill="#447F59"/>
<path d="M62.7824 88.6185C62.7541 88.7 62.7257 88.7798 62.6974 88.8613C62.6087 88.8773 62.5378 88.9109 62.5343 89.0173C61.12 87.1546 59.5976 85.3876 57.8767 83.7996C57.8944 83.7323 57.8696 83.7075 57.8023 83.7252C57.5169 83.4523 57.2316 83.1811 56.9462 82.9082C56.3667 82.0876 55.516 81.5364 54.8496 80.8009C54.963 80.3295 55.0942 79.8634 55.3281 79.4327C55.6932 78.7645 55.952 78.7167 56.5528 79.2129C56.6503 79.2927 56.7548 79.3636 56.8559 79.438C56.4234 79.7145 56.2869 79.975 56.73 80.4163C58.279 81.9529 59.7855 83.5302 61.0261 85.338C61.7332 86.3695 62.3978 87.4169 62.7824 88.6185Z" fill="#FCF8E6"/>
<path d="M26.4975 84.8026C25.5582 86.0078 24.6827 87.2537 23.9809 88.6166C23.8143 88.9409 23.6672 89.2422 23.7115 89.6109C22.9122 89.8005 22.0916 89.765 21.2799 89.8129C20.8847 89.8359 20.5958 89.68 20.8616 89.2156C21.9374 87.3405 23.0823 85.5133 24.5409 83.9058C24.5923 83.8491 24.7004 83.8456 24.782 83.8154C25.2871 84.2603 25.9729 84.3897 26.4975 84.8026Z" fill="#FCF8E6"/>
<path d="M54.0516 99.1815C53.3107 98.9564 52.896 98.3751 52.4689 97.7814C51.9035 96.9945 51.425 96.1118 50.4733 95.6883C50.055 94.3644 49.6155 93.0475 48.9757 91.8069C48.9261 91.7095 48.8516 91.5659 48.9562 91.4365C49.8618 91.8371 50.5211 92.5566 51.2088 93.2212C52.5451 94.5132 53.6953 95.9612 54.64 97.5687C54.8473 97.9214 54.9501 98.2918 54.9218 98.6994C54.5779 98.7597 54.3528 99.0361 54.0516 99.1815Z" fill="#FCF8E6"/>
<path d="M20.1973 76.9868C20.7786 77.7117 21.5141 78.2593 22.2585 78.7981C22.4073 78.9062 22.5491 78.993 22.496 79.2075C20.4897 78.1902 18.6837 76.8946 17.0816 75.3208C15.1799 73.4528 13.7231 71.2924 12.8387 68.7616C12.447 67.6397 12.4399 67.6432 13.6203 67.6769C13.9092 68.0048 13.9357 68.4443 14.0953 68.8254C15.4387 72.0633 17.5885 74.6952 20.1973 76.9868Z" fill="#FCF8E6"/>
<path d="M30.4997 57.0079C30.2728 56.6162 30.3792 56.1838 30.3916 55.7761C30.4057 55.2763 30.2321 54.9999 29.7429 54.8634C27.9688 54.3672 26.216 54.4221 24.4703 55.0034C24.224 55.0849 24.0786 55.287 23.873 55.4128C23.8748 55.1257 23.873 54.8386 23.8766 54.5515C23.889 53.1514 24.1903 52.8199 25.594 52.6374C26.987 52.4566 28.3694 52.5293 29.7482 52.7739C30.264 52.8642 30.567 53.0822 30.5387 53.6954C30.4837 54.796 30.5085 55.902 30.4997 57.0079Z" fill="#74CD92"/>
<path d="M40.5471 129.456C38.9024 129.248 37.3552 128.781 36.049 127.701C35.8328 127.522 35.5209 127.269 35.6609 127.003C35.7832 126.769 36.1678 126.833 36.4602 126.85C37.9613 126.937 39.4643 126.969 40.9636 126.863C41.3004 126.838 41.5219 126.895 41.6655 127.2C41.8905 127.68 42.1103 128.162 42.3442 128.637C42.5091 128.968 42.3815 129.123 42.0554 129.206C41.5627 129.33 41.0682 129.447 40.5471 129.456Z" fill="#F1BB7E"/>
<path d="M62.7816 88.6187C62.397 87.4188 61.7324 86.3696 61.027 85.3399C59.7864 83.5304 58.28 81.9548 56.731 80.4183C56.2861 79.9769 56.4226 79.7146 56.8568 79.4399C58.186 80.2906 59.2671 81.4196 60.3252 82.568C61.5959 83.9469 62.8117 85.3718 63.7333 87.0201C63.8822 87.2877 64.0878 87.5269 64.141 87.8424C63.7688 87.8353 63.6695 87.488 63.4498 87.2895C63.3222 87.1743 63.2282 87.0165 63.0085 87.1424C62.7444 87.293 62.989 87.4117 62.9925 87.5518C63.0032 87.9115 63.3346 88.3617 62.7816 88.6187Z" fill="#B66740"/>
<path d="M63.9095 79.9928C63.8528 80.0619 63.7712 80.1576 63.695 80.0938C63.1757 79.6578 62.497 79.5656 61.9192 79.259C61.3095 78.3427 61.0596 78.2258 60.1398 78.4225C59.819 78.4331 59.5284 78.4278 59.243 78.1886C58.9913 77.9794 58.6546 77.8323 58.2877 77.8961C57.4672 77.4176 56.6555 76.9214 55.8225 76.4694C55.4946 76.2922 55.468 76.1788 55.7126 75.8934C56.3807 75.1172 56.3737 75.0959 57.2793 75.5496C59.4468 76.636 61.5116 77.889 63.4061 79.4079C63.6064 79.571 63.8687 79.6897 63.9095 79.9928Z" fill="#FCF8E6"/>
<path d="M23.7239 119.125C23.5413 120.016 24.2786 120.461 24.7004 121.027C25.7425 122.421 27.1639 123.391 28.642 124.272C27.6601 124.311 26.8555 123.79 26.0013 123.428C24.8528 122.733 23.7026 122.039 22.5542 121.346C22.143 121.009 21.8576 120.564 21.5209 120.164C21.2107 119.795 21.3632 119.637 21.7584 119.554C22.4141 119.412 23.0681 119.267 23.7239 119.125Z" fill="#FCF8E6"/>
<path d="M29.7266 127.124C30.8892 126.902 32.027 126.914 33.1631 126.916C33.3066 126.916 33.4112 126.994 33.4892 127.113C34.3664 128.442 35.6319 129.24 37.1543 129.743C35.4422 129.934 30.8768 128.331 29.7266 127.124Z" fill="#F1BB7E"/>
<path d="M26.0015 123.428C26.8558 123.79 27.6604 124.309 28.6423 124.272L28.6369 124.256C28.722 124.435 28.901 124.375 29.041 124.414C30.0955 124.839 31.1678 124.992 32.2755 124.639C32.614 125.093 32.5218 125.321 31.937 125.374C30.8895 125.472 29.8421 125.576 28.8 125.727C27.5452 125.91 26.6874 125.234 25.8562 124.465C25.8225 124.318 25.7109 124.274 25.578 124.256L25.5868 124.267C25.5833 123.957 25.3281 123.843 25.1437 123.664C25.0374 123.561 24.784 123.466 24.924 123.269C25.0179 123.136 25.2005 123.218 25.3245 123.331C25.5266 123.517 25.7658 123.46 26.0015 123.428Z" fill="#F1BB7E"/>
<path d="M33.6847 118.165C33.5659 119.389 33.9559 120.548 34.1614 121.729C34.3068 122.569 34.5407 123.393 34.7339 124.224C34.7091 124.247 34.6825 124.267 34.6541 124.286C34.601 124.322 34.546 124.355 34.4929 124.391L34.4964 124.389C34.4486 124.387 34.4007 124.385 34.3528 124.384C33.8265 123.735 33.6315 122.932 33.3728 122.17C33.0502 121.213 32.7808 120.235 32.5398 119.253C32.2704 118.159 32.5876 117.878 33.6847 118.165Z" fill="#FCF8E6"/>
<path d="M26.0007 123.428C25.7649 123.46 25.5257 123.517 25.3219 123.329C25.1996 123.216 25.0153 123.134 24.9213 123.267C24.7813 123.464 25.0348 123.56 25.1411 123.662C25.3254 123.841 25.5824 123.955 25.5842 124.265C24.4269 123.443 23.3635 122.525 22.5518 121.344C23.702 122.039 24.8522 122.734 26.0007 123.428Z" fill="#F1BB7E"/>
<path d="M52.4199 78.9243C52.8134 78.5787 53.2104 78.2331 53.602 77.8857C53.8307 77.6836 54.0504 77.6553 54.3039 77.8573C54.5768 78.0753 54.435 78.2791 54.311 78.4847C54.0983 78.8392 53.8768 79.1901 53.6588 79.5428C53.3078 79.2096 52.8205 79.1547 52.4199 78.9243Z" fill="#FCF8E6"/>
<path d="M52.4197 78.9243C52.8202 79.1547 53.3094 79.2097 53.6585 79.5429C53.5628 79.9097 53.3892 80.3741 53.0223 80.328C52.5473 80.2695 52.0971 79.9629 51.6505 79.7343C51.5141 79.6651 51.6275 79.5393 51.709 79.479C51.95 79.2983 52.0954 78.997 52.4197 78.9243Z" fill="#B66740"/>
<path d="M33.4026 87.532C33.571 87.5249 33.6631 87.5674 33.7004 87.7712C33.8085 88.3632 33.9538 88.9498 34.0849 89.5382C33.0304 89.5152 32.754 89.0934 32.9773 87.8474C33.119 87.7411 33.2608 87.6365 33.4026 87.532Z" fill="#FCF8E6"/>
<path d="M54.849 80.8008C55.5154 81.5363 56.3661 82.0875 56.9457 82.908C56.1411 82.5749 55.5172 81.9705 54.8207 81.4796C54.5407 81.2811 54.6311 81.0188 54.849 80.8008Z" fill="#B66740"/>
<path d="M55.5397 50.9588C54.9938 50.5547 54.0208 50.4625 54.3806 49.3247C54.8644 49.8475 55.327 50.3119 55.5397 50.9588Z" fill="#447F59"/>
<path d="M58.2871 77.8979C58.654 77.834 58.9907 77.9811 59.2424 78.1903C59.5277 78.4278 59.8184 78.4349 60.1392 78.4242C59.2902 78.9488 58.7656 78.8 58.2871 77.8979Z" fill="#B66740"/>
<path d="M11.6279 111.777C12.3067 111.76 12.9713 111.869 13.6324 112.006C12.9483 112.077 12.2766 112.025 11.6279 111.777Z" fill="#74CD92"/>
<path d="M62.5342 89.0173C62.536 88.911 62.6086 88.8773 62.6972 88.8613C62.8319 89.0013 62.9985 89.1378 62.7788 89.3399C62.6972 89.2317 62.6157 89.1236 62.5342 89.0173Z" fill="#F1BB7E"/>
<path d="M64.303 88.0814C64.2658 88.1293 64.2304 88.1771 64.1932 88.2268C64.0602 88.1133 64.1701 87.9591 64.1294 87.8315C64.2463 87.8741 64.2729 87.9786 64.303 88.0814Z" fill="#B66740"/>
<path d="M38.3473 67.6308C38.1931 67.6697 38.0566 67.6556 37.9609 67.5085C38.1116 67.4766 38.2498 67.4872 38.3473 67.6308Z" fill="#447F59"/>
<path d="M25.5781 124.254C25.711 124.272 25.8209 124.316 25.8564 124.464C25.7642 124.394 25.6703 124.325 25.5781 124.254Z" fill="#F1BB7E"/>
<path d="M34.3504 124.382C34.3982 124.384 34.4461 124.385 34.4939 124.387C34.4585 124.426 34.423 124.463 34.3876 124.502C34.3521 124.47 34.3397 124.43 34.3504 124.382Z" fill="#F1BB7E"/>
<path d="M6.6123 109.106C6.69206 109.096 6.73459 109.135 6.747 109.211C6.66902 109.218 6.61939 109.19 6.6123 109.106Z" fill="#74CD92"/>
<path d="M57.8016 83.7233C57.869 83.7056 57.8938 83.7304 57.8761 83.7977C57.8069 83.8155 57.7839 83.7907 57.8016 83.7233Z" fill="#B66740"/>
<path d="M45.029 128.348C45.052 128.382 45.0786 128.414 45.0963 128.451C45.1034 128.467 45.0875 128.492 45.0804 128.513C45.0077 128.474 44.99 128.421 45.029 128.348Z" fill="#447F59"/>
<path d="M48.8213 91.3018C48.8727 91.3496 48.9241 91.3992 48.9755 91.4471C48.8284 91.4985 48.8532 91.3709 48.8213 91.3018Z" fill="#FCF8E6"/>
<path d="M25.7783 71.3671C24.091 71.3618 22.6466 70.2825 22.216 68.7051C22.0352 68.0458 22.2248 67.4823 22.6962 67.2678C23.2563 67.0126 23.7224 67.1987 24.1176 67.8332C25.0747 69.3697 26.5297 69.3875 27.5382 67.8739C28.0131 67.1597 28.3747 67.002 28.9347 67.2607C29.4753 67.5106 29.6596 68.0777 29.4381 68.8044C28.9791 70.3091 27.4602 71.3724 25.7783 71.3671Z" fill="#31080B"/>
<path d="M21.2566 64.939C21.2885 64.3861 21.8078 63.9501 22.3944 63.9838C22.997 64.0192 23.4826 64.5385 23.4489 65.1109C23.4135 65.7082 22.8924 66.1513 22.2792 66.1034C21.6908 66.0591 21.2229 65.5239 21.2566 64.939Z" fill="#31080B"/>
<path d="M28.3019 63.989C28.9009 63.9766 29.3883 64.4303 29.3848 64.9975C29.3812 65.6054 28.9045 66.0874 28.293 66.0998C27.7383 66.1105 27.258 65.6213 27.2491 65.0364C27.2403 64.4587 27.6993 64.0032 28.3019 63.989Z" fill="#31080B"/>
<path d="M49.2285 75.4751C49.2339 74.8548 50.2228 73.717 50.8396 73.6301C51.2153 73.577 51.5432 73.6851 51.7718 73.9988C51.9845 74.2912 51.8905 74.5872 51.7346 74.8672C51.3801 75.5035 50.9087 76.0139 50.1749 76.1982C49.6858 76.3205 49.225 75.9554 49.2285 75.4751Z" fill="#31080B"/>
<path d="M55.2072 101.025C56.01 102.292 55.8009 103.69 55.691 105.062C55.6609 105.443 55.5723 105.833 55.4394 106.216C55.1239 107.123 54.5479 107.591 53.5838 107.573C53.5501 107.575 53.5199 107.568 53.4916 107.549C52.7313 106.829 52.765 105.957 52.9032 105.005C53.0361 104.093 52.9954 103.157 53.068 102.234C53.1566 101.124 53.4721 100.853 54.5621 100.86C54.7464 101.034 54.9856 100.991 55.2072 101.025Z" fill="#FCF8E6"/>
<path d="M53.4918 107.548C53.5201 107.568 53.5503 107.575 53.5839 107.573C54.6083 108.186 54.8033 109.076 54.0146 109.647C53.607 109.943 53.1479 110.168 52.6712 109.728C52.2476 109.337 52.198 108.858 52.3699 108.346C52.5471 107.816 53.0026 107.651 53.4918 107.548Z" fill="#31080B"/>
<path d="M55.2078 101.024C54.988 100.993 54.7488 101.033 54.5644 100.86C53.8963 100.452 54.0239 99.8016 54.054 99.1813C54.3535 99.0377 54.5804 98.7612 54.926 98.6992C55.9539 99.1423 56.2109 99.7537 55.7838 100.551C55.6385 100.822 55.3248 100.782 55.2078 101.024Z" fill="#447F59"/>
<path d="M50.9583 89.2744C50.9601 89.9071 50.2884 90.3395 49.8223 90.0382C49.3951 89.7618 49.0566 89.3683 48.9078 88.8597C48.7961 88.4786 48.9326 88.1419 49.2392 87.9257C49.544 87.7094 49.8701 87.7981 50.1431 88.0391C50.5471 88.3936 50.8732 88.7994 50.9583 89.2744Z" fill="#FCF8E6"/>
<path d="M50.8883 86.848C52.2618 86.7842 53.054 87.6509 52.7421 88.8773C52.354 88.7993 51.9499 88.7639 51.5813 88.6327C50.6313 88.2925 50.4239 87.7218 50.8883 86.848Z" fill="#FCF8E6"/>
<path d="M57.5305 130.64C57.2629 130.672 57.0414 130.544 56.8695 130.321C56.4229 129.741 56.0259 129.133 55.7582 128.448C55.62 128.093 55.5704 127.758 55.939 127.503C56.2864 127.262 56.6781 127.226 56.99 127.489C57.7237 128.106 58.1703 128.923 58.3121 129.864C58.3848 130.355 58.0888 130.654 57.5305 130.64Z" fill="#31080B"/>
<path d="M57.7294 133.863C57.671 133.465 57.8305 133.107 58.247 132.945C58.7024 132.768 59.1172 132.892 59.4167 133.3C59.8509 133.892 60.0086 134.574 59.9909 135.29C59.9803 135.726 59.7197 136.027 59.2979 136.16C58.8779 136.293 58.6174 136.034 58.4189 135.735C58.0538 135.18 57.717 134.61 57.7294 133.863Z" fill="#31080B"/>
<path d="M39.8242 42.9128C39.8455 42.4839 40.1521 42.273 40.643 42.2836C41.1304 42.2942 41.5256 42.7426 41.5079 43.2566C41.492 43.7369 41.1517 43.8946 40.7582 43.9301C40.3045 43.9708 39.8207 43.4657 39.8242 42.9128Z" fill="#FCF8E6"/>
<path d="M38.0777 43.1696C37.7285 43.175 37.5389 43.0084 37.5672 42.6539C37.5938 42.3225 37.7976 42.1435 38.1273 42.1364C38.4888 42.1293 38.62 42.3491 38.6218 42.6823C38.6218 43.0527 38.4144 43.1803 38.0777 43.1696Z" fill="#FCF8E6"/>
<path d="M51.0938 141.529C51.0282 141.527 50.9608 141.52 50.897 141.525C49.9471 141.596 49.4615 141.298 49.3853 140.591C49.3073 139.877 49.7805 139.377 50.672 139.232C51.7353 139.696 51.909 140.386 51.1966 141.297C51.1452 141.36 51.1257 141.451 51.0938 141.529Z" fill="#447F59"/>
<path d="M15.9188 138.321C15.3446 137.443 15.3996 137.101 16.2467 136.286C16.6898 136.361 17.2144 136.29 17.3952 136.869C17.5316 137.302 17.5972 137.738 17.2516 138.113C16.867 138.535 16.4062 138.528 15.9188 138.321Z" fill="#447F59"/>
<path d="M48.1474 84.358C48.0428 84.8454 47.7415 85.1414 47.279 85.1414C46.8944 85.1414 46.5594 84.9021 46.4779 84.498C46.4159 84.1861 47.045 83.6792 47.4172 83.7324C47.7823 83.782 48.0818 83.9557 48.1474 84.358Z" fill="#31080B"/>
<path d="M5.1641 101.516C5.00459 101.326 4.86458 101.129 4.84863 100.87C5.05245 100.73 5.02941 100.482 5.12334 100.289C5.33779 99.8497 5.61781 99.5749 6.15127 99.6636C6.66524 99.7486 7.00729 100.016 7.09591 100.534C7.18275 101.041 6.98957 101.445 6.527 101.689C6.2328 101.845 5.91556 101.932 5.57528 101.897C5.47248 101.806 5.36792 101.716 5.26512 101.624C5.23145 101.59 5.19778 101.553 5.1641 101.516Z" fill="#447F59"/>
<path d="M8.69629 107.309C8.71401 106.873 8.9515 106.565 9.49914 106.56C10.0202 106.556 10.4225 106.905 10.4012 107.405C10.38 107.912 10.045 108.203 9.56649 108.281C9.14645 108.351 8.71401 107.884 8.69629 107.309Z" fill="#447F59"/>
<path d="M5.16442 101.516C5.19809 101.553 5.23177 101.588 5.26544 101.624C5.191 101.627 5.15556 101.592 5.16442 101.516Z" fill="#74CD92"/>
<path d="M13.9584 105.802C13.9779 106.325 13.4409 106.944 12.9659 106.946C12.5229 106.949 11.9221 106.348 11.9238 105.907C11.9256 105.462 12.4024 104.987 12.8614 104.971C13.425 104.954 13.9407 105.342 13.9584 105.802Z" fill="#31080B"/>
<path d="M29.0388 124.414C28.8988 124.375 28.7198 124.435 28.6348 124.256C28.7801 124.286 28.9467 124.254 29.0388 124.414Z" fill="#FCF8E6"/>
<path d="M34.4902 124.389C34.5434 124.353 34.5983 124.32 34.6515 124.284C34.5983 124.32 34.5452 124.353 34.4902 124.389Z" fill="#F1BB7E"/>
<path d="M32.9041 88.3138C32.9041 88.3138 33.209 85.6464 33.4943 84.8719C33.4943 84.8719 31.8372 84.794 31.3073 84.7319C31.3073 84.7319 30.7703 88.0621 30.6533 88.7143" fill="#31080B"/>
<path d="M26.1488 85.2566C26.1488 85.2566 26.9534 84.2429 27.2423 84.0674L25.1102 83.3354C25.1102 83.3354 24.4757 83.9274 23.96 84.5761" fill="#FCF8E6"/>
<path d="M42.3027 106.273C42.3027 106.273 47.4211 106.999 48.068 107.12V106.561C48.068 106.561 45.0906 105.86 42.3027 105.526" fill="#FCF8E6"/>
<path d="M41.1406 91.0538C41.1406 91.0538 44.7047 91.0006 45.9453 91.3817L46.3335 92.259L42.5904 92.0676" fill="#FCF8E6"/>
<path d="M33.856 88.5335C33.856 88.5335 33.6061 87.1511 34.2849 84.9871L33.4484 84.9375C33.4484 84.9375 33.039 86.7842 32.9043 88.413L33.856 88.5335Z" fill="#FCF8E6"/>
<g clip-path="url(#clip0_226_19678)">
<path d="M26.8448 30.3111L39.9477 7.02809C40.4323 6.16344 41.1683 5.46651 42.058 5.02969C42.9477 4.59287 43.9492 4.43679 44.9297 4.58216L46.8635 4.86678C48.7141 5.13914 49.593 6.28629 50.5588 7.58391L50.5629 7.59651L57.9431 18.4296C58.2229 18.8413 58.3712 19.3281 58.3685 19.8258C58.3658 20.3235 58.2122 20.8087 57.928 21.2173L57.7063 21.5439L57.3658 22.0266C57.0831 22.4364 56.6823 22.7503 56.2168 22.9267C55.7513 23.1031 55.2431 23.1336 54.7598 23.0141L54.1239 22.8607L56.7858 34.7182L26.8448 30.3111Z" fill="#EE6159"/>
<path d="M56.56 36.3305C56.5563 36.3303 56.5526 36.3297 56.5489 36.3289L26.6073 31.9223C26.3457 31.884 26.0975 31.7826 25.8839 31.6269C25.6703 31.4712 25.4979 31.2658 25.3815 31.0285C25.2651 30.7912 25.2082 30.5291 25.2158 30.2649C25.2234 30.0007 25.2952 29.7423 25.4251 29.5121L38.528 6.22908C39.1779 5.08084 40.1593 4.15549 41.3437 3.57406C42.5282 2.99262 43.8605 2.78218 45.1664 2.97025L47.1003 3.25486C49.6489 3.62994 50.8783 5.28369 51.8658 6.61207C51.9012 6.6595 51.9339 6.70891 51.9638 6.76001L59.2892 17.5138C59.7517 18.1998 59.9968 19.0092 59.9925 19.8366C59.9882 20.6639 59.7348 21.4708 59.2652 22.152L58.6998 22.9668C58.1045 23.8182 57.208 24.4117 56.1917 24.6273L58.3367 34.1804C58.4296 34.4451 58.4526 34.7293 58.4035 35.0056C58.3545 35.2818 58.235 35.5406 58.0566 35.7572C57.8782 35.9737 57.6469 36.1405 57.3852 36.2416C57.1235 36.3426 56.8401 36.3744 56.5625 36.3339L56.56 36.3305ZM29.4262 29.0443L54.6775 32.7606L52.5347 23.2168C52.4738 22.9467 52.4829 22.6656 52.5609 22.4C52.6389 22.1344 52.7833 21.8931 52.9806 21.6988C53.1778 21.5046 53.4213 21.3638 53.688 21.2898C53.9548 21.2158 54.236 21.2111 54.5051 21.276L55.1411 21.4295C55.1713 21.4374 55.202 21.4437 55.2329 21.4484C55.3844 21.469 55.5387 21.4473 55.6787 21.3857C55.8187 21.3241 55.9389 21.225 56.0261 21.0993L56.58 20.3013C56.6811 20.162 56.7366 19.9948 56.7388 19.8226C56.7411 19.6505 56.6901 19.4819 56.5927 19.3399L49.2164 8.5128C49.2071 8.49886 49.1978 8.48492 49.1891 8.47047C48.299 7.27737 47.7595 6.64356 46.6261 6.47676L44.6923 6.19215C44.0385 6.09762 43.3714 6.20268 42.7784 6.49356C42.1853 6.78443 41.6939 7.24758 41.3684 7.82238L29.4262 29.0443Z" fill="#151515"/>
<path d="M56.5551 28.5757C60.4427 29.1479 64.0581 26.4602 64.6302 22.5725C65.2024 18.6849 62.5147 15.0696 58.6271 14.4974C54.7394 13.9252 51.1241 16.613 50.5519 20.5006C49.9798 24.3882 52.6675 28.0036 56.5551 28.5757Z" fill="white"/>
<path d="M56.3169 30.1883C54.1426 29.8697 52.1677 28.7446 50.785 27.0366C49.4023 25.3286 48.7129 23.1629 48.854 20.9699C48.9951 18.7769 49.9562 16.7172 51.5464 15.2005C53.1366 13.6837 55.2393 12.8209 57.4365 12.7835C59.6337 12.7462 61.7645 13.5371 63.4053 14.9989C65.0461 16.4608 66.0767 18.4865 66.2922 20.6735C66.5077 22.8604 65.8924 25.0484 64.5685 26.8024C63.2446 28.5564 61.3091 29.7479 59.1469 30.1402C58.2124 30.3099 57.2566 30.3261 56.3169 30.1883ZM58.3894 16.1064C57.2404 15.9369 56.0673 16.1363 55.0389 16.6759C54.0105 17.2156 53.1798 18.0676 52.6664 19.1093C52.153 20.1511 51.9834 21.3289 52.1819 22.4732C52.3805 23.6175 52.937 24.6693 53.7714 25.4771C54.6058 26.285 55.675 26.8073 56.8251 26.9689C57.9752 27.1304 59.1469 26.9229 60.1715 26.3762C61.1962 25.8295 62.021 24.9717 62.5272 23.9264C63.0333 22.8811 63.1948 21.7022 62.9883 20.5593C62.785 19.4291 62.2319 18.3914 61.407 17.5925C60.5821 16.7937 59.5271 16.2742 58.391 16.1073L58.3894 16.1064Z" fill="#151515"/>
<path d="M50.2572 23.6173C50.2045 23.6096 50.1506 23.6016 50.0984 23.5862L45.6938 22.4871C45.2746 22.3825 44.9142 22.1156 44.6917 21.7452C44.4693 21.3748 44.4032 20.9312 44.5078 20.512C44.6125 20.0928 44.8793 19.7323 45.2498 19.5099C45.6202 19.2875 46.0637 19.2213 46.4829 19.326L50.8874 20.4256C51.2921 20.5277 51.6422 20.7811 51.8654 21.1337C52.0886 21.4863 52.168 21.9111 52.0872 22.3206C52.0063 22.73 51.7714 23.0928 51.4309 23.3341C51.0904 23.5754 50.6703 23.6768 50.2572 23.6173Z" fill="#151515"/>
<path d="M57.9625 34.8905L25.6674 30.1376C23.8776 29.8742 22.2132 31.1115 21.9498 32.9013L21.071 38.8727C20.8076 40.6625 22.0449 42.3269 23.8347 42.5903L56.1298 47.3433C57.9195 47.6067 59.5839 46.3693 59.8473 44.5796L60.7262 38.6081C60.9896 36.8184 59.7522 35.1539 57.9625 34.8905Z" fill="white"/>
<path d="M55.8929 48.9549L23.5979 44.2019C22.3117 44.011 21.1537 43.3178 20.378 42.2743C19.6022 41.2308 19.272 39.9223 19.4598 38.6356L20.3386 32.6642C20.5295 31.378 21.2227 30.2201 22.2662 29.4443C23.3097 28.6685 24.6183 28.3384 25.9049 28.5261L58.2 33.2791C59.4862 33.47 60.6441 34.1632 61.4199 35.2067C62.1956 36.2502 62.5258 37.5587 62.338 38.8454L61.4592 44.8168C61.2683 46.103 60.5751 47.261 59.5316 48.0367C58.4881 48.8125 57.1796 49.1427 55.8929 48.9549ZM25.4306 31.7492C24.9986 31.6861 24.5592 31.7969 24.2088 32.0574C23.8585 32.3179 23.6257 32.7067 23.5617 33.1385L22.6828 39.11C22.6197 39.542 22.7306 39.9814 22.9911 40.3317C23.2515 40.6821 23.6404 40.9148 24.0722 40.9789L56.3673 45.7318C56.7993 45.7949 57.2386 45.6841 57.589 45.4236C57.9394 45.1631 58.1721 44.7743 58.2361 44.3425L59.115 38.371C59.1781 37.939 59.0672 37.4996 58.8068 37.1493C58.5463 36.7989 58.1575 36.5662 57.7256 36.5021L25.4306 31.7492Z" fill="#151515"/>
</g>
<defs>
<clipPath id="clip0_226_19678">
<rect width="43.98" height="43.98" fill="white" transform="translate(25.1465) rotate(8.37229)"/>
</clipPath>
</defs>
</svg>
