<?xml version="1.0" encoding="utf-8"?>
<!-- Generator: Adobe Illustrator 24.1.0, SVG Export Plug-In . SVG Version: 6.00 Build 0)  -->
<svg version="1.1" id="Capa_1" xmlns="http://www.w3.org/2000/svg" xmlns:xlink="http://www.w3.org/1999/xlink" x="0px" y="0px"
	 viewBox="0 0 282 386" style="enable-background:new 0 0 282 386;" xml:space="preserve">
<style type="text/css">
	.st0{fill:#447F59;}
	.st1{fill:#F1BB7E;}
	.st2{fill:#B66740;}
	.st3{fill:#74CD92;}
	.st4{fill:#31080B;}
	.st5{fill:#FCF8E6;}
</style>
<path class="st0" d="M151.1,331.7c3.4-0.2,3.8,1.5,3.6,3.1c-1,6.4-2.4,12.6-4.5,18.8c-0.9,2.5-2.8,2.1-4.6,1.1
	c-3.6-1.9-6.5-4.7-9.2-7.7c-3.1-3.4-5.8-7.1-7.8-11.1c-0.6-1.1-0.9-2.3,1-2.3C137.2,333.7,144.6,332.9,151.1,331.7z"/>
<path class="st1" d="M132.5,330.8l20.5-4l-5.2-14.2c0,0,8.1-16,14.3-19.7l19.2-19.8c0,0-12.9-5.1-9.8-13.8c0,0,12.3-31.7-5.9-70
	c0,0-11.4-23.7-17.8-28.7c0,0-39.1,8.4-65.1-5.3c0,0-28.3,41-28.4,81.7c0,0-4.5,49.5,38.9,81.1C93.1,318.1,106.4,330.9,132.5,330.8z
	"/>
<path class="st2" d="M176.2,150.6l22-22.1c0,0,42.3,13.2,56.4,55.5c0,0,20.5,27.1,5.3,85.2c0,0-21.3,44.8-41.6,47.7
	c0,0-14.1-20.6-15.8-30c0,0,5.9-10.7,7-10.5c0,0,1.5-11.8,4.4-10.8c0,0,15.6-12.4,16.4-22.1c0,0,8.7-25.1-6.4-48.7
	S176.2,150.6,176.2,150.6z"/>
<path class="st3" d="M64.7,290c0,0,18.2,27.9,45.4,36.8c0,0-8.9,33.2-8,47c0,0,0.5,11.1-11.1,8.7l-42.9-1c0,0-9.2,0.2-7.3-12.8
	C40.9,368.6,48.7,306,64.7,290z"/>
<path class="st3" d="M191,281c0,0-12.4-4.8-27.2,9.5l-15.6,21.1c0,0,16.3,28.1,18.2,60.8c0,0-2.8,10.6,10.5,8.9l47,0.2
	c0,0,7.9-0.4,4.5-11.2C228.3,370.2,217.9,296.3,191,281z"/>
<path class="st3" d="M77.6,164.5c0,0-18.5,16.5-22.5,55.4c0,0-2.8,26.6,1.5,49.1c0,0-36,8.4-49.3-31.4c0,0-19.7-44.3,56.7-72.2
	L77.6,164.5z"/>
<path class="st3" d="M170.9,155.6c0,0-16.9,1.8-15.6,15.6c0,0,13.5,17.9,17.5,35.8c0,0,6.9,27.2-1.7,49.6c0,0-7.8,21.6,25.1,13.5
	c0,0,37.1,0.7,36.4-46.1c0,0-4.4-39.2-39.6-60.4C193.1,163.5,178.5,153.4,170.9,155.6z"/>
<ellipse class="st3" cx="122.4" cy="84.1" rx="85.3" ry="80"/>
<path class="st4" d="M188.1,148.5c0.8-1.3,1.6-2.5,2.3-3.8c0.4-0.7,0.9-1.5,0-2.2c-0.9-0.7-1.7-0.6-2.5,0.1
	c-1.4,1.2-2.8,2.5-4.2,3.7c-1.2,0.3-1.7,1.3-2.5,2c-0.3,0.2-0.7,0.7-0.2,0.9c1.6,0.8,3.2,1.9,4.9,2.1
	C187.1,151.5,187.7,149.8,188.1,148.5z M88.4,307.2c0.3,0.2,0.7,0.5,1,0.7c3,2.7,6,5.1,10.4,4.5c3.7-0.5,7.4-0.9,11.1-1.3
	c2.1-0.2,2.4-1,1.2-2.6c-2.7-6.2-4.8-12.6-6.3-19.1c-0.7-3-2-4.2-4.4-3.9c-6.6,0.9-13.2,1.8-19.6,3.5c-2.3,0.5-4.6,1-7,1.5
	c-1.4,0.3-1.9,0.9-0.8,2.2c1.2,1.4,2.2,3,3.7,4.2C80.5,301.1,84.3,304.3,88.4,307.2L88.4,307.2z M119.5,307.7c0,0.2,0,0.3,0.1,0.4
	c0.7,1.2,1.6,2.3,3,2.4c5.6,0.2,11.3,0.5,16.9,0.1c0.8-0.1,1.5-0.4,2-1.1c3.9-5.6,8.6-10.6,13.2-15.7c1-1.1,0.7-1.5-0.6-1.9
	c-4.6-1.3-9.2-2.5-13.9-3.4c-7.6-1.5-15.3-2.4-23.1-2.9c-3.9-1-5,0-4.1,3.9c0.9,3.5,1.8,7,3,10.4C117,302.5,117.6,305.4,119.5,307.7
	z M204.5,142.7c1.7,3.2,3.6,3.7,6.6,1.9c3.3-0.7,4.2-0.3,6.3,3c-1,1-2.3,1.7-3.7,2c-1.5,0.4-1.5,1.1-0.5,2.1
	c1.2,1.2,2.4,2.5,3.5,3.8c4.4,4.9,8.4,10.2,12.3,15.5c1,1.4,2.2,2.7,4.3,2.2c2.7-0.6,5.5-1.2,8.3-1.8c1.7-0.4,1.8-1.2,0.8-2.4
	c-1.4-1.7-2.8-3.4-4.1-5.1c-4.1-5.1-8.3-10.1-13.8-13.7c-0.1-1.1-1.1-1.5-1.8-2.1c-6.7-5.4-14.1-9.8-21.7-13.7
	c-3.2-1.6-3.2-1.5-5.6,1.2c-0.9,1-0.8,1.4,0.4,2C198.7,139.2,201.6,141,204.5,142.7 M225.2,177.9L225.2,177.9
	c-0.2-1.1-0.9-1.9-1.4-2.9c-3.3-5.9-7.6-10.9-12.1-15.8c-3.8-4.1-7.6-8.1-12.3-11.1c-0.4-0.3-0.7-0.5-1.1-0.8
	c-2.1-1.8-3.1-1.6-4.3,0.8c-0.8,1.5-1.3,3.2-1.7,4.9c-0.8,0.8-1.1,1.7-0.1,2.4c2.5,1.7,4.7,3.9,7.5,5.1c1,1,2,1.9,3,2.9
	c-0.1,0.2,0,0.3,0.3,0.3c6.1,5.6,11.5,11.9,16.5,18.5c0.3,0.4,0.6,0.8,0.9,1.1c0.9,1.5,1.8,3.1,2.8,4.6c8.1,13.1,13.6,27,13.1,42.8
	c-0.5,15.5-6.1,28.4-18.5,38c-1.5,1.2-2.6,2.4-3.1,4.2c-1,3.2-2.2,6.4-4,9c-3,4.2-3.4,8.1-0.1,12.1c0.1,0.1,0.1,0.3,0.2,0.4
	c0.6,1.5,1.5,1.7,2.5,0.4c0.4-0.5,0.9-1,1.4-1.6c3.8-5.2,7.3-10.6,10.4-16.3c7.1-13.2,11.2-27.3,12.4-42.1
	c1.4-17.8-2.3-34.8-9.1-51.2c-0.7-1.6-1.1-3.5-2.4-4.8C225.7,178.5,225.6,178.1,225.2,177.9z M171.4,190.8L171.4,190.8
	c-0.4,0.4-0.2,0.9,0,1.3c2.3,4.4,3.8,9.1,5.3,13.8c0.4,1.4,0.6,2.9,1,4.2c1.7,6,2,12.2,1.9,18.4c-0.1,10.2-2.4,20.1-4.2,30
	c-0.7,3.7,0.7,6.6,4.3,7.7c5.2,1.6,10.5,1.5,15.8,0.5c1.1,0.3,2.2-0.2,3.2-0.4c17.1-3.7,27.5-16.7,27.9-33.8
	c0.1-1.9-0.4-2.5-2.2-1.5c-1.2,0.6-2.4,0.5-3.5-0.4c-2.5-2-3.3-7.8-1.4-10.4c0.7-1,1.7-1.6,3-1.6c3.5-0.3,3.6-0.3,2.5-3.8
	c-0.4-1.3-0.9-2.5-1.4-3.8c-0.3-0.7-0.6-1.3-1.5-1.1c-2.4,0.6-3.6-0.8-4.6-2.6c-1.1-2-0.5-3.7,0.9-5.1c1.1-1.2,0.8-2.1,0.2-3.4
	c-7.4-13.8-17.4-25.2-30-34.5c-6.4-4.7-13.3-6.5-20.8-3.7c-6.2,2.3-11.5,7.1-5.3,14.2c2.8,5.2,5.7,10.3,8.5,15.5
	C171,190.5,170.9,191,171.4,190.8z M118.6,184c9.3,0,18.5,0,27.8,0c2.8,0,5.7,0.1,8.5,0.1c2.1,0,2.4-0.5,1.3-2.4
	c-3.1-5.3-6.3-10.5-10.1-15.4c-0.9-1.2-1.7-1.5-3.2-1.1c-3.7,0.9-7.4,2-11.2,2.3c-6.5,0.4-13,0.5-19.6,0.1c-3.2-0.2-6.3-0.6-9.4-1
	c-5.1-0.7-10-2.4-14.9-4c-1.2-0.4-2-0.1-2.4,1.2c-0.3,0.1-0.7,0.1-0.9,0.3c-5.2,5.7-9.2,12.2-13.1,18.8c-0.9,1.6,0.1,2.2,1.5,2.1
	c2.9-0.2,5.8,0,8.6-0.7c0.2,0.1,0.4,0.2,0.7,0.2c6.6-0.1,13.1-0.3,19.7-0.4c2.3-0.1,3.8-1.4,4.5-3.5c0.5-1.4,0.9-2.7,2.5-3.1
	c1.9-0.3,3.6,0.6,5.5,0.6C113.8,182.4,114.8,183.9,118.6,184z M157.6,322.3c0.3,0.8,0.6,1.6,0.9,2.4c5.9,14.5,10.6,29.4,12.9,45
	c1,7,1.1,7,8.4,6.1c3.8,0.3,7.6,0.1,11.4,0.1c9.8,0,19.6,0,29.5,0c3.2,0,3.2,0,3.1-3.1c-0.5-12.6-2.5-25-6.1-37
	c-4.7-15.9-11-31.2-19.9-45.3c-3-4.8-6.2-7-11.9-6.2c-4.2,0.6-8.2,1.1-11.7,3.7c-7.8,6.1-14.3,13.4-20.5,21c-0.8,1-1,2.1-0.4,3.3
	c1.4,3,2.7,6,4.1,9c0,0.1,0,0.2,0,0.3C157.3,322,157.3,322.2,157.6,322.3z M150.6,190c-1.1-0.2-2.2-0.5-3.2-0.5
	c-9.9-0.1-19.8-0.1-29.7-0.1c-3.6,0-5.1,1.4-5.7,5c-1.6,10.6-2.4,21.4-2.8,32.1c-0.2,4.2,1.3,5.6,5.6,5.4c13.9,0.5,27.7,2,41.4,4.1
	c3.4,0.7,6.7,1.4,10.2,1.7c2.2,0.2,3.4-0.9,3.6-3.1c0.2-2.4,0.4-4.9,0.4-7.3c0-12.1-3.4-23.4-8.6-34.2c-0.6-1.3-1.4-2.5-3-2.8
	C156,189.8,153.3,189.5,150.6,190z M157.1,242.5c-0.8-0.6-1.7-0.7-2.7-0.8c-2.9-0.4-5.8-0.7-8.6-1.1c-10.7-1.3-21.4-2.4-32.1-2.6
	c-3-0.1-4.6,1.3-4.6,4.1c0,10.9,0.6,21.8,2.1,32.6c0.5,3.8,2.5,5.1,6.4,5.1c2.8,0.3,5.6,0.7,8.4,0.9c6.4,0.6,12.6,2,19,2.7
	c4.1,1.5,8.4,2,12.5,3.3c2.3,0.7,3.9,0.1,5.4-1.7c2.7-3.1,5.5-6.3,8.4-9.2c1.5-1.5,1.4-2.4-0.2-3.7c-4-3.5-5.5-8-4.9-13.3
	c0.4-3.8,1.1-7.6,1.9-11.4c0.3-1.2,0.8-2.7-1-3.1C163.8,243.4,160.5,242.5,157.1,242.5z M21.5,253.8c0.1,0.1,0.1,0.1,0.3,0.1
	c4.8,4.6,10.5,7.7,17.1,9c2.3,0.9,4.7,1.1,7.1,0.8c0.5,0,0.9,0,1.4,0c3.7,0.1,4.6-0.9,3.7-4.9c-1.1-5.2-1.3-10.4-1.4-15.6
	c-0.2-5-0.3-10-0.3-15c0.1-6.4,1.5-12.7,2.9-19c1.1-4.8,2.4-9.5,3.6-14.3c1-2.1,1.9-4.1,2.9-6.2c1.9-4,3.8-8,5.7-12
	c2.5-2.5,3.6-5.9,6.4-8.6c-0.9,0.1-1.2,0-1.5,0.1c-11,3.7-21.5,8.5-31.1,15c-10,6.8-18.7,15-24.3,25.8c-7.9,15.3-4.9,33.6,7,44.4
	C21.1,253.8,21.3,253.9,21.5,253.8z M77.8,283.9c7.4-1.5,14.8-2.9,22.2-3.9c3.2-0.4,4.1-1.9,3.7-5c-0.4-3.2-0.8-6.4-1.2-9.6
	c-0.9-8-0.8-16.1-1.1-24.2c-0.2-2.4-1.2-3.4-3.6-3.2c-12,1.1-24.1,2.4-36,4.7c-2.1,0.4-3.1,1.4-2.9,3.7c0.8,11.5,3,22.7,7.5,33.4
	c2.8,6.7,3.9,7.1,10.7,4.5C77.4,284.1,77.6,284,77.8,283.9z M62,300.6c-0.8,1.5-1.6,3.1-2.3,4.6c-8.6,20.8-12.9,42.6-14.1,65.1
	c-0.3,6.1-0.3,6.1,6,5.7c5.8,0,11.6,0,17.5,0c8.7,0,17.4,0,26.2,0.1c1.4,0,1.6-0.6,1.7-1.9c0.3-4.1,0.7-8.3,1.2-12.4
	c1.3-10.4,3.1-20.8,6.1-30.9c0.5-1.5,0.3-2.7-1.6-3.2c-1.1-0.3-2.2-0.8-3.2-1.4c-12.4-6.9-23.4-15.5-32-26.9
	c-0.9-1.2-1.6-3.4-2.8-3.1C63,296.7,62.6,298.9,62,300.6z M69.5,235.3c0.8,0,1.6,0,2.3-0.1c8.3-1.4,16.6-2.5,25-3.2
	c3.8-0.3,4.8-1.4,4.9-5.1c0.1-5.5,0.5-11,0.8-16.4c0.3-5.5,1.5-10.9,2-16.3c0.6-3.2-0.4-4.6-3.7-4.6c-9.5-0.1-19,0.5-28.5,1
	c-3.5,0.2-5.2,1.8-6.3,4.9c-4.5,12.4-7.2,25.1-7.3,38.2c0,2.6,1,3.7,3.6,3.4C64.6,236.7,67.1,236,69.5,235.3z M77.3,38.5
	c0.4,1,0.8,2,1.1,3.1c0.5,2.3,1.6,2.8,4,2.2c7.8-2,15.7-1.7,23.6-0.3c3.7,0.7,3.7,0.8,5.1-2.6c2.3-5.7,4.2-6.9,10.3-6.9
	c19.9,0,39.8,0,59.7,0c0.8,0,1.7,0.2,2.5-0.3c0-0.2,0-0.4,0-0.5c-0.4-0.5-0.9-0.9-1.3-1.3c-8.1-7.5-17.6-13-27.8-17.1
	c-4.7-1.9-9.6-3.3-14.8-3.7c-31.3-5.8-61.7,9.4-71.8,22.9C72.3,33.2,75.2,35.1,77.3,38.5z M133.7,106.3c-0.3-0.5-0.8-0.5-1.4-0.4
	c-2-0.9-4-1.7-5.9-2.8c-13-7.8-19-19.8-20.6-34.4c0-3.9-0.1-7.9,0.1-11.8c0.1-2.2-1-3-2.8-3.3c-4.9-0.9-9.8-1.1-14.7-0.5
	c-5,0.6-6.1,1.8-6.1,6.8c0,1,0,2,0,3.1c-0.3,6.3-1.3,12.5-3.7,18.3c-6.1,14.5-16.3,23.9-32.7,25.2c-4.2-0.1-4.2-0.1-2.8,3.8
	c3.1,9,8.3,16.7,15.1,23.3c5.7,5.6,12.1,10.2,19.2,13.8c1.5,0.2,2.4,1.4,3.6,2c12,5.5,24.6,8.5,37.8,8.7c13.5,0.2,26.5-2.7,39-7.7
	c10.9-4.4,20.8-10.5,28.8-19.1c9-9.7,15-21,17.1-34.2c1.7-10.2,1.4-20.3-1.1-30.3c-0.2-0.7-0.4-1.3-1-1.8c-4-2.9-8.2-5.5-12.4-8.1
	c-0.9-0.5-1.4-0.4-2.2,0.4c-1.5,1.4-2,2.9-1.9,5c0.3,7-0.8,13.9-3.5,20.5c-6.6,16.3-22.9,26.5-40.7,24.7
	C138.5,107.1,136.2,106.2,133.7,106.3L133.7,106.3z M148.5,2.9c12.6,2.8,23.8,8.5,33.9,16.5c12.4,9.8,22.3,21.5,27.7,36.6
	c0.5,1.4,1.6,2.3,2.7,3.2c5.4,4,10.9,8,15.8,12.7c5.2,4.9,7.9,10.8,7.9,18c0,2.9,0.1,5.8,0.1,8.7c0,3.9-2.3,6.7-5.5,6.7
	c-3.2,0-5.6-2.6-5.6-6.5c-0.1-3.8,0-7.5,0-11.3c0-1.6-0.5-3.1-1.5-4.3c-2.8-3.4-6.3-6.1-10.1-9.2c0.4,4.3,0.7,8.2,0.6,12.1
	c-0.4,12.9-3.5,25.2-9.9,36.5c-1.1,1.9-0.9,2.6,1.1,3.5c20.9,9.9,37.4,24.7,49.3,44.5c14,23.3,19,48.5,15.1,75.4
	c-2.4,16.9-8,32.6-17.5,46.8c-7.3,10.9-16.1,20.3-26.9,27.7c-2.1,1.5-2.4,2.8-1.5,5.2c5.7,15.6,8.6,31.8,9,48.4l0.4,4.7
	c0.3,3.7-2.7,6.9-6.4,6.9c-3.3,0-6.7,0-9.6,0c-2.5-0.3-5-0.3-7.5,0c-13.2,0-26.3,0-39.5,0c-4,0-7.3-3-7.7-7l-0.5-5.1
	c-1-7.1-2.3-14.1-4.5-21.1c-0.8,2-1.5,3.9-2.4,5.7c-1.7,3.3-4.3,4.6-8,4c-3.2-0.5-6-1.9-8.5-3.8c-7-5-11.7-11.8-15.1-19.5
	c-0.5-1.1-0.9-2.1-2.5-2.2c-2.1-0.2-4.2-0.6-6.1-1.4c-2.1-0.8-2.7-0.3-3,1.4c-0.4,2.3-1.1,4.6-1.6,6.9c-2.2,10-3.5,20.1-4.4,30.3
	l-0.3,5.4c-0.2,3.6-3.2,6.4-6.9,6.4c-13.9,0-28.5,0-42.2,0c-4.9,0-10.7,0-16.1,0c-3,0-5.3-2.5-5.1-5.4l0.4-6.7
	c0.3-16.6,2.6-32.9,6.9-48.9c3.4-12.6,8.2-24.8,14.4-36.3c1.1-1.9,1.4-3.5,0.3-5.6c-1.4-2.7-2.3-5.7-3.4-8.5
	c-0.3-0.8-0.4-1.6-1.7-1.4c-12.6,2.4-23.9-0.8-33.9-8.4c-19.9-15-24.4-41.1-11.3-63.1c8.2-13.9,20.3-23.6,34.1-31.4
	c9.9-5.6,20.3-9.5,31.3-12.3c0.5-0.1,1.1-0.1,1.5-0.7c-7.9-3.9-15-8.9-21.3-15c-10.4-10.1-17.9-22-20.8-36.5
	c-0.2-0.8-0.5-1.4-1.3-1.8c-17-8.9-23.2-23.7-22.6-42c0-0.4,0.1-0.9,0.1-1.3c0.5-2.7,0.4-5.3-2.5-6.9c-0.3-0.1-0.4-0.5-0.6-0.7
	C3.5,50.3,3.1,39.6,4.7,37C6.2,34.8,8.3,34,11,34c13.5,0.1,27,0,40.6,0.1c2.2,0,3.6-0.5,5.1-2.4C66.2,20.1,78.3,12,92.3,6.6
	c5-1.9,10.2-3.6,15.5-4.5C107.7,2.1,131.9-1.5,148.5,2.9z M261.5,239.6c0.3-1.5-0.7-2.4-1.6-3.2c-4-3.9-8.6-7.1-13.1-10.3
	c-0.7-0.5-1.4-1.7-2.4-1.1c-0.8,0.5-0.7,1.7-0.7,2.6c0,3.9-0.3,7.8-0.8,11.7c-1.6,12.3-4.8,24.1-9.8,35.5c-0.4,0.8-0.6,1.6-0.2,2.5
	c2,5.1,4.1,10.2,5.8,15.4c0.4,1.3,1.1,1.8,2.2,0.4c3.5-4.5,6.7-9.3,9.3-14.4c3-5.9,5.2-12,7-18.3
	C259.2,253.4,260.4,246.5,261.5,239.6z M261.5,227.1c0.5-4.8-0.2-9.1-0.9-13.4c-1.9-12.2-5.8-23.8-11.8-34.6c-0.8-1.5-1.8-2-3.4-1.5
	c-2.6,0.8-5.2,1.3-7.7,2c-3.5,1-3.8,1.4-2.5,4.7c3.2,8.5,5.6,17.2,7.2,26.1c0.3,1.7,1,2.9,2.4,3.9c2.9,2.2,5.8,4.6,8.8,6.7
	C256.1,222.9,258.3,225.3,261.5,227.1z M154,45c-3.3-1.3-4.6,1.2-5.9,4.3c-5.6,12.9-11.3,25.7-17,38.5c-2.3,5.1-2.3,5.1,2.7,7.5
	c3.1,1.5,3.3,1.4,4.6-1.7c6.4-14.7,12.9-29.3,19.3-44C159.7,44.9,159.8,44.9,154,45z M49.6,45c-3.3-1.3-4.6,1.1-5.9,4.2
	c-5.2,11.9-10.7,23.8-16.1,35.6c-1.5,3.3-1.6,3.2,1.2,5.6c0.2,0.2,0.5,0.4,0.7,0.6c4.1,3,3.3,3.4,5.4-1.3c6.1-13.3,12-26.6,18-39.9
	C55.3,44.9,55.4,45,49.6,45z M144.6,45c-1.6,0-2.8,0.1-4.1,0c-2.1-0.3-3.1,0.6-3.9,2.4c-5,11.3-10.1,22.6-15.2,33.9
	c-0.4,0.9-0.6,1.7-0.2,2.7c0.9,1.8,1.9,3.6,3.6,5.4C131.4,74.5,137.9,59.9,144.6,45z M22.6,82.9c0.8-0.6,1-1.4,1.3-2.1
	c1.9-4.1,3.7-8.3,5.6-12.4c3.3-7.2,6.5-14.4,9.9-21.7c0.6-1.4,0.5-2-1.2-1.8c-1.3,0.1-2.7,0.2-4,0c-1.9-0.3-2.8,0.6-3.6,2.3
	c-2.5,5.7-4.7,11.6-7.8,16.9c-3.7,6.3-3.7,12.3-0.4,18.6C22.4,82.7,22.5,82.7,22.6,82.9z M233.3,300.9c0-0.1,0-0.3-0.1-0.6
	c-1.4-4.5-2.7-9-4.8-13.3c-0.8-1.6-1.4-1.3-2.2,0c-3.1,4.8-6.4,9.5-9.9,14c-0.7,0.9-0.9,1.6-0.3,2.8c1.2,2.4,2.4,4.8,3.3,7.3
	c0.6,1.5,1.2,1.5,2.4,0.6c3.7-2.8,7.2-5.8,10.7-8.8C232.9,302.4,233.3,301.8,233.3,300.9z M149.4,334.2c-4.8,1-10.3,1.6-15.9,1.5
	c-1.4,0-1.2,0.9-0.7,1.8c1.5,3.2,3.5,6.1,5.8,8.8c2,2.3,4.1,4.5,6.8,6.1c1.3,0.7,2.7,1.1,3.4-0.9c1.5-4.9,2.6-9.8,3.3-14.9
	C152.3,335.3,151.9,334,149.4,334.2z M141.5,325.7c1.8,0,3.6-0.4,5.4-0.9c1.2-0.3,1.6-0.8,1-2c-0.8-1.7-1.6-3.4-2.4-5.1
	c-0.5-1.1-1.3-1.3-2.5-1.2c-5.3,0.4-10.7,0.3-16,0c-1-0.1-2.4-0.3-2.8,0.5c-0.5,0.9,0.6,1.8,1.4,2.5
	C130.2,323.3,135.7,325,141.5,325.7z M103.1,317.4c4.1,4.3,20.3,10,26.4,9.3c-5.4-1.8-9.9-4.6-13-9.3c-0.3-0.4-0.6-0.7-1.2-0.7
	C111.3,316.7,107.2,316.6,103.1,317.4z M194.7,47.1c-0.8-2.3-2.4-3.9-4.1-5.8C189.3,45.3,192.8,45.6,194.7,47.1z"/>
<path class="st3" d="M281.5,379.4l-0.2-0.1l0.1-0.2l0.2,0.1L281.5,379.4z"/>
<path class="st5" d="M64.5,176.7c-3.8,0.4-6.7,2.8-10,4.4c-1.4,0.7-2.8,1.7-4.1,2.8c1.9-0.2,3.8-0.4,3.8,2.1c0,1.6-1.3,2.5-2.9,2.3
	c-2.5-0.2-1.7-2.1-1.4-4c-3.2,1.5-5.3,3.6-7.7,5.4c-0.8,0.5-1.4,1.3-2.2,1.8c-1,0.7-1.2,1.4-0.8,2.6c0.6,2-0.4,3.7-2.2,3.5
	c-4.2-0.5-6,2.5-8.2,4.9c-1.4,1.5-2.7,3.3-4,5c-1.4,1.7-2.4,3.4-1.6,6c0.8,2.5-1.3,4.7-4,5c-0.7,0.1-1.4,0-2.1,0
	c-1,0-2.5-0.6-2.8,0.9c-0.4,1.6-1.2,3.4,0.6,4.9c0.1,0.9,0.6,1.6,1.1,2.3c0,0.3,0.1,0.4,0.4,0.4c0.4,0.3,0.7,0.6,1.1,1
	c-1.5,8.1,0.1,15.8,3.5,23.2c0.4,0.9,0.9,1.8,0.9,2.9c-0.1,0-0.2,0-0.3-0.1c0-0.3-0.2-0.4-0.5-0.4c-11.9-10.8-14.9-29.1-7-44.4
	c5.6-10.9,14.2-19.1,24.3-25.8c9.6-6.5,20.1-11.2,31.1-15c0.3-0.1,0.6-0.1,1.5-0.1C68.1,170.9,66.9,174.3,64.5,176.7z"/>
<path class="st5" d="M104.4,194c-8.8-1.9-17.5-1.1-26.3-0.1c-1.1,0.1-1.5,0.9-1.8,1.7c-2.9,8.1-4.8,16.4-6.1,24.9
	c-0.7,4.9-0.8,9.8-0.9,14.7c-2.4,0.8-4.8,1.4-7.3,1.7c-2.6,0.3-3.6-0.8-3.6-3.4c0.2-13.2,2.8-25.9,7.3-38.2c1.1-3,2.8-4.7,6.3-4.9
	c9.5-0.5,19-1.1,28.5-1C104,189.4,105,190.8,104.4,194z"/>
<path class="st5" d="M101.4,241.2c-7.9,1-15.9,1.6-23.7,3.5c-1.8,0.5-3.7,0.5-5.5,1c-1.7,0.4-2.3,1.3-2.2,3c0.3,4.7,0.7,9.4,1.6,14
	c1.2,6,2.2,12,4.6,17.6c0.5,1.2,1.1,2.4,1.6,3.6c-0.2,0.1-0.4,0.3-0.6,0.4c-6.7,2.6-7.9,2.2-10.7-4.5C62,269,59.8,257.9,59,246.3
	c-0.2-2.3,0.8-3.3,2.9-3.7c11.9-2.3,23.9-3.6,36-4.7C100.2,237.8,101.2,238.8,101.4,241.2z"/>
<path class="st5" d="M65.6,296.6c2,1.8,3.1,4.4,4.9,6.8c-1.7,1.4-4.6,7.5-5.2,9.3c-4.2,11.3-7.3,23-9.8,34.8
	c-0.2,0.8-0.1,1.7-0.2,2.6c-3,2.9-3.2,4.1-1.2,7.2c-0.9,4.4-1.4,8.9-1.6,13.4c-0.1,1.9-0.1,3.7-0.9,5.5c-6.3,0.4-6.3,0.4-6-5.7
	c1.2-22.5,5.4-44.2,14.1-65.1c0.5-1.3,2.5-5.7,3.7-8.2C63.9,296.2,65,295.9,65.6,296.6z"/>
<path class="st5" d="M139.7,11.2c-1.7,1.2-3.8,1.3-5.7,1.5c-15.7,1.7-30.4,6.1-43.6,14.9c-4.7,3.2-9.1,6.8-13.1,10.9
	c-2.1-3.5-5-5.3-9.4-4.4C77.9,20.6,108.4,5.4,139.7,11.2z"/>
<path class="st5" d="M154,45c5.7-0.1,5.7-0.1,3.6,4.6c-6.4,14.7-12.9,29.3-19.3,44c-1.4,3.1-1.6,3.2-4.6,1.7c-5-2.4-5-2.4-2.7-7.5
	c5.7-12.8,11.5-25.6,17-38.5C149.4,46.1,150.7,43.6,154,45z"/>
<path class="st5" d="M49.6,45c5.8,0,5.6-0.1,3.4,4.8C47,63,41.1,76.4,35,89.7c-2.1,4.7-1.3,4.2-5.4,1.3c-0.3-0.2-0.5-0.4-0.7-0.6
	c-2.8-2.4-2.7-2.3-1.2-5.6c5.4-11.9,10.8-23.7,16.1-35.6C45,46.1,46.3,43.7,49.6,45z"/>
<path class="st5" d="M156.3,306c2,4.3,9.8,19.5,11.7,23.8c3.4,7.7,6.1,15.7,8.1,23.9c0.5,2.2,0.9,4.4,1.4,6.6
	c-3.2,0.5-4.8,2.3-4.6,4.8c0.3,2.5,2,3.6,5.4,3.3c0.2,0,0.5,0,0.7,0c-0.1,2.5,0.1,5,0.9,7.4c-7.3,0.9-7.4,0.9-8.4-6.1
	c-2.3-15.6-7-30.5-12.9-45c-0.3-0.8-0.6-1.6-0.9-2.4c0-0.1,0.1-0.2,0.1-0.2c-0.1-0.1-0.2-0.2-0.2-0.4c0-0.1-2.8-6.4-4.1-9.4
	c-0.4-0.9-0.5-1.9,0-2.7C154.3,308.3,154.9,307.3,156.3,306z"/>
<path class="st5" d="M157.1,242.5c-0.1,0.5-0.3,1-0.4,1.5c-5.7,0.3-11.2-1.1-16.8-1.6c-7.7-0.7-15.4-1.5-23.2-1.3c-1.4,0-2,0.6-2,2
	c-0.1,11-0.4,22.1,1,33.1c0.2,1.4,1.1,2.4,1.8,3.5c-3.9,0.1-5.8-1.3-6.4-5.1c-1.5-10.8-2.1-21.7-2.1-32.6c0-2.8,1.6-4.1,4.6-4.1
	c10.8,0.2,21.5,1.2,32.1,2.6c2.9,0.4,5.8,0.7,8.6,1.1C155.4,241.7,156.4,241.8,157.1,242.5z"/>
<path class="st5" d="M150.6,190c-0.2,1.1,0.2,2.1,0.4,3.1c-10.2-0.4-20.5-0.6-30.8-0.5c-3.2,0-4.2,0.8-4.3,3.9
	c-0.4,7.3-1.4,14.5-1.1,21.8c0.2,4.5-0.6,9,0.1,13.5c-4.3,0.2-5.8-1.2-5.6-5.4c0.4-10.7,1.2-21.5,2.8-32.1c0.5-3.5,2.1-5,5.7-5
	c9.9,0,19.8,0,29.7,0.1C148.4,189.4,149.5,189.8,150.6,190z"/>
<path class="st5" d="M144.6,45c-6.6,14.9-13.2,29.5-19.8,44.4c-1.6-1.9-2.7-3.6-3.6-5.4c-0.5-1-0.3-1.8,0.2-2.7
	c5.1-11.3,10.2-22.6,15.2-33.9c0.8-1.8,1.9-2.7,3.9-2.4C141.7,45.1,143,45,144.6,45z"/>
<path class="st5" d="M22.6,82.9c-0.1-0.2-0.2-0.2-0.2-0.3c-3.3-6.3-3.3-12.2,0.4-18.6c3.1-5.3,5.3-11.2,7.8-16.9
	c0.7-1.6,1.6-2.5,3.6-2.3c1.3,0.2,2.7,0.1,4,0c1.7-0.2,1.8,0.4,1.2,1.8c-3.3,7.2-6.6,14.4-9.9,21.7c-1.9,4.1-3.7,8.3-5.6,12.4
	C23.6,81.5,23.4,82.3,22.6,82.9z"/>
<path class="st5" d="M220.4,180.7c-0.1,0.3-0.2,0.6-0.3,0.9c-0.3,0.1-0.6,0.2-0.6,0.6c-5-6.6-10.4-12.9-16.5-18.5
	c0.1-0.2,0-0.3-0.3-0.3c-1-1-2-1.9-3-2.9c-2.1-2.9-5.1-4.9-7.4-7.5c0.4-1.7,0.9-3.3,1.7-4.9c1.3-2.4,2.2-2.5,4.3-0.8
	c0.3,0.3,0.7,0.5,1.1,0.8c-1.5,1-2,1.9-0.4,3.5c5.5,5.5,10.8,11.1,15.2,17.5C216.7,172.8,219.1,176.5,220.4,180.7z"/>
<path class="st5" d="M91.6,167.2c-3.3,4.3-6.4,8.7-8.9,13.5c-0.6,1.2-1.1,2.2-1,3.5c-2.8,0.7-5.7,0.5-8.6,0.7
	c-1.4,0.1-2.4-0.5-1.5-2.1c3.8-6.7,7.9-13.1,13.1-18.8c0.2-0.2,0.6-0.2,0.9-0.3C87.3,165.3,89.8,165.7,91.6,167.2z"/>
<path class="st5" d="M189.4,218.2c-2.6-0.8-4.1-2.9-5.6-5c-2-2.8-3.7-5.9-7.1-7.4c-1.5-4.7-3-9.4-5.3-13.8c-0.2-0.3-0.4-0.9-0.1-1.3
	c3.2,1.4,5.6,4,8,6.3c4.7,4.6,8.8,9.7,12.2,15.4c0.7,1.3,1.1,2.6,1,4C191.3,216.7,190.5,217.7,189.4,218.2z"/>
<path class="st5" d="M69.3,139.5c2.1,2.6,4.7,4.5,7.3,6.4c0.5,0.4,3.5,2,3.3,2.7c-7.1-3.6-16-9.5-21.7-15.1
	c-6.8-6.6-11.9-14.3-15.1-23.3c-1.4-4-1.4-4,2.8-3.8c1,1.2,1.1,2.7,1.7,4.1C52.4,122,60,131.3,69.3,139.5z"/>
<path class="st5" d="M224.4,150.1c-0.2,0.2-0.5,0.6-0.8,0.4c-1.8-1.5-4.3-1.9-6.3-3c-2.2-3.3-3.1-3.7-6.3-3c-1.1,0-2.2,0-3.2-0.8
	c-0.9-0.7-2.1-1.3-3.4-1c-2.9-1.7-5.8-3.5-8.8-5.1c-1.2-0.6-1.3-1-0.4-2c2.4-2.8,2.3-2.8,5.6-1.2c7.7,3.9,15,8.3,21.7,13.7
	C223.4,148.6,224.3,149.1,224.4,150.1z"/>
<path class="st5" d="M81.8,289c-0.6,3.2,2,4.7,3.5,6.8c3.7,5,8.7,8.4,14,11.5c-3.5,0.1-6.3-1.7-9.4-3c-4.1-2.5-8.2-4.9-12.2-7.4
	c-1.5-1.2-2.5-2.8-3.7-4.2c-1.1-1.3-0.6-1.9,0.8-2.2C77.2,290,79.5,289.5,81.8,289z"/>
<path class="st5" d="M117.2,285.6c-0.4,4.3,1,8.5,1.7,12.7c0.5,3,1.3,5.9,2,8.9c-0.1,0.1-0.2,0.2-0.3,0.2c-0.2,0.1-0.4,0.2-0.6,0.4
	l0,0c-0.2,0-0.3,0-0.5,0c-1.9-2.3-2.6-5.2-3.5-7.9c-1.1-3.4-2.1-6.9-3-10.4C112.1,285.6,113.3,284.6,117.2,285.6z"/>
<path class="st5" d="M183.7,146.3c1.4-1.2,2.8-2.5,4.2-3.7c0.8-0.7,1.6-0.8,2.5-0.1c1,0.8,0.5,1.5,0,2.2c-0.8,1.3-1.5,2.5-2.3,3.8
	C186.8,147.3,185.1,147.2,183.7,146.3z"/>
<path class="st5" d="M116.2,176.9c0.6,0,0.9,0.1,1.1,0.8c0.4,2.1,0.9,4.2,1.4,6.3c-3.7-0.1-4.7-1.6-3.9-6
	C115.1,177.6,115.7,177.3,116.2,176.9z"/>
<path class="st3" d="M38.9,262.9c2.4-0.1,4.8,0.3,7.1,0.8C43.5,264,41.2,263.8,38.9,262.9z"/>
<path class="st0" d="M133.7,106.3c-0.5,0.1-1,0.1-1.4-0.4C132.9,105.7,133.4,105.7,133.7,106.3z"/>
<path class="st1" d="M88.4,307.2c0.5,0.1,0.9,0.2,1,0.7C89,307.7,88.7,307.5,88.4,307.2z"/>
<path class="st1" d="M119.5,307.7c0.2,0,0.3,0,0.5,0c-0.1,0.1-0.3,0.3-0.4,0.4C119.5,308,119.5,307.9,119.5,307.7z"/>
<path class="st3" d="M21.1,253.5c0.3,0,0.4,0.1,0.5,0.4C21.3,253.9,21.1,253.8,21.1,253.5z"/>
<path class="st2" d="M202.8,163.4c0.2-0.1,0.3,0,0.3,0.3C202.8,163.7,202.7,163.6,202.8,163.4z"/>
<path class="st0" d="M157.4,321.8c0.1,0.1,0.2,0.2,0.2,0.4c0,0.1,0,0.1-0.1,0.2C157.3,322.2,157.3,322,157.4,321.8z"/>
<path class="st5" d="M170.9,190.3c0.2,0.2,0.4,0.3,0.5,0.5C170.9,191,171,190.5,170.9,190.3z"/>
<path class="st4" d="M89.1,119.5c-6,0-11.1-3.8-12.6-9.4c-0.6-2.3,0-4.3,1.7-5.1c2-0.9,3.6-0.2,5,2c3.4,5.5,8.6,5.5,12.1,0.1
	c1.7-2.5,3-3.1,5-2.2c1.9,0.9,2.6,2.9,1.8,5.5C100.5,115.8,95.1,119.5,89.1,119.5z"/>
<path class="st4" d="M73,96.7c0.1-2,2-3.5,4-3.4c2.1,0.1,3.9,2,3.7,4c-0.1,2.1-2,3.7-4.2,3.5C74.6,100.7,72.9,98.8,73,96.7z"/>
<path class="st4" d="M98,93.3c2.1,0,3.9,1.6,3.8,3.6c0,2.2-1.7,3.9-3.9,3.9c-2,0-3.7-1.7-3.7-3.8C94.3,95,95.9,93.4,98,93.3z"/>
<path class="st4" d="M172.3,134.1c0-2.2,3.5-6.2,5.7-6.5c1.3-0.2,2.5,0.2,3.3,1.3c0.8,1,0.4,2.1-0.1,3.1c-1.3,2.3-2.9,4.1-5.5,4.7
	C174,137.1,172.3,135.8,172.3,134.1z"/>
<path class="st5" d="M193.5,224.8c2.8,4.5,2.1,9.5,1.7,14.3c-0.1,1.4-0.4,2.7-0.9,4.1c-1.1,3.2-3.2,4.9-6.6,4.8
	c-0.1,0-0.2,0-0.3-0.1c-2.7-2.6-2.6-5.6-2.1-9c0.5-3.2,0.3-6.6,0.6-9.8c0.3-3.9,1.4-4.9,5.3-4.9
	C191.9,224.8,192.8,224.7,193.5,224.8z"/>
<path class="st4" d="M187.5,247.9c0.1,0.1,0.2,0.1,0.3,0.1c3.6,2.2,4.3,5.3,1.5,7.4c-1.4,1.1-3.1,1.8-4.8,0.3
	c-1.5-1.4-1.7-3.1-1.1-4.9C184.1,248.9,185.7,248.3,187.5,247.9z"/>
<path class="st0" d="M193.5,224.8c-0.8-0.1-1.6,0-2.3-0.6c-2.4-1.4-1.9-3.8-1.8-6c1.1-0.5,1.9-1.5,3.1-1.7c3.6,1.6,4.6,3.7,3,6.6
	C195.1,224.1,194,223.9,193.5,224.8z"/>
<path class="st5" d="M178.5,183.1c0,2.2-2.4,3.8-4,2.7c-1.5-1-2.7-2.4-3.2-4.2c-0.4-1.4,0.1-2.5,1.2-3.3c1.1-0.8,2.2-0.5,3.2,0.4
	C177,179.9,178.2,181.4,178.5,183.1z"/>
<path class="st5" d="M178.2,174.5c4.9-0.2,7.7,2.8,6.6,7.2c-1.4-0.3-2.8-0.4-4.1-0.9C177.3,179.6,176.6,177.6,178.2,174.5z"/>
<path class="st4" d="M201.8,329.9c-0.9,0.1-1.7-0.3-2.3-1.1c-1.6-2.1-3-4.2-3.9-6.6c-0.5-1.3-0.7-2.4,0.6-3.4c1.2-0.9,2.6-1,3.7-0.1
	c2.6,2.2,4.2,5.1,4.7,8.4C204.8,328.9,203.8,330,201.8,329.9z"/>
<path class="st4" d="M202.5,341.3c-0.2-1.4,0.4-2.7,1.8-3.3c1.6-0.6,3.1-0.2,4.2,1.3c1.5,2.1,2.1,4.5,2,7.1c0,1.5-1,2.6-2.5,3.1
	c-1.5,0.5-2.4-0.4-3.1-1.5C203.7,346,202.5,344,202.5,341.3z"/>
<path class="st5" d="M138.9,18.5c0.1-1.5,1.2-2.3,2.9-2.2c1.7,0,3.1,1.6,3.1,3.5c-0.1,1.7-1.3,2.3-2.7,2.4
	C140.6,22.3,138.9,20.5,138.9,18.5z"/>
<path class="st5" d="M132.7,19.4c-1.2,0-1.9-0.6-1.8-1.8c0.1-1.2,0.8-1.8,2-1.8c1.3,0,1.7,0.8,1.8,1.9
	C134.7,19,133.9,19.5,132.7,19.4z"/>
<path class="st0" d="M178.9,368.5c-0.2,0-0.5,0-0.7,0c-3.4,0.3-5.1-0.8-5.4-3.3c-0.3-2.5,1.4-4.3,4.6-4.8c3.8,1.6,4.4,4.1,1.9,7.3
	C179.1,368,179.1,368.3,178.9,368.5z"/>
<path class="st0" d="M54.1,357.2c-2-3.1-1.8-4.3,1.2-7.2c1.6,0.3,3.4,0,4.1,2.1c0.5,1.5,0.7,3.1-0.5,4.4
	C57.5,357.9,55.8,357.9,54.1,357.2z"/>
<path class="st4" d="M168.5,165.6c-0.4,1.7-1.4,2.8-3.1,2.8c-1.4,0-2.6-0.9-2.8-2.3c-0.2-1.1,2-2.9,3.3-2.7
	C167.2,163.6,168.3,164.2,168.5,165.6z"/>
<path class="st0" d="M14.1,226c-0.2-0.3-0.4-0.6-0.6-0.8c-0.6-0.9-0.7-2.1-0.2-3.1c0.3-0.7,0.3-1.5,0.6-2.1c1-2.2,2.2-3.6,4.6-3.1
	c2.3,0.4,3.8,1.8,4.2,4.3c0.4,2.5-0.5,4.5-2.6,5.7c-0.8,0.5-1.6,0.8-2.5,1c-1,0.2-2-0.2-2.7-0.9c-0.1-0.1-0.3-0.3-0.4-0.4
	C14.4,226.3,14.2,226.2,14.1,226z"/>
<path class="st0" d="M28.5,247.1c0.1-1.5,0.9-2.6,2.8-2.7c1.8,0,3.3,1.2,3.2,3c-0.1,1.8-1.3,2.8-3,3.1
	C30.1,250.8,28.5,249.1,28.5,247.1z"/>
<path class="st4" d="M47.1,241.7c0.1,1.9-1.8,4.1-3.5,4.1c-1.6,0-3.7-2.1-3.7-3.7c0-1.6,1.7-3.3,3.3-3.3
	C45.2,238.7,47.1,240.1,47.1,241.7z"/>
<path class="st5" d="M100.7,307.8c-0.5-0.1-1.1,0.1-1.4-0.6C99.7,307.3,100.3,307.2,100.7,307.8z"/>
<path class="st1" d="M120,307.7c0.2-0.1,0.4-0.2,0.6-0.4C120.4,307.5,120.2,307.6,120,307.7z"/>
<path class="st4" d="M114.4,179.7c0,0,1.1-9.5,2.1-12.2c0,0-5.9-0.3-7.8-0.5c0,0-1.9,11.8-2.3,14.1"/>
<path class="st5" d="M90.4,168.8c0,0,2.9-3.6,3.9-4.2l-7.6-2.6c0,0-2.3,2.1-4.1,4.4"/>
<path class="st5" d="M147.7,243.4c0,0,18.2,2.6,20.5,3v-2c0,0-10.6-2.5-20.5-3.7"/>
<path class="st5" d="M143.6,189.4c0,0,12.7-0.2,17.1,1.2l1.4,3.1l-13.3-0.7"/>
<path class="st5" d="M117.8,180.4c0,0-0.9-4.9,1.5-12.6l-3-0.2c0,0-1.5,6.6-1.9,12.3L117.8,180.4z"/>
</svg>
