<svg width="282" height="386" viewBox="0 0 282 386" fill="none" xmlns="http://www.w3.org/2000/svg">
<path d="M188.05 148.53C188.824 147.278 189.61 146.039 190.365 144.774C190.806 144.044 191.309 143.321 190.34 142.547C189.441 141.83 188.661 141.931 187.849 142.648C186.459 143.881 185.05 145.108 183.653 146.334C182.502 146.592 181.986 147.662 181.13 148.303C180.841 148.523 180.438 148.964 180.923 149.209C182.508 150.014 184.106 151.109 185.792 151.317C187.094 151.474 187.711 149.826 188.05 148.53ZM88.3793 307.233C88.7064 307.479 89.0335 307.73 89.3669 307.976C92.3173 310.706 95.362 313.103 99.8159 312.455C103.509 311.92 107.233 311.549 110.951 311.203C113.027 311.008 113.354 310.203 112.152 308.592C109.441 302.408 107.327 296.036 105.811 289.456C105.125 286.499 103.817 285.241 101.426 285.562C94.8399 286.449 88.2472 287.329 81.7991 289.022C79.4778 289.525 77.1502 290.041 74.8289 290.538C73.4261 290.833 72.8851 291.393 73.986 292.702C75.1812 294.123 76.194 295.709 77.6535 296.898C80.5347 301.087 84.3154 304.346 88.417 307.265L88.3793 307.233ZM119.519 307.686C119.481 307.856 119.525 307.995 119.657 308.114C120.336 309.322 121.217 310.435 122.658 310.498C128.301 310.737 133.943 310.97 139.592 310.58C140.435 310.523 141.102 310.152 141.58 309.473C145.518 303.868 150.192 298.886 154.747 293.803C155.753 292.677 155.407 292.274 154.174 291.915C149.582 290.575 144.952 289.405 140.259 288.474C132.629 286.927 124.916 286.04 117.147 285.625C113.253 284.612 112.133 285.606 113.077 289.487C113.932 292.972 114.882 296.445 116.034 299.842C116.952 302.541 117.644 305.384 119.519 307.686ZM211.056 144.56C214.321 143.856 215.208 144.271 217.372 147.523C216.334 148.536 215.107 149.19 213.704 149.543C212.182 149.933 212.213 150.612 213.232 151.631C214.459 152.845 215.623 154.129 216.774 155.412C221.178 160.331 225.191 165.565 229.035 170.931C230.066 172.366 231.249 173.599 233.338 173.114C236.087 172.472 238.855 171.9 241.623 171.334C243.353 170.982 243.453 170.17 242.421 168.924C241.031 167.239 239.635 165.553 238.276 163.848C234.193 158.733 230.01 153.726 224.43 150.128C224.285 149.052 223.354 148.63 222.643 148.058C215.918 142.667 208.59 138.213 200.896 134.363C197.681 132.753 197.707 132.828 195.335 135.583C194.461 136.596 194.561 136.999 195.725 137.628C198.688 139.238 201.563 140.993 204.476 142.692C206.18 145.894 208.042 146.422 211.056 144.56ZM225.222 177.945L225.254 177.977C225.059 176.863 224.335 176.008 223.807 175.064C220.536 169.214 216.22 164.156 211.71 159.262C207.954 155.185 204.117 151.178 199.399 148.159C199.04 147.894 198.663 147.643 198.323 147.36C196.197 145.605 195.272 145.774 193.976 148.14C193.14 149.668 192.68 151.323 192.278 152.996C191.504 153.77 191.183 154.701 192.177 155.399C194.649 157.148 196.864 159.287 199.72 160.47C200.733 161.438 201.745 162.401 202.758 163.37C202.702 163.602 202.783 163.697 203.022 163.634C209.137 169.27 214.534 175.542 219.555 182.154C219.844 182.538 220.133 182.915 220.423 183.299C221.341 184.84 222.241 186.4 223.184 187.929C231.274 201.051 236.791 214.91 236.269 230.725C235.76 246.213 230.136 259.09 217.768 268.696C216.258 269.866 215.176 271.112 214.635 272.898C213.673 276.069 212.465 279.252 210.609 281.894C207.633 286.128 207.193 289.959 210.54 294.035C210.634 294.149 210.666 294.318 210.729 294.463C211.364 295.954 212.194 296.143 213.257 294.853C213.704 294.312 214.201 293.803 214.61 293.23C218.366 287.996 221.914 282.643 224.971 276.962C232.073 263.783 236.212 249.685 237.357 234.82C238.729 217.024 235.036 200.007 228.255 183.601C227.575 181.959 227.179 180.147 225.826 178.839C225.726 178.474 225.631 178.103 225.222 177.945ZM171.424 190.785L171.361 190.747C170.99 191.2 171.254 191.716 171.43 192.062C173.701 196.465 175.261 201.14 176.746 205.839C177.13 207.235 177.343 208.714 177.74 210.066C179.489 216.105 179.715 222.245 179.627 228.448C179.489 238.639 177.255 248.528 175.381 258.467C174.682 262.173 176.048 265.06 179.696 266.161C184.88 267.727 190.195 267.658 195.492 266.633C196.631 266.928 197.675 266.413 198.726 266.186C215.786 262.525 226.204 249.44 226.651 232.436C226.701 230.543 226.267 229.945 224.424 230.939C223.247 231.568 222.02 231.448 220.907 230.543C218.416 228.523 217.598 222.767 219.504 220.175C220.228 219.188 221.196 218.622 222.48 218.527C226.021 218.269 226.034 218.232 224.965 214.746C224.575 213.476 224.078 212.23 223.599 210.985C223.335 210.311 223.014 209.664 222.065 209.921C219.649 210.569 218.454 209.072 217.416 207.273C216.271 205.298 216.956 203.587 218.315 202.127C219.404 200.957 219.164 199.988 218.504 198.755C211.1 184.985 201.097 173.529 188.51 164.232C182.093 159.488 175.242 157.733 167.719 160.545C161.51 162.866 156.206 167.679 162.371 174.781C165.208 179.952 168.039 185.117 170.876 190.288C170.996 190.514 170.908 190.967 171.424 190.785ZM118.569 184.003C127.841 184.01 137.114 184.016 146.387 184.029C149.211 184.066 152.042 184.167 154.866 184.129C157.005 184.104 157.27 183.601 156.181 181.745C153.067 176.473 149.846 171.271 146.129 166.389C145.229 165.2 144.405 164.898 142.964 165.244C139.259 166.131 135.535 167.27 131.773 167.496C125.275 167.893 118.739 168.019 112.221 167.622C109.07 167.427 105.918 167.031 102.791 166.578C97.677 165.836 92.808 164.15 87.9263 162.533C86.7751 162.149 85.9196 162.445 85.5484 163.703C85.259 163.804 84.8753 163.823 84.6929 164.024C79.5156 169.736 75.4454 176.222 71.6332 182.871C70.6896 184.519 71.715 185.073 73.1179 184.991C75.999 184.821 78.9117 184.947 81.7488 184.274C81.969 184.349 82.1892 184.494 82.403 184.488C88.9769 184.356 95.5445 184.236 102.118 184.054C104.414 183.991 105.874 182.664 106.616 180.544C107.094 179.191 107.554 177.857 109.151 177.43C111.032 177.153 112.787 178.046 114.643 178.015C113.844 182.424 114.826 183.922 118.569 184.003ZM157.603 322.344C157.905 323.149 158.182 323.967 158.509 324.76C164.435 339.31 169.147 354.2 171.436 369.801C172.468 376.841 172.556 376.828 179.853 375.935C183.647 376.281 187.44 376.061 191.233 376.054C201.053 376.067 210.867 376.08 220.687 376.086C223.839 376.086 223.92 376.08 223.794 372.985C223.279 360.39 221.253 348.029 217.661 335.951C212.93 320.023 206.709 304.78 197.726 290.664C194.7 285.908 191.523 283.681 185.804 284.461C181.615 285.033 177.595 285.524 174.148 288.204C166.36 294.262 159.874 301.578 153.684 309.196C152.866 310.203 152.734 311.272 153.3 312.48C154.69 315.462 156.03 318.469 157.389 321.463C157.427 321.558 157.439 321.658 157.414 321.759C157.282 322.023 157.345 322.212 157.603 322.344ZM150.557 189.955C149.482 189.766 148.406 189.42 147.33 189.414C137.447 189.332 127.558 189.275 117.675 189.294C114.083 189.3 112.542 190.735 112.02 194.245C110.435 204.889 109.63 215.596 109.221 226.34C109.063 230.536 110.567 231.914 114.845 231.738C128.728 232.235 142.505 233.763 156.232 235.827C159.597 236.575 162.975 237.242 166.416 237.551C168.624 237.746 169.845 236.657 169.996 234.462C170.166 232.034 170.398 229.605 170.392 227.177C170.348 215.08 167.039 203.794 161.742 193.018C161.113 191.735 160.295 190.502 158.748 190.244C156.037 189.778 153.306 189.546 150.557 189.955ZM157.137 242.47C156.37 241.828 155.414 241.746 154.483 241.621C151.608 241.237 148.727 240.885 145.845 240.52C135.176 239.174 124.488 238.148 113.731 237.953C110.712 237.897 109.114 239.249 109.12 242.011C109.145 252.925 109.68 263.815 111.215 274.622C111.749 278.397 113.668 279.762 117.568 279.68C120.355 279.988 123.136 280.34 125.923 280.586C132.295 281.146 138.542 282.548 144.889 283.31C148.947 284.788 153.243 285.348 157.351 286.606C159.629 287.304 161.258 286.688 162.768 284.952C165.492 281.812 168.253 278.698 171.16 275.729C172.632 274.226 172.518 273.358 170.958 271.999C166.945 268.495 165.479 263.965 166.096 258.675C166.542 254.85 167.184 251.076 168.014 247.32C168.272 246.163 168.819 244.621 167.014 244.194C163.755 243.432 160.528 242.457 157.137 242.47ZM21.5398 253.837C21.6027 253.919 21.6845 253.963 21.7914 253.963C26.6102 258.612 32.2656 261.682 38.8646 262.946C41.167 263.821 43.5449 264.003 45.9795 263.758C46.4387 263.752 46.8916 263.752 47.3508 263.745C51.0498 263.89 51.9557 262.896 51.0813 258.839C49.9741 253.68 49.8294 248.465 49.6658 243.237C49.5086 238.23 49.3513 233.204 49.4142 228.215C49.4897 221.83 50.8863 215.508 52.2828 209.261C53.3585 204.461 54.6733 199.718 55.8811 194.949C56.8373 192.892 57.7747 190.829 58.7434 188.778C60.6432 184.758 62.5619 180.751 64.4743 176.738C66.9277 174.259 68.0538 170.868 70.8846 168.119C70.0165 168.188 69.702 168.151 69.4315 168.245C58.4604 171.988 47.9673 176.731 38.3299 183.236C28.2898 190.011 19.6651 198.189 14.0664 209.066C6.17773 224.397 9.17843 242.678 21.068 253.466C21.0869 253.762 21.263 253.863 21.5398 253.837ZM77.7605 283.851C85.1332 282.36 92.5123 280.919 99.9795 279.975C103.163 279.573 104.119 278.12 103.729 274.949C103.332 271.76 102.911 268.57 102.54 265.375C101.609 257.335 101.691 249.245 101.414 241.174C101.219 238.752 100.237 237.771 97.8343 237.991C85.7875 239.073 73.7595 240.344 61.8637 242.652C59.7625 243.061 58.8126 244.005 58.9762 246.339C59.7625 257.863 62.0209 269.042 66.4811 279.73C69.2679 286.405 70.4254 286.858 77.1565 284.215C77.3704 284.127 77.5591 283.97 77.7605 283.851ZM62.0209 300.565C61.2597 302.113 60.4042 303.623 59.7437 305.214C51.1001 326.043 46.8161 347.821 45.6523 370.273C45.3378 376.363 45.3315 376.363 51.6097 376.01C57.4287 376.023 63.2413 376.042 69.0603 376.054C77.7793 376.067 86.492 376.055 95.2111 376.105C96.6076 376.111 96.8592 375.463 96.9599 374.243C97.287 370.103 97.6456 365.964 98.174 361.844C99.5014 351.414 101.282 341.072 104.257 330.962C104.71 329.415 104.509 328.219 102.647 327.716C101.521 327.414 100.42 326.93 99.4007 326.357C87.0205 319.431 76.0494 310.819 67.3681 299.464C66.4874 298.313 65.7388 296.067 64.5561 296.35C63.0023 296.728 62.5619 298.936 62.0209 300.565ZM69.4503 235.254C70.2241 235.21 71.0104 235.236 71.7716 235.11C80.0503 233.726 88.3667 232.593 96.7334 231.914C100.502 231.606 101.558 230.536 101.602 226.774C101.672 221.283 102.099 215.81 102.433 210.33C102.766 204.839 103.924 199.466 104.421 194.012C105.044 190.791 104.006 189.42 100.678 189.401C91.1661 189.344 81.6733 189.904 72.1742 190.426C68.664 190.621 66.9781 192.27 65.8835 195.289C61.4107 207.65 58.7183 220.339 58.5673 233.518C58.5358 236.135 59.5298 237.186 62.1279 236.934C64.6316 236.689 67.0598 236.028 69.4503 235.254ZM77.2886 38.5293C77.6535 39.561 78.1127 40.5738 78.3518 41.637C78.8676 43.9331 79.9811 44.4301 82.3338 43.8387C90.1533 41.876 98.0733 42.1339 105.956 43.5682C109.699 44.2476 109.674 44.3672 111.102 40.9261C113.448 35.2707 115.291 34.0314 121.45 34.0377C141.335 34.0503 161.226 34.0754 181.112 34.0754C181.929 34.0754 182.823 34.3208 183.578 33.7735C183.565 33.5722 183.622 33.3646 183.54 33.2828C183.112 32.8299 182.659 32.3895 182.2 31.968C174.053 24.4757 164.642 18.9839 154.432 14.9012C149.714 13.0139 144.801 11.5734 139.662 11.2148C108.39 5.43985 77.9177 20.588 67.9028 34.1572C72.3001 33.2388 75.2253 35.0505 77.2886 38.5293ZM133.704 106.249C133.365 105.734 132.874 105.702 132.333 105.815C130.37 104.878 128.319 104.092 126.457 102.985C113.417 95.2155 107.421 83.1875 105.849 68.5363C105.88 64.6109 105.792 60.6854 105.981 56.7726C106.088 54.596 105.006 53.8222 103.175 53.5014C98.2809 52.6395 93.3742 52.3753 88.4296 53.017C83.4473 53.6649 82.3779 54.8413 82.3338 59.811C82.3213 60.8301 82.3275 61.8492 82.3213 62.8683C82.0319 69.1717 81.0694 75.3744 78.616 81.2059C72.4888 95.7313 62.2977 105.105 45.9291 106.4C41.7458 106.281 41.7646 106.268 43.1549 110.25C46.2877 119.234 51.465 126.902 58.215 133.533C63.9019 139.119 70.3185 143.724 77.4333 147.335C78.9305 147.492 79.7924 148.781 81.0694 149.373C93.0659 154.883 105.66 157.922 118.845 158.073C132.339 158.224 145.311 155.387 157.848 150.386C168.794 146.02 178.639 139.905 186.635 131.274C195.599 121.599 201.62 110.294 203.771 97.0713C205.432 86.855 205.149 76.7772 202.67 66.7371C202.488 66.0011 202.223 65.3972 201.632 64.9694C197.625 62.0757 193.429 59.4587 189.214 56.8795C188.359 56.3574 187.811 56.458 187.012 57.2318C185.547 58.6535 184.993 60.1633 185.075 62.2204C185.352 69.266 184.244 76.0727 181.571 82.678C174.965 98.9711 158.716 109.131 140.92 107.332C138.492 107.086 136.189 106.174 133.736 106.262L133.704 106.249ZM106 379.231C105.78 382.855 102.779 385.679 99.1491 385.679C85.2213 385.673 70.6707 385.642 56.9757 385.642C52.113 385.642 46.2625 385.661 40.8776 385.673C37.921 385.679 35.5682 383.188 35.757 380.232L36.1721 373.526C36.4364 356.949 38.7576 340.65 43.092 324.646C46.5142 312.008 51.2448 299.886 57.4916 288.38C58.5484 286.436 58.8567 284.87 57.7558 282.756C56.3467 280.057 55.4911 277.075 54.3839 274.219C54.0883 273.452 54.0254 272.603 52.6728 272.854C40.0913 275.232 28.7742 272.037 18.7341 264.456C-1.12586 249.459 -5.69297 223.377 7.4233 201.341C15.6705 187.482 27.6796 177.725 41.5067 169.931C51.3581 164.376 61.8259 160.388 72.7907 157.677C73.3066 157.551 73.8916 157.576 74.3383 156.953C66.4811 153.009 59.3536 148.039 53.0629 141.937C42.6139 131.803 35.1467 119.926 32.2404 105.469C32.0706 104.626 31.6994 104.085 30.9193 103.677C13.9217 94.7625 7.75042 80.017 8.33546 61.6416C8.34804 61.283 8.39837 60.698 8.46128 60.3394C8.91421 57.6029 8.90163 55.0426 5.91351 53.4762C5.66188 53.3378 5.49832 53.0107 5.3096 52.7653C3.45382 50.3434 3.0575 39.6176 4.71827 37.0447C6.18402 34.78 8.31659 33.9685 10.9524 33.9811C24.4713 34.0314 37.9965 33.9937 51.5153 34.0754C53.7045 34.088 55.1577 33.5407 56.6549 31.7101C66.198 20.0848 78.2637 11.976 92.2733 6.60993C97.3185 4.67866 102.452 2.98644 107.742 2.1309C110.856 1.62764 114.014 0.709185 117.254 1.06147C117.524 1.18099 117.801 1.28164 118.009 0.948234C120.991 -0.247013 124.123 0.287703 127.193 0.174469C127.59 0.570788 127.999 0.602241 128.407 0.193341C130.062 0.356901 131.786 -0.0519991 133.346 0.816128C133.987 1.4515 134.749 1.14325 135.478 1.05518C139.951 0.828709 144.254 2.00508 148.538 2.9487C161.126 5.73551 172.374 11.4412 182.439 19.4242C194.813 29.2378 204.746 40.9638 210.15 56.068C210.666 57.5086 211.704 58.3956 212.842 59.2385C218.259 63.2772 223.732 67.2341 228.638 71.9145C233.797 76.8275 236.571 82.7409 236.565 89.9124C236.558 92.8187 236.647 95.725 236.665 98.6377C236.691 102.506 234.413 105.293 231.205 105.331C227.978 105.375 225.65 102.733 225.575 98.7949C225.506 95.0268 225.537 91.2523 225.531 87.4778C225.531 85.8422 225.034 84.3954 223.983 83.1372C221.152 79.7465 217.724 77.0289 213.905 73.9778C214.327 78.3185 214.572 82.1873 214.465 86.0624C214.107 99.0088 210.949 111.219 204.608 122.53C203.532 124.449 203.758 125.153 205.702 126.078C226.562 135.98 243.151 150.732 255.041 170.529C269.025 193.811 274.077 219.012 270.189 245.917C267.754 262.777 262.193 278.51 252.701 292.74C245.435 303.635 236.558 313.015 225.77 320.482C223.625 321.966 223.348 323.256 224.222 325.64C229.934 341.267 232.834 357.446 233.25 374.067L233.621 378.741C233.916 382.484 230.96 385.686 227.204 385.686C223.889 385.686 220.498 385.686 217.648 385.686C215.145 385.396 212.647 385.428 210.144 385.66C196.983 385.654 183.823 385.654 170.663 385.648C166.699 385.648 163.384 382.641 163 378.697L162.503 373.595C161.465 366.511 160.17 359.491 158.018 352.47C157.181 354.471 156.496 356.377 155.596 358.176C153.942 361.485 151.274 362.768 147.638 362.19C144.455 361.68 141.656 360.246 139.089 358.409C132.119 353.427 127.395 346.645 123.96 338.907C123.457 337.769 123.06 336.819 121.437 336.674C119.336 336.492 117.273 336.051 115.304 335.303C113.234 334.517 112.618 335.039 112.303 336.655C111.863 338.964 111.246 341.248 110.743 343.544C108.56 353.54 107.226 363.662 106.321 373.846L106 379.231ZM261.495 239.582C261.759 238.11 260.828 237.223 259.91 236.349C255.871 232.48 251.335 229.247 246.806 226.001C246.089 225.491 245.41 224.308 244.428 224.912C243.636 225.403 243.73 226.617 243.724 227.529C243.692 231.461 243.39 235.368 242.887 239.255C241.295 251.535 238.125 263.387 233.117 274.729C232.759 275.547 232.52 276.327 232.872 277.214C234.898 282.309 236.993 287.38 238.628 292.626C239.024 293.891 239.704 294.432 240.836 292.985C244.384 288.462 247.548 283.693 250.172 278.592C253.179 272.741 255.336 266.582 257.211 260.248C259.218 253.435 260.369 246.521 261.495 239.582ZM261.489 227.102C261.942 222.327 261.281 217.986 260.621 213.664C258.765 201.435 254.852 189.904 248.819 179.09C248.001 177.625 247.051 177.09 245.384 177.587C242.83 178.348 240.213 178.902 237.64 179.612C234.13 180.581 233.853 180.978 235.149 184.362C238.376 192.823 240.742 201.517 242.371 210.412C242.673 212.067 243.415 213.318 244.724 214.319C247.662 216.552 250.53 218.873 253.512 221.044C256.098 222.931 258.343 225.271 261.489 227.102ZM154.023 44.9899C150.733 43.65 149.45 46.1412 148.091 49.2802C142.524 62.1763 136.768 74.9906 131.043 87.8238C128.76 92.9445 128.716 92.9256 133.717 95.3413C136.768 96.8133 137.001 96.719 138.366 93.605C144.795 78.935 151.224 64.2649 157.672 49.6011C159.729 44.9145 159.761 44.9333 154.023 44.9899ZM49.6344 44.9774C46.3443 43.7255 45.0421 46.116 43.7148 49.1293C38.4683 61.0503 33.0582 72.8958 27.6544 84.7476C26.1698 88 26.088 87.9685 28.9 90.3464C29.1391 90.5477 29.3718 90.7616 29.6297 90.9441C33.6999 93.8944 32.9009 94.3411 35.0398 89.6544C41.0915 76.3746 47.0174 63.0319 53.0755 49.7521C55.2835 44.9207 55.3967 44.9711 49.6344 44.9774ZM144.556 44.9585C142.977 44.9585 141.712 45.1032 140.492 44.927C138.429 44.6251 137.391 45.5058 136.573 47.3427C131.553 58.6724 126.451 69.9706 121.362 81.2688C120.959 82.1684 120.733 82.9925 121.211 83.955C122.11 85.7793 123.123 87.5156 124.771 89.3714C131.402 74.4874 137.919 59.855 144.556 44.9585ZM22.5966 82.873C23.3641 82.2565 23.5843 81.4827 23.9051 80.7719C25.7798 76.6262 27.6481 72.468 29.5291 68.3224C32.8003 61.1006 36.0652 53.8725 39.3804 46.6696C40.0284 45.2604 39.9151 44.6817 38.1978 44.8578C36.8767 44.9962 35.5053 45.078 34.1968 44.9019C32.2782 44.6439 31.3597 45.5247 30.6363 47.1603C28.1199 52.8282 25.9496 58.7164 22.8168 64.0321C19.0801 70.3669 19.1179 76.3306 22.3828 82.6025C22.4079 82.6717 22.4708 82.722 22.5966 82.873ZM233.275 300.93C233.262 300.836 233.275 300.59 233.205 300.37C231.809 295.872 230.507 291.343 228.412 287.09C227.613 285.467 227.034 285.801 226.216 287.078C223.14 291.909 219.856 296.596 216.29 301.081C215.585 301.962 215.377 302.723 215.95 303.836C217.17 306.208 218.303 308.636 219.271 311.121C219.875 312.656 220.511 312.606 221.662 311.75C225.392 308.989 228.896 305.963 232.381 302.905C232.929 302.415 233.312 301.849 233.275 300.93ZM149.412 334.158C144.606 335.12 139.108 335.781 133.522 335.649C132.138 335.617 132.371 336.586 132.786 337.467C134.289 340.675 136.252 343.6 138.561 346.268C140.561 348.57 142.7 350.791 145.374 352.326C146.676 353.074 148.123 353.427 148.764 351.432C150.312 346.582 151.344 341.606 152.073 336.574C152.25 335.309 151.91 333.982 149.412 334.158ZM141.511 325.697C143.361 325.665 145.116 325.25 146.865 324.81C148.022 324.514 148.469 323.967 147.89 322.79C147.06 321.105 146.28 319.393 145.481 317.689C144.971 316.607 144.185 316.405 142.989 316.493C137.667 316.877 132.333 316.764 127.005 316.449C125.973 316.387 124.602 316.16 124.167 316.99C123.671 317.934 124.778 318.834 125.545 319.469C130.181 323.3 135.673 324.955 141.511 325.697ZM103.106 317.418C107.189 321.702 123.394 327.395 129.464 326.716C124.061 324.929 119.569 322.105 116.455 317.38C116.178 316.959 115.807 316.682 115.297 316.682C111.271 316.676 107.233 316.632 103.106 317.418ZM194.731 47.0722C193.976 44.7761 192.334 43.1279 190.617 41.2721C189.34 45.3108 192.794 45.6379 194.731 47.0722Z" fill="#31080B"/>
<path d="M135.484 1.04892C134.754 1.13699 134 1.44524 133.352 0.809869C134.176 -0.121166 134.824 0.501621 135.484 1.04892Z" fill="#447F59"/>
<path d="M128.413 0.193441C127.998 0.602342 127.596 0.570888 127.199 0.174569C127.608 -0.0518989 128.011 -0.0707712 128.413 0.193441Z" fill="#447F59"/>
<path d="M118.009 0.948211C117.801 1.27533 117.531 1.18097 117.254 1.06145C117.48 0.93563 117.701 0.809814 117.927 0.696581C117.965 0.677708 118.04 0.740616 118.097 0.77207C118.065 0.822396 118.04 0.885304 118.009 0.948211Z" fill="#447F59"/>
<path d="M281.475 379.401L281.324 379.301L281.387 379.131L281.551 379.232L281.475 379.401Z" fill="#74CD92"/>
<path d="M105.849 68.5428C107.422 83.194 113.417 95.2157 126.458 102.991C128.32 104.098 130.371 104.885 132.333 105.822C132.673 106.338 133.158 106.388 133.705 106.256L133.736 106.269C133.787 107.42 134.806 107.564 135.548 107.854C147.563 112.559 159.277 112.213 170.556 105.602C172.651 104.375 174.601 102.903 176.652 101.607C178.759 100.273 179.797 100.645 180.873 102.909C181.823 104.903 181.2 106.81 180.414 108.584C175.255 120.203 166.895 129.123 156.226 135.735C140.581 145.429 123.369 148.738 105.088 147.442C93.5571 146.624 82.5105 144.233 72.1559 138.999C71.0047 138.414 70.0863 138.383 69.2747 139.465C60.0147 131.331 52.384 121.996 47.6156 110.496C47.0494 109.137 46.9551 107.583 45.9297 106.42C62.2983 105.117 72.4893 95.7504 78.6103 81.225C81.0699 75.3935 82.0324 69.1908 82.3155 62.8874C83.0453 62.4408 83.5611 61.7299 84.4355 61.4343C90.6256 59.3709 96.8472 59.1759 103.151 60.9373C104.887 61.4217 105.503 62.403 105.453 64.177C105.422 65.6176 105.038 67.1463 105.849 68.5428ZM89.0907 119.511C95.0606 119.53 100.452 115.755 102.087 110.408C102.874 107.829 102.22 105.816 100.301 104.929C98.3067 104.004 97.0296 104.57 95.3437 107.105C91.7706 112.478 86.5995 112.421 83.2025 106.961C81.7997 104.708 80.1452 104.048 78.1573 104.954C76.4777 105.721 75.8109 107.715 76.4525 110.056C77.9749 115.661 83.1019 119.492 89.0907 119.511ZM73.0429 96.694C72.9234 98.77 74.5905 100.664 76.6727 100.827C78.8493 100.997 80.6988 99.4242 80.8246 97.3042C80.9441 95.2723 79.2142 93.4291 77.0816 93.3033C74.9994 93.1838 73.1562 94.7376 73.0429 96.694ZM98.0487 93.3222C95.9099 93.3662 94.2869 94.9829 94.312 97.04C94.3435 99.116 96.0483 100.852 98.0173 100.814C100.188 100.77 101.88 99.0594 101.892 96.9016C101.899 94.8886 100.175 93.2782 98.0487 93.3222Z" fill="#74CD92"/>
<path d="M69.2793 139.459C70.0908 138.377 71.003 138.408 72.1605 138.993C82.5151 144.227 93.5554 146.618 105.093 147.435C123.374 148.731 140.585 145.422 156.23 135.728C166.9 129.117 175.26 120.203 180.418 108.577C181.205 106.803 181.828 104.897 180.878 102.903C179.802 100.638 178.764 100.267 176.657 101.601C174.606 102.897 172.656 104.369 170.561 105.595C159.281 112.207 147.562 112.553 135.553 107.847C134.817 107.558 133.797 107.413 133.741 106.262C136.201 106.174 138.503 107.086 140.931 107.332C158.728 109.131 174.977 98.9712 181.582 82.6781C184.256 76.0791 185.363 69.2662 185.086 62.2205C185.004 60.1571 185.558 58.6536 187.024 57.2319C187.823 56.4581 188.376 56.3575 189.225 56.8796C193.44 59.4588 197.636 62.0695 201.643 64.9696C202.235 65.3973 202.499 66.0075 202.681 66.7373C205.16 76.7773 205.443 86.8552 203.782 97.0714C201.631 110.295 195.611 121.599 186.646 131.274C178.651 139.905 168.806 146.02 157.86 150.386C145.328 155.387 132.357 158.224 118.857 158.073C105.671 157.928 93.0773 154.884 81.0808 149.373C79.8038 148.788 78.9482 147.492 77.4447 147.335C77.6334 146.573 77.1239 146.265 76.6018 145.882C73.9533 143.975 71.3427 142.025 69.2793 139.459ZM172.328 134.093C172.316 135.797 173.951 137.093 175.688 136.659C178.298 136.005 179.972 134.193 181.224 131.935C181.777 130.941 182.111 129.884 181.356 128.852C180.544 127.739 179.387 127.355 178.047 127.544C175.864 127.852 172.347 131.891 172.328 134.093Z" fill="#74CD92"/>
<path d="M170.882 190.269C168.045 185.098 165.214 179.934 162.377 174.763C162.371 174.02 162.56 173.441 163.308 173.045C165.711 171.768 168.24 171.277 170.945 171.598C173.625 171.919 175.588 174.039 178.217 174.454C176.569 177.556 177.305 179.575 180.683 180.783C181.992 181.248 183.426 181.374 184.804 181.651C186.609 182.374 188.534 182.67 190.27 183.702C194.762 186.388 198.731 189.772 202.154 193.597C216.006 209.098 218.862 227.007 212.313 246.364C209.375 255.039 204.06 262.311 195.504 266.608C190.201 267.633 184.892 267.702 179.708 266.136C176.06 265.035 174.694 262.148 175.393 258.442C177.267 248.503 179.501 238.614 179.639 228.423C179.727 222.22 179.501 216.08 177.752 210.041C177.362 208.695 177.148 207.217 176.758 205.814C180.136 207.317 181.834 210.456 183.841 213.243C185.357 215.351 186.829 217.408 189.459 218.213C189.352 220.415 188.905 222.723 191.271 224.17C187.402 224.145 186.282 225.114 185.968 229.046C185.71 232.323 185.854 235.645 185.382 238.884C184.892 242.263 184.772 245.358 187.471 247.912C185.735 248.283 184.118 248.868 183.489 250.736C182.879 252.554 183.055 254.253 184.558 255.643C186.251 257.209 187.88 256.404 189.327 255.354C192.126 253.334 191.428 250.17 187.798 247.993C191.22 248.056 193.265 246.396 194.385 243.175C194.856 241.816 195.171 240.432 195.278 239.079C195.668 234.21 196.41 229.247 193.56 224.749C193.976 223.893 195.089 224.038 195.605 223.069C197.121 220.232 196.203 218.068 192.56 216.496C192.661 215.049 192.296 213.734 191.56 212.482C188.207 206.783 184.118 201.637 179.381 197.051C176.94 194.692 174.594 192.131 171.385 190.716L171.448 190.754C171.241 190.615 171.058 190.445 170.882 190.269ZM178.469 183.073C178.161 181.387 177.003 179.946 175.575 178.688C174.606 177.832 173.449 177.518 172.367 178.285C171.279 179.059 170.794 180.248 171.19 181.601C171.719 183.406 172.92 184.803 174.437 185.784C176.091 186.853 178.475 185.318 178.469 183.073Z" fill="#74CD92"/>
<path d="M157.395 321.47C156.036 318.475 154.696 315.468 153.306 312.486C152.74 311.279 152.872 310.209 153.69 309.203C159.874 301.591 166.366 294.275 174.154 288.21C177.601 285.53 181.621 285.04 185.811 284.467C191.529 283.687 194.706 285.914 197.732 290.67C206.715 304.786 212.936 320.029 217.667 335.957C221.253 348.042 223.285 360.397 223.8 372.991C223.926 376.086 223.851 376.092 220.693 376.092C210.873 376.086 201.059 376.074 191.239 376.061C192.573 375.344 194.014 375.765 195.398 375.702C199.833 375.52 202.11 373.23 202.085 368.726C202.053 362.982 201.135 357.321 199.984 351.741C197.474 339.612 194.19 327.691 189.346 316.242C187.691 312.335 185.911 308.498 183.691 304.881C181.696 301.629 180.13 301.169 176.903 303.113C174.909 304.315 173.034 305.787 171.298 307.353C168.001 310.335 164.617 313.248 161.994 316.884C159.899 317.852 159.075 320.092 157.395 321.47ZM201.795 329.899C203.777 329.95 204.828 328.88 204.57 327.15C204.066 323.81 202.475 320.91 199.877 318.721C198.77 317.79 197.379 317.915 196.146 318.771C194.838 319.677 195.014 320.866 195.505 322.124C196.454 324.558 197.864 326.716 199.449 328.773C200.059 329.56 200.845 330.012 201.795 329.899ZM202.5 341.342C202.456 343.991 203.651 346.022 204.947 347.979C205.652 349.042 206.576 349.961 208.067 349.489C209.564 349.017 210.483 347.947 210.527 346.4C210.59 343.858 210.03 341.437 208.489 339.335C207.432 337.889 205.954 337.454 204.337 338.077C202.859 338.656 202.292 339.927 202.5 341.342Z" fill="#74CD92"/>
<path d="M139.668 11.2148C144.808 11.5734 149.721 13.014 154.439 14.9012C164.649 18.984 174.06 24.4758 182.206 31.9681C182.665 32.3896 183.118 32.8299 183.546 33.2829C183.622 33.3647 183.571 33.5723 183.584 33.7736C182.829 34.3209 181.942 34.0755 181.118 34.0755C161.233 34.0755 141.341 34.0504 121.456 34.0378C115.297 34.0315 113.448 35.2771 111.108 40.9262C109.68 44.3672 109.705 44.2477 105.962 43.5683C98.0796 42.1403 90.1596 41.8761 82.3401 43.8388C79.9874 44.4301 78.8739 43.9269 78.3581 41.637C78.119 40.5739 77.6535 39.5674 77.2949 38.5357C81.2896 34.4593 85.6491 30.8106 90.3923 27.6526C103.597 18.8581 118.298 14.4231 133.956 12.7687C135.912 12.5548 137.957 12.4353 139.668 11.2148ZM138.944 18.5121C138.932 20.4749 140.649 22.2677 142.26 22.123C143.65 21.9972 144.858 21.4374 144.921 19.7326C144.984 17.9145 143.581 16.3167 141.851 16.2789C140.108 16.2412 139.014 16.9898 138.944 18.5121ZM132.748 19.4243C133.943 19.4683 134.679 19.0154 134.673 17.7006C134.667 16.5117 134.208 15.7379 132.918 15.7631C131.748 15.7882 131.024 16.4236 130.93 17.6C130.836 18.8518 131.509 19.4432 132.748 19.4243Z" fill="#74CD92"/>
<path d="M161.994 316.896C164.617 313.254 168.002 310.341 171.298 307.366C173.028 305.799 174.903 304.327 176.903 303.126C180.13 301.182 181.697 301.641 183.691 304.894C185.912 308.511 187.692 312.348 189.346 316.255C194.19 327.704 197.474 339.625 199.984 351.754C201.135 357.333 202.054 362.995 202.085 368.739C202.11 373.237 199.833 375.526 195.398 375.715C194.014 375.772 192.574 375.35 191.24 376.074C187.447 376.08 183.647 376.3 179.86 375.954C179.042 373.557 178.803 371.085 178.948 368.563C179.067 368.286 179.13 367.965 179.313 367.738C181.842 364.511 181.219 362.058 177.451 360.41C176.998 358.195 176.608 355.968 176.079 353.767C174.123 345.551 171.443 337.568 168.008 329.849C166.071 325.49 164.001 321.206 161.994 316.896Z" fill="#74CD92"/>
<path d="M156.232 235.827C142.505 233.764 128.729 232.235 114.845 231.738C114.165 227.24 114.883 222.723 114.725 218.225C114.467 210.922 115.424 203.694 115.833 196.434C116.009 193.295 116.977 192.559 120.167 192.528C130.427 192.427 140.681 192.647 150.935 193.069C151.879 193.327 151.885 194.214 152.162 194.912C157.175 207.443 158.283 220.528 157.761 233.858C157.71 235.009 157.289 235.594 156.232 235.827Z" fill="#F1BB7E"/>
<path d="M144.884 283.322C138.542 282.555 132.296 281.152 125.917 280.598C123.124 280.353 120.343 280.001 117.563 279.692C116.846 278.585 115.946 277.591 115.764 276.201C114.354 265.205 114.669 254.158 114.726 243.118C114.732 241.74 115.361 241.149 116.732 241.117C124.508 240.941 132.233 241.753 139.964 242.413C145.563 242.891 151.08 244.282 156.754 244.011C156.635 244.703 156.496 245.389 156.408 246.081C155.144 255.832 152.514 265.205 148.828 274.308C147.595 277.352 145.664 280.089 144.884 283.322Z" fill="#F1BB7E"/>
<path d="M69.06 376.055C63.241 376.042 57.4283 376.023 51.6094 376.011C52.4398 374.274 52.446 372.406 52.509 370.544C52.6536 366.04 53.2009 361.58 54.0942 357.163C55.8242 357.906 57.4598 357.925 58.8249 356.434C60.0453 355.1 59.8125 353.553 59.3344 352.018C58.6865 349.96 56.8307 350.212 55.258 349.948C55.3209 349.086 55.2832 348.205 55.453 347.369C57.9064 335.548 61.0078 323.904 65.2478 312.593C65.9272 310.782 66.053 308.611 67.7201 307.221C69.2927 307.466 69.9973 308.831 70.8654 309.85C74.5518 314.16 78.6094 318.047 83.5162 320.916C85.6362 322.162 85.9255 323.703 85.265 325.842C84.1578 329.427 83.2394 333.063 82.3964 336.725C80.2387 346.104 78.71 355.584 77.6217 365.134C76.7913 372.513 75.659 374.111 69.06 376.055Z" fill="#74CD92"/>
<path d="M178.218 174.461C175.582 174.045 173.619 171.925 170.946 171.605C168.241 171.278 165.712 171.775 163.309 173.052C162.56 173.448 162.371 174.027 162.378 174.769C156.213 167.667 161.522 162.854 167.725 160.533C175.242 157.721 182.093 159.482 188.516 164.219C201.104 173.517 211.106 184.973 218.51 198.743C219.171 199.976 219.416 200.951 218.322 202.115C216.963 203.574 216.277 205.285 217.422 207.261C218.46 209.054 219.655 210.557 222.071 209.909C223.021 209.651 223.342 210.299 223.606 210.972C224.09 212.218 224.581 213.457 224.971 214.734C226.04 218.219 226.028 218.257 222.486 218.515C221.203 218.609 220.234 219.175 219.511 220.163C217.604 222.755 218.416 228.511 220.913 230.53C222.027 231.436 223.254 231.556 224.43 230.927C226.279 229.933 226.707 230.537 226.657 232.424C226.21 249.434 215.793 262.513 198.732 266.174C197.682 266.4 196.637 266.916 195.499 266.621C204.048 262.324 209.37 255.052 212.308 246.377C218.856 227.02 216.007 209.11 202.148 193.61C198.726 189.785 194.756 186.394 190.265 183.714C188.528 182.676 186.603 182.387 184.798 181.664C185.905 177.31 183.093 174.234 178.218 174.461ZM168.492 165.622C168.26 164.2 167.203 163.584 165.901 163.401C164.586 163.213 162.346 165.018 162.566 166.119C162.856 167.553 164.038 168.403 165.41 168.403C167.045 168.403 168.121 167.352 168.492 165.622Z" fill="#74CD92"/>
<path d="M38.8642 262.946C32.2589 261.688 26.6098 258.618 21.791 253.963C21.7785 252.913 21.2941 252.013 20.8789 251.095C17.4944 243.69 15.9217 236.009 17.3875 227.875C18.5953 228.001 19.7214 227.693 20.7656 227.139C22.4075 226.271 23.0932 224.837 22.785 223.038C22.4704 221.201 21.2563 220.251 19.432 219.949C17.5385 219.634 16.5382 220.609 15.7833 222.17C15.4499 222.855 15.5317 223.736 14.8083 224.233C13.0469 222.805 13.8269 220.981 14.2421 219.364C14.6195 217.917 16.035 218.508 17.073 218.483C17.7775 218.471 18.4884 218.565 19.1867 218.489C21.8728 218.2 23.9739 215.942 23.175 213.469C22.3446 210.884 23.4015 209.261 24.7603 207.512C26.0625 205.845 27.2766 204.09 28.7235 202.555C30.9504 200.177 32.7496 197.164 36.9078 197.673C38.7069 197.893 39.6946 196.107 39.1158 194.144C38.7635 192.962 38.9145 192.225 39.9148 191.534C40.6822 190.999 41.3113 190.263 42.0725 189.715C44.5007 187.979 46.6648 185.84 49.8164 184.362C49.4579 186.274 48.6967 188.099 51.1878 188.338C52.88 188.501 54.1256 187.551 54.1319 185.991C54.1445 183.557 52.2195 183.72 50.3574 183.934C51.7225 182.852 53.031 181.858 54.4779 181.154C57.7491 179.556 60.668 177.134 64.4739 176.744C62.5615 180.757 60.6491 184.765 58.743 188.784C57.7743 190.835 56.8306 192.899 55.8807 194.956C51.8987 197.868 48.9735 201.725 46.2684 205.757C39.2605 216.2 34.4292 227.397 35.6496 240.306C36.3668 247.911 38.6943 255.02 44.6391 260.367C45.7966 261.411 47.1932 262.191 48.5268 263.135C48.0173 263.399 47.6839 263.582 47.3442 263.758C46.8849 263.764 46.432 263.764 45.9728 263.77C43.6326 263.273 41.2736 262.89 38.8642 262.946ZM28.4593 247.087C28.5222 249.126 30.0571 250.786 31.5543 250.541C33.2465 250.264 34.4418 249.232 34.5173 247.433C34.5928 245.659 33.1648 244.42 31.3153 244.433C29.3651 244.445 28.5222 245.54 28.4593 247.087Z" fill="#74CD92"/>
<path d="M104.427 194.006C103.93 199.466 102.773 204.832 102.44 210.324C102.106 215.803 101.685 221.276 101.609 226.768C101.559 230.53 100.508 231.6 96.7401 231.908C88.3671 232.587 80.057 233.72 71.7783 235.104C71.0171 235.229 70.2308 235.204 69.457 235.248C69.5199 230.329 69.6206 225.447 70.344 220.528C71.6022 212.004 73.5397 203.694 76.4083 195.591C76.6725 194.849 77.0877 194.05 78.1698 193.924C86.9265 192.892 95.677 192.119 104.427 194.006Z" fill="#F1BB7E"/>
<path d="M69.0589 376.055C75.6579 374.111 76.7903 372.513 77.6332 365.121C78.7215 355.572 80.2502 346.092 82.4079 336.712C83.2509 333.051 84.1693 329.415 85.2765 325.829C85.9371 323.69 85.6477 322.149 83.5277 320.903C78.6209 318.028 74.5696 314.141 70.8769 309.838C70.0025 308.819 69.298 307.447 67.7253 307.208C66.5678 304.352 64.5107 302.27 62.0195 300.559C62.5668 298.93 63.0072 296.728 64.5547 296.357C65.7374 296.074 66.486 298.319 67.3667 299.471C76.048 310.819 87.0128 319.431 99.3993 326.364C100.418 326.936 101.519 327.421 102.645 327.723C104.507 328.22 104.709 329.415 104.256 330.969C101.28 341.078 99.5 351.42 98.1726 361.85C97.6505 365.97 97.2919 370.11 96.9585 374.249C96.8641 375.469 96.6062 376.117 95.2097 376.111C86.4906 376.055 77.7716 376.061 69.0589 376.055Z" fill="#74CD92"/>
<path d="M101.414 241.174C101.684 249.245 101.609 257.335 102.54 265.375C102.911 268.57 103.332 271.76 103.729 274.949C104.125 278.12 103.163 279.573 99.9794 279.976C92.506 280.919 85.1332 282.36 77.7604 283.851C77.2194 282.637 76.6784 281.422 76.1499 280.202C73.7091 274.572 72.7152 268.545 71.5451 262.6C70.6455 258.014 70.2303 253.328 69.9724 248.648C69.878 246.974 70.4757 246.1 72.1993 245.678C74.0362 245.232 75.9298 245.181 77.7289 244.722C85.5043 242.74 93.4936 242.187 101.414 241.174Z" fill="#F1BB7E"/>
<path d="M261.496 239.583C260.363 246.528 259.218 253.435 257.205 260.242C255.337 266.583 253.173 272.735 250.166 278.586C247.549 283.687 244.378 288.456 240.83 292.979C239.698 294.426 239.019 293.885 238.622 292.62C236.987 287.374 234.892 282.303 232.866 277.208C232.514 276.315 232.753 275.541 233.112 274.723C238.113 263.381 241.283 251.529 242.881 239.249C243.384 235.362 243.686 231.449 243.718 227.523C243.724 226.617 243.63 225.397 244.422 224.906C245.41 224.302 246.089 225.479 246.8 225.995C251.33 229.241 255.872 232.474 259.904 236.343C260.829 237.224 261.76 238.104 261.496 239.583Z" fill="#B66740"/>
<path d="M64.4744 176.738C60.6684 177.128 57.7495 179.55 54.4783 181.147C53.0314 181.852 51.723 182.846 50.3579 183.928C52.2199 183.72 54.1449 183.551 54.1323 185.985C54.126 187.551 52.8742 188.495 51.1883 188.332C48.6971 188.092 49.4583 186.274 49.8169 184.356C46.6652 185.834 44.5012 187.973 42.0729 189.709C41.3117 190.257 40.6827 190.993 39.9152 191.527C38.9212 192.219 38.764 192.955 39.1162 194.138C39.695 196.101 38.7136 197.887 36.9082 197.667C32.75 197.157 30.9571 200.164 28.7239 202.549C27.2833 204.09 26.0629 205.839 24.7607 207.506C23.3956 209.255 22.3388 210.878 23.1754 213.463C23.9744 215.929 21.8732 218.194 19.1871 218.483C18.4888 218.559 17.7779 218.464 17.0734 218.477C16.0354 218.496 14.6137 217.911 14.2425 219.358C13.8273 220.974 13.0473 222.792 14.8087 224.227C14.8653 225.145 15.3623 225.85 15.9285 226.517C15.897 226.787 16.0228 226.913 16.287 226.9C16.6519 227.221 17.023 227.542 17.3879 227.869C15.9222 236.003 17.5011 243.684 20.8793 251.088C21.3008 252.007 21.7852 252.906 21.7915 253.957C21.6845 253.957 21.6027 253.913 21.5398 253.825C21.4958 253.548 21.3448 253.416 21.0617 253.454C9.17216 242.665 6.17146 224.384 14.0601 209.053C19.6589 198.177 28.2835 189.999 38.3236 183.223C47.9611 176.719 58.4541 171.976 69.4252 168.232C69.6957 168.138 70.0165 168.176 70.8784 168.107C68.0538 170.875 66.9215 174.265 64.4744 176.738Z" fill="#FCF8E6"/>
<path d="M261.49 227.102C258.351 225.271 256.105 222.931 253.513 221.05C250.531 218.88 247.663 216.559 244.725 214.325C243.41 213.325 242.674 212.067 242.372 210.419C240.743 201.524 238.377 192.83 235.15 184.369C233.861 180.978 234.131 180.582 237.641 179.619C240.214 178.908 242.831 178.355 245.385 177.594C247.052 177.097 248.002 177.631 248.82 179.097C254.853 189.911 258.766 201.442 260.622 213.671C261.276 217.987 261.943 222.327 261.49 227.102Z" fill="#B66740"/>
<path d="M144.883 283.322C145.663 280.089 147.594 277.352 148.827 274.307C152.514 265.198 155.143 255.825 156.408 246.081C156.496 245.389 156.64 244.697 156.754 244.011C156.879 243.502 157.011 242.986 157.137 242.476C160.528 242.464 163.755 243.439 167.007 244.206C168.807 244.634 168.259 246.175 168.008 247.333C167.177 251.088 166.542 254.869 166.089 258.688C165.466 263.978 166.932 268.507 170.952 272.011C172.512 273.37 172.625 274.238 171.153 275.742C168.247 278.711 165.491 281.825 162.761 284.964C161.251 286.7 159.622 287.317 157.345 286.619C153.237 285.36 148.934 284.801 144.883 283.322Z" fill="#F1BB7E"/>
<path d="M47.3501 263.746C47.6898 263.569 48.0295 263.387 48.5328 263.123C47.1928 262.185 45.8026 261.399 44.6451 260.355C38.7003 255.008 36.3727 247.899 35.6556 240.294C34.4351 227.385 39.2665 216.187 46.2744 205.745C48.9794 201.712 51.9109 197.856 55.8867 194.943C54.6789 199.712 53.3578 204.455 52.2884 209.255C50.8918 215.502 49.4953 221.824 49.4198 228.209C49.3569 233.198 49.5141 238.224 49.6714 243.231C49.8413 248.459 49.9797 253.674 51.0868 258.832C51.9487 262.903 51.0491 263.897 47.3501 263.746ZM47.1362 241.74C47.0733 240.111 45.2427 238.727 43.2359 238.796C41.6066 238.853 39.9144 240.539 39.9081 242.118C39.9018 243.684 42.0407 245.811 43.6071 245.804C45.2993 245.785 47.2054 243.59 47.1362 241.74Z" fill="#74CD92"/>
<path d="M225.833 178.839C227.185 180.147 227.582 181.953 228.261 183.601C235.043 200.007 238.735 217.03 237.364 234.821C236.219 249.679 232.08 263.777 224.977 276.962C221.914 282.643 218.372 288.003 214.616 293.23C214.208 293.803 213.711 294.306 213.264 294.853C212.201 296.143 211.364 295.954 210.735 294.463C210.672 294.319 210.641 294.149 210.546 294.036C207.206 289.965 207.646 286.134 210.615 281.894C212.471 279.252 213.679 276.069 214.642 272.899C215.183 271.112 216.265 269.873 217.774 268.696C230.142 259.09 235.76 246.219 236.276 230.725C236.798 214.91 231.281 201.052 223.191 187.929C222.247 186.4 221.348 184.84 220.429 183.299C221.209 182.582 220.618 182.104 220.14 181.601C220.24 181.311 220.341 181.028 220.442 180.739C222.404 179.833 221.234 178.229 221.19 176.939C221.171 176.448 220.303 176.021 221.247 175.486C222.027 175.046 222.36 175.605 222.813 176.008C223.593 176.713 223.946 177.946 225.267 177.971L225.235 177.939C225.38 178.399 224.984 178.94 225.462 179.342C225.575 179.179 225.707 179.009 225.833 178.839Z" fill="#B66740"/>
<path d="M104.427 194.006C95.6764 192.119 86.9259 192.892 78.1629 193.93C77.0809 194.056 76.6657 194.861 76.4015 195.597C73.5329 203.7 71.5953 212.01 70.3372 220.534C69.6137 225.447 69.5131 230.335 69.4502 235.255C67.0597 236.028 64.6251 236.689 62.1277 236.928C59.5296 237.18 58.5357 236.129 58.5671 233.512C58.7244 220.333 61.4106 207.638 65.8833 195.283C66.9779 192.263 68.6638 190.615 72.1741 190.42C81.6731 189.898 91.1596 189.344 100.678 189.395C104.012 189.414 105.043 190.785 104.427 194.006Z" fill="#FCF8E6"/>
<path d="M101.413 241.174C93.4932 242.187 85.5039 242.741 77.7222 244.722C75.9231 245.181 74.0296 245.232 72.1926 245.678C70.4753 246.1 69.8776 246.974 69.9657 248.648C70.2299 253.328 70.6388 258.015 71.5384 262.601C72.7022 268.552 73.6961 274.578 76.1432 280.202C76.6717 281.423 77.219 282.637 77.7537 283.851C77.5524 283.977 77.3637 284.128 77.1498 284.216C70.4186 286.858 69.2611 286.405 66.4743 279.73C62.0268 269.042 59.7621 257.864 58.9757 246.339C58.8185 244.011 59.7684 243.061 61.8632 242.652C73.7528 240.337 85.7807 239.073 97.8338 237.991C100.243 237.771 101.218 238.752 101.413 241.174Z" fill="#FCF8E6"/>
<path d="M62.0201 300.565C64.5113 302.277 66.5684 304.359 67.7259 307.215C66.0588 308.605 65.933 310.775 65.2536 312.587C61.0136 323.898 57.9123 335.542 55.4589 347.362C55.2827 348.199 55.3205 349.08 55.2638 349.942C52.2568 352.835 52.0618 354.05 54.1 357.164C53.2068 361.58 52.6595 366.04 52.5148 370.544C52.4519 372.406 52.4456 374.274 51.6152 376.011C45.337 376.363 45.3433 376.363 45.6578 370.273C46.8279 347.822 51.1056 326.043 59.7492 305.214C60.4034 303.623 61.2527 302.113 62.0201 300.565Z" fill="#FCF8E6"/>
<path d="M156.232 235.827C157.289 235.594 157.71 235.009 157.754 233.858C158.277 220.528 157.163 207.443 152.156 194.912C151.879 194.214 151.872 193.327 150.923 193.069C150.797 192.031 150.325 191.037 150.558 189.955C153.301 189.546 156.037 189.779 158.742 190.238C160.29 190.502 161.107 191.735 161.736 193.012C167.033 203.782 170.342 215.074 170.386 227.171C170.393 229.599 170.166 232.034 169.99 234.456C169.833 236.651 168.619 237.739 166.41 237.544C162.976 237.242 159.598 236.576 156.232 235.827Z" fill="#F1BB7E"/>
<path d="M139.667 11.215C137.956 12.4354 135.911 12.5549 133.949 12.7625C118.291 14.417 103.589 18.852 90.3851 27.6465C85.6419 30.8045 81.2824 34.4594 77.2878 38.5296C75.2181 35.0445 72.2992 33.239 67.9082 34.1512C77.9231 20.5883 108.396 5.44008 139.667 11.215Z" fill="#FCF8E6"/>
<path d="M154.023 44.99C159.76 44.9334 159.729 44.9208 157.672 49.5949C151.224 64.2587 144.794 78.9288 138.365 93.5988C137 96.7128 136.767 96.8071 133.716 95.3351C128.715 92.9194 128.759 92.9383 131.043 87.8176C136.767 74.9907 142.523 62.1764 148.091 49.274C149.443 46.1412 150.733 43.6438 154.023 44.99Z" fill="#FCF8E6"/>
<path d="M85.5488 163.697C85.9137 162.445 86.7692 162.149 87.9267 162.527C92.8084 164.144 97.6837 165.829 102.792 166.572C105.918 167.025 109.07 167.427 112.222 167.616C118.739 168.012 125.275 167.887 131.773 167.49C135.542 167.264 139.259 166.119 142.965 165.238C144.405 164.892 145.229 165.2 146.129 166.383C149.847 171.271 153.068 176.467 156.182 181.739C157.276 183.595 157.006 184.098 154.867 184.123C152.042 184.161 149.218 184.06 146.387 184.022C144.764 179.845 142.248 176.228 139.178 173.02C137.353 171.114 135.17 170.743 132.566 171.642C130.226 172.454 127.672 172.623 125.288 173.334C122.155 174.265 118.5 173.926 116.153 176.889C115.65 177.26 115.147 177.631 114.644 178.002C112.788 178.034 111.033 177.14 109.152 177.417C110.599 176.826 110.687 175.995 109.649 174.876C108.441 173.573 106.931 172.818 105.289 172.221C100.735 170.573 96.1928 168.874 91.6446 167.195C89.7825 165.735 87.348 165.276 85.5488 163.697Z" fill="#F1BB7E"/>
<path d="M49.6352 44.9774C55.3975 44.9711 55.2843 44.9208 53.0762 49.7521C47.0119 63.0319 41.0923 76.3684 35.0406 89.6545C32.9017 94.3411 33.7006 93.8882 29.6305 90.9441C29.3789 90.7617 29.1398 90.5478 28.9008 90.3465C26.0888 87.9685 26.1706 88.0063 27.6552 84.7477C33.059 72.8958 38.469 61.0503 43.7155 49.1293C45.0429 46.116 46.3451 43.7255 49.6352 44.9774Z" fill="#FCF8E6"/>
<path d="M81.8001 289.028C88.2481 287.336 94.8409 286.455 101.427 285.568C103.818 285.247 105.133 286.506 105.812 289.462C107.334 296.042 109.442 302.415 112.153 308.599C108.221 309.857 104.415 309.31 100.672 307.8C100.345 307.227 99.7477 307.347 99.2381 307.24L99.257 307.297C94.0042 304.17 88.9653 300.729 85.2663 295.778C83.7691 293.771 81.1459 292.186 81.8001 289.028Z" fill="#F1BB7E"/>
<path d="M161.995 316.896C164.001 321.205 166.071 325.489 168.009 329.836C171.437 337.555 174.117 345.538 176.08 353.754C176.602 355.949 176.998 358.183 177.451 360.397C174.287 360.913 172.607 362.687 172.884 365.222C173.154 367.726 174.878 368.789 178.25 368.537C178.483 368.518 178.715 368.543 178.948 368.55C178.804 371.066 179.043 373.538 179.86 375.941C172.563 376.835 172.475 376.847 171.443 369.808C169.154 354.207 164.442 339.317 158.516 324.766C158.189 323.967 157.912 323.156 157.61 322.35C157.629 322.275 157.685 322.187 157.667 322.13C157.61 321.998 157.509 321.885 157.428 321.765C157.453 321.665 157.44 321.57 157.402 321.47C159.076 320.092 159.9 317.852 161.995 316.896Z" fill="#FCF8E6"/>
<path d="M140.259 288.462C144.951 289.399 149.581 290.563 154.174 291.903C155.4 292.262 155.753 292.67 154.746 293.79C150.192 298.873 145.511 303.855 141.58 309.461C141.101 310.14 140.435 310.505 139.592 310.568C133.943 310.958 128.3 310.725 122.657 310.486C121.21 310.423 120.329 309.31 119.656 308.102C119.782 307.963 119.908 307.831 120.034 307.693L120.021 307.699C120.21 307.573 120.405 307.454 120.594 307.328C120.694 307.259 120.789 307.19 120.877 307.108C126.821 303.937 131.911 299.697 136.264 294.589C137.855 292.746 140.026 291.224 140.259 288.462Z" fill="#F1BB7E"/>
<path d="M157.137 242.47C157.011 242.98 156.879 243.495 156.753 244.005C151.079 244.269 145.568 242.885 139.963 242.407C132.232 241.747 124.513 240.935 116.731 241.111C115.354 241.143 114.731 241.728 114.725 243.112C114.668 254.152 114.36 265.199 115.763 276.195C115.939 277.585 116.845 278.585 117.562 279.686C113.662 279.768 111.743 278.403 111.208 274.628C109.673 263.815 109.138 252.925 109.113 242.017C109.107 239.255 110.711 237.903 113.724 237.959C124.482 238.154 135.176 239.18 145.839 240.526C148.72 240.891 151.601 241.243 154.476 241.627C155.407 241.747 156.363 241.835 157.137 242.47Z" fill="#FCF8E6"/>
<path d="M224.436 150.128C230.016 153.732 234.199 158.74 238.282 163.848C239.647 165.553 241.038 167.238 242.428 168.924C243.459 170.17 243.359 170.981 241.629 171.334C238.861 171.9 236.093 172.472 233.344 173.114C231.255 173.598 230.066 172.365 229.041 170.931C225.197 165.565 221.184 160.338 216.78 155.412C215.629 154.122 214.465 152.845 213.239 151.631C212.213 150.612 212.188 149.933 213.71 149.543C215.107 149.19 216.34 148.53 217.378 147.523C219.429 148.618 221.838 148.939 223.681 150.486C223.946 150.713 224.235 150.373 224.436 150.128Z" fill="#B66740"/>
<path d="M91.6446 167.088C96.1928 168.78 100.728 170.485 105.289 172.145C106.931 172.743 108.441 173.504 109.649 174.819C110.687 175.945 110.599 176.775 109.152 177.373C107.554 177.801 107.088 179.147 106.617 180.506C105.874 182.638 104.421 183.972 102.119 184.041C95.5512 184.23 88.9773 184.35 82.4035 184.482C82.1896 184.488 81.9694 184.343 81.7492 184.268C81.5982 182.953 82.1141 181.871 82.7054 180.72C85.2029 175.838 88.3105 171.391 91.6446 167.088Z" fill="#F1BB7E"/>
<path d="M150.556 189.955C150.324 191.037 150.802 192.031 150.921 193.069C140.674 192.647 130.413 192.421 120.153 192.528C116.964 192.559 115.995 193.295 115.819 196.434C115.416 203.694 114.46 210.922 114.712 218.226C114.869 222.723 114.152 227.24 114.831 231.738C110.553 231.921 109.044 230.537 109.207 226.341C109.616 215.596 110.421 204.883 112.007 194.245C112.529 190.735 114.07 189.294 117.662 189.294C127.545 189.282 137.434 189.338 147.317 189.414C148.411 189.426 149.481 189.766 150.556 189.955Z" fill="#FCF8E6"/>
<path d="M140.259 288.462C140.026 291.217 137.849 292.74 136.264 294.602C131.904 299.71 126.821 303.95 120.877 307.12C120.185 304.17 119.361 301.245 118.845 298.263C118.115 294.073 116.731 289.959 117.152 285.612C124.922 286.027 132.634 286.914 140.259 288.462Z" fill="#F1BB7E"/>
<path d="M144.555 44.9585C137.919 59.8551 131.401 74.4937 124.777 89.3714C123.129 87.5156 122.116 85.7794 121.217 83.955C120.739 82.9925 120.965 82.1684 121.368 81.2689C126.457 69.9706 131.559 58.6724 136.579 47.3427C137.39 45.5058 138.434 44.6314 140.498 44.9271C141.712 45.1032 142.976 44.9585 144.555 44.9585Z" fill="#FCF8E6"/>
<path d="M116.152 176.889C118.499 173.926 122.154 174.272 125.287 173.335C127.671 172.624 130.225 172.454 132.565 171.642C135.169 170.743 137.352 171.114 139.177 173.02C142.246 176.235 144.763 179.845 146.386 184.023C137.113 184.016 127.841 184.01 118.568 183.997C118.102 181.909 117.587 179.833 117.203 177.725C117.071 177.015 116.75 176.864 116.152 176.889Z" fill="#F1BB7E"/>
<path d="M22.5958 82.8732C22.47 82.7223 22.4071 82.6719 22.3693 82.6027C19.1044 76.3308 19.073 70.3672 22.8034 64.0324C25.9362 58.7167 28.1065 52.8285 30.6228 47.1605C31.3463 45.5312 32.2647 44.6505 34.1834 44.9021C35.4919 45.0783 36.8633 44.9965 38.1843 44.8581C39.908 44.682 40.015 45.2607 39.367 46.6698C36.0518 53.8728 32.7869 61.1009 29.5157 68.3227C27.6347 72.4683 25.7726 76.6202 23.8917 80.7721C23.5835 81.483 23.3633 82.2568 22.5958 82.8732Z" fill="#FCF8E6"/>
<path d="M233.275 300.93C233.313 301.848 232.929 302.415 232.376 302.899C228.891 305.956 225.387 308.982 221.656 311.744C220.499 312.599 219.863 312.65 219.266 311.115C218.297 308.63 217.165 306.202 215.944 303.83C215.372 302.717 215.586 301.955 216.284 301.075C219.851 296.589 223.141 291.909 226.211 287.071C227.022 285.794 227.601 285.461 228.406 287.084C230.507 291.336 231.803 295.866 233.2 300.364C233.275 300.59 233.269 300.836 233.275 300.93Z" fill="#B66740"/>
<path d="M149.412 334.158C151.909 333.988 152.255 335.309 152.073 336.58C151.349 341.613 150.311 346.589 148.764 351.439C148.128 353.439 146.675 353.081 145.373 352.332C142.693 350.791 140.561 348.577 138.56 346.274C136.251 343.613 134.289 340.682 132.785 337.473C132.37 336.593 132.137 335.624 133.521 335.655C139.101 335.775 144.599 335.121 149.412 334.158Z" fill="#447F59"/>
<path d="M220.435 180.745C220.334 181.034 220.234 181.317 220.133 181.607C219.818 181.663 219.567 181.783 219.554 182.16C214.534 175.549 209.13 169.277 203.022 163.64C203.085 163.401 202.997 163.313 202.758 163.376C201.745 162.407 200.732 161.445 199.719 160.476C197.662 157.563 194.643 155.607 192.277 152.996C192.68 151.323 193.145 149.669 193.976 148.14C195.272 145.768 196.19 145.598 198.323 147.36C198.669 147.643 199.04 147.895 199.399 148.159C197.864 149.14 197.379 150.065 198.952 151.631C204.45 157.085 209.797 162.684 214.201 169.101C216.711 172.762 219.07 176.48 220.435 180.745Z" fill="#FCF8E6"/>
<path d="M91.6431 167.201C88.309 171.479 85.2014 175.901 82.7102 180.739C82.1189 181.89 81.5968 182.959 81.754 184.268C78.9169 184.941 76.0043 184.815 73.1231 184.985C71.7203 185.067 70.6949 184.513 71.6385 182.865C75.457 176.209 79.5208 169.724 84.6981 164.018C84.8806 163.817 85.2643 163.804 85.5537 163.697C87.3465 165.276 89.7811 165.735 91.6431 167.201Z" fill="#FCF8E6"/>
<path d="M189.446 218.238C186.816 217.439 185.344 215.376 183.828 213.268C181.821 210.475 180.123 207.342 176.744 205.839C175.26 201.14 173.7 196.466 171.429 192.062C171.253 191.716 170.988 191.207 171.36 190.747C174.574 192.169 176.914 194.723 179.355 197.082C184.098 201.668 188.181 206.808 191.534 212.513C192.27 213.765 192.635 215.08 192.534 216.527C191.314 216.741 190.515 217.722 189.446 218.238Z" fill="#FCF8E6"/>
<path d="M69.2798 139.459C71.3432 142.032 73.9538 143.976 76.596 145.888C77.1244 146.272 77.6276 146.58 77.4389 147.341C70.3178 143.73 63.9075 139.132 58.2206 133.545C51.4706 126.915 46.2996 119.247 43.1605 110.263C41.7702 106.281 41.7451 106.294 45.9347 106.413C46.9601 107.577 47.0545 109.137 47.6207 110.49C52.3891 121.983 60.0198 131.325 69.2798 139.459Z" fill="#FCF8E6"/>
<path d="M105.849 68.5426C105.044 67.1523 105.422 65.6174 105.466 64.1705C105.516 62.3965 104.899 61.4151 103.163 60.9308C96.8661 59.1693 90.6445 59.3644 84.4481 61.4277C83.5737 61.7171 83.0579 62.4343 82.3281 62.8809C82.3344 61.8618 82.3281 60.8427 82.3407 59.8236C82.3847 54.8539 83.4542 53.6775 88.4365 53.0295C93.381 52.3879 98.2878 52.6458 103.182 53.5139C105.013 53.8348 106.088 54.6085 105.988 56.7851C105.793 60.6917 105.881 64.6172 105.849 68.5426Z" fill="#74CD92"/>
<path d="M141.513 325.697C135.675 324.961 130.183 323.3 125.547 319.469C124.779 318.834 123.672 317.934 124.169 316.99C124.603 316.16 125.968 316.387 127.006 316.449C132.334 316.758 137.669 316.871 142.991 316.493C144.186 316.405 144.972 316.607 145.482 317.689C146.281 319.394 147.061 321.105 147.891 322.791C148.476 323.967 148.023 324.514 146.866 324.81C145.117 325.25 143.362 325.665 141.513 325.697Z" fill="#F1BB7E"/>
<path d="M220.435 180.745C219.07 176.486 216.711 172.762 214.208 169.107C209.804 162.684 204.457 157.091 198.959 151.637C197.38 150.071 197.864 149.14 199.405 148.165C204.123 151.184 207.961 155.192 211.716 159.268C216.227 164.162 220.542 169.22 223.814 175.07C224.342 176.02 225.072 176.87 225.26 177.989C223.939 177.964 223.587 176.731 222.807 176.027C222.354 175.618 222.021 175.058 221.241 175.504C220.303 176.039 221.171 176.461 221.184 176.958C221.222 178.235 222.398 179.833 220.435 180.745Z" fill="#B66740"/>
<path d="M224.436 150.128C224.235 150.373 223.946 150.713 223.675 150.486C221.832 148.939 219.423 148.612 217.372 147.523C215.208 144.271 214.321 143.856 211.056 144.554C209.917 144.592 208.886 144.573 207.873 143.724C206.979 142.982 205.784 142.459 204.482 142.686C201.569 140.987 198.688 139.226 195.732 137.622C194.568 136.993 194.473 136.59 195.341 135.577C197.713 132.822 197.688 132.746 200.903 134.357C208.596 138.213 215.925 142.661 222.65 148.052C223.361 148.631 224.292 149.052 224.436 150.128Z" fill="#FCF8E6"/>
<path d="M81.7992 289.028C81.1513 292.192 83.7682 293.771 85.2654 295.778C88.9644 300.729 94.0096 304.17 99.2561 307.296C95.771 307.435 92.915 305.585 89.8829 304.302C85.8064 301.836 81.7237 299.37 77.6473 296.91C76.1878 295.715 75.175 294.136 73.9798 292.714C72.8789 291.406 73.4199 290.846 74.8227 290.55C77.1503 290.047 79.4716 289.531 81.7992 289.028Z" fill="#FCF8E6"/>
<path d="M103.105 317.418C107.232 316.632 111.271 316.676 115.303 316.682C115.813 316.682 116.184 316.959 116.461 317.381C119.575 322.099 124.066 324.93 129.47 326.716C123.393 327.396 107.188 321.702 103.105 317.418Z" fill="#F1BB7E"/>
<path d="M89.883 304.302C92.9152 305.586 95.7712 307.429 99.2563 307.297L99.2374 307.24C99.5394 307.875 100.175 307.662 100.672 307.8C104.415 309.31 108.221 309.851 112.152 308.599C113.354 310.209 113.027 311.021 110.951 311.21C107.233 311.556 103.515 311.927 99.8161 312.461C95.3623 313.109 92.3175 310.713 89.3672 307.982C89.2476 307.46 88.8513 307.303 88.3795 307.24L88.411 307.278C88.3984 306.177 87.4925 305.774 86.8383 305.139C86.4608 304.774 85.5613 304.434 86.0582 303.736C86.3916 303.264 87.0396 303.554 87.4799 303.956C88.1971 304.617 89.0463 304.416 89.883 304.302Z" fill="#F1BB7E"/>
<path d="M117.153 285.618C116.731 289.965 118.115 294.079 118.845 298.269C119.361 301.251 120.191 304.176 120.877 307.126C120.789 307.208 120.695 307.277 120.594 307.347C120.405 307.472 120.21 307.592 120.021 307.718L120.034 307.711C119.864 307.705 119.694 307.699 119.525 307.693C117.656 305.39 116.964 302.54 116.046 299.835C114.901 296.438 113.945 292.966 113.089 289.481C112.133 285.599 113.259 284.599 117.153 285.618Z" fill="#FCF8E6"/>
<path d="M89.8825 304.302C89.0458 304.415 88.1965 304.616 87.4731 303.949C87.039 303.547 86.3848 303.257 86.0514 303.729C85.5544 304.428 86.454 304.767 86.8314 305.132C87.4857 305.768 88.3978 306.17 88.4041 307.271C84.2963 304.352 80.5218 301.093 77.6406 296.904C81.7233 299.37 85.8061 301.836 89.8825 304.302Z" fill="#F1BB7E"/>
<path d="M183.652 146.334C185.049 145.108 186.458 143.881 187.848 142.648C188.66 141.931 189.44 141.83 190.339 142.547C191.308 143.321 190.805 144.045 190.365 144.774C189.61 146.032 188.823 147.278 188.05 148.53C186.804 147.347 185.074 147.152 183.652 146.334Z" fill="#FCF8E6"/>
<path d="M183.653 146.334C185.075 147.152 186.811 147.347 188.05 148.53C187.711 149.832 187.094 151.48 185.792 151.317C184.106 151.109 182.508 150.021 180.923 149.209C180.439 148.964 180.841 148.517 181.131 148.303C181.986 147.662 182.502 146.592 183.653 146.334Z" fill="#B66740"/>
<path d="M116.154 176.889C116.752 176.864 117.079 177.015 117.211 177.738C117.595 179.839 118.11 181.921 118.576 184.01C114.833 183.928 113.852 182.431 114.644 178.009C115.147 177.631 115.651 177.26 116.154 176.889Z" fill="#FCF8E6"/>
<path d="M192.277 152.996C194.642 155.607 197.662 157.563 199.719 160.476C196.863 159.293 194.649 157.148 192.176 155.406C191.183 154.701 191.503 153.77 192.277 152.996Z" fill="#B66740"/>
<path d="M194.73 47.0723C192.793 45.638 189.339 45.3109 190.616 41.2722C192.334 43.128 193.976 44.7762 194.73 47.0723Z" fill="#447F59"/>
<path d="M204.482 142.692C205.785 142.466 206.98 142.988 207.873 143.73C208.886 144.573 209.918 144.598 211.056 144.56C208.043 146.422 206.181 145.894 204.482 142.692Z" fill="#B66740"/>
<path d="M38.8633 262.947C41.2726 262.884 43.6317 263.274 45.9781 263.758C43.5499 264.01 41.1657 263.827 38.8633 262.947Z" fill="#74CD92"/>
<path d="M219.555 182.16C219.561 181.783 219.819 181.663 220.133 181.607C220.612 182.104 221.203 182.588 220.423 183.305C220.133 182.921 219.844 182.538 219.555 182.16Z" fill="#F1BB7E"/>
<path d="M225.831 178.839C225.699 179.009 225.573 179.178 225.441 179.354C224.969 178.952 225.359 178.405 225.215 177.952C225.63 178.103 225.724 178.474 225.831 178.839Z" fill="#B66740"/>
<path d="M133.703 106.25C133.156 106.388 132.672 106.338 132.332 105.816C132.867 105.702 133.357 105.74 133.703 106.25Z" fill="#447F59"/>
<path d="M88.3789 307.234C88.8507 307.297 89.2407 307.454 89.3666 307.976C89.0394 307.731 88.706 307.486 88.3789 307.234Z" fill="#F1BB7E"/>
<path d="M119.519 307.686C119.689 307.693 119.859 307.699 120.028 307.705C119.903 307.844 119.777 307.976 119.651 308.114C119.525 308.001 119.481 307.856 119.519 307.686Z" fill="#F1BB7E"/>
<path d="M21.0625 253.466C21.3456 253.429 21.4966 253.567 21.5406 253.837C21.2638 253.863 21.0877 253.762 21.0625 253.466Z" fill="#74CD92"/>
<path d="M202.759 163.37C202.998 163.307 203.086 163.395 203.023 163.634C202.777 163.697 202.696 163.609 202.759 163.37Z" fill="#B66740"/>
<path d="M157.421 321.765C157.503 321.885 157.597 321.998 157.66 322.13C157.685 322.187 157.629 322.275 157.604 322.35C157.346 322.212 157.283 322.023 157.421 321.765Z" fill="#447F59"/>
<path d="M170.883 190.269C171.065 190.439 171.248 190.615 171.43 190.785C170.908 190.968 170.996 190.515 170.883 190.269Z" fill="#FCF8E6"/>
<path d="M89.0911 119.511C83.1023 119.492 77.9753 115.661 76.4467 110.062C75.805 107.722 76.4781 105.721 78.1515 104.96C80.1394 104.054 81.7938 104.715 83.1967 106.967C86.5937 112.421 91.7584 112.484 95.3379 107.111C97.0238 104.576 98.3071 104.016 100.295 104.935C102.214 105.822 102.868 107.835 102.082 110.414C100.452 115.755 95.0611 119.529 89.0911 119.511Z" fill="#31080B"/>
<path d="M73.0412 96.6938C73.1545 94.7311 74.9977 93.1836 77.0799 93.3031C79.2188 93.4289 80.9424 95.2721 80.8229 97.304C80.6971 99.424 78.8476 100.997 76.671 100.827C74.5825 100.67 72.9217 98.7698 73.0412 96.6938Z" fill="#31080B"/>
<path d="M98.0497 93.3222C100.176 93.2781 101.906 94.8886 101.893 96.9016C101.881 99.0593 100.189 100.77 98.0182 100.814C96.0492 100.852 94.3444 99.116 94.3129 97.04C94.2815 94.9892 95.9108 93.3725 98.0497 93.3222Z" fill="#31080B"/>
<path d="M172.33 134.092C172.349 131.891 175.859 127.852 178.048 127.544C179.382 127.355 180.546 127.739 181.357 128.852C182.112 129.89 181.779 130.941 181.225 131.935C179.967 134.193 178.294 136.005 175.689 136.659C173.953 137.093 172.318 135.797 172.33 134.092Z" fill="#31080B"/>
<path d="M193.549 224.78C196.398 229.278 195.656 234.242 195.266 239.111C195.159 240.463 194.845 241.847 194.373 243.206C193.253 246.427 191.208 248.088 187.786 248.025C187.667 248.031 187.56 248.006 187.459 247.937C184.76 245.383 184.88 242.288 185.371 238.909C185.842 235.67 185.698 232.348 185.956 229.071C186.27 225.133 187.39 224.17 191.259 224.195C191.913 224.812 192.762 224.661 193.549 224.78Z" fill="#FCF8E6"/>
<path d="M187.459 247.937C187.56 248.006 187.667 248.031 187.786 248.025C191.422 250.201 192.114 253.359 189.315 255.385C187.868 256.436 186.239 257.235 184.546 255.674C183.043 254.284 182.867 252.586 183.477 250.768C184.106 248.887 185.723 248.302 187.459 247.937Z" fill="#31080B"/>
<path d="M193.548 224.78C192.768 224.667 191.919 224.812 191.264 224.195C188.893 222.748 189.346 220.44 189.453 218.238C190.516 217.728 191.321 216.747 192.548 216.527C196.196 218.1 197.109 220.27 195.593 223.101C195.077 224.063 193.963 223.919 193.548 224.78Z" fill="#447F59"/>
<path d="M178.47 183.072C178.477 185.318 176.092 186.853 174.438 185.784C172.922 184.802 171.72 183.406 171.192 181.6C170.795 180.248 171.28 179.053 172.368 178.285C173.45 177.518 174.608 177.832 175.576 178.688C177.011 179.946 178.168 181.387 178.47 183.072Z" fill="#FCF8E6"/>
<path d="M178.217 174.46C183.093 174.234 185.905 177.31 184.798 181.663C183.42 181.387 181.986 181.261 180.677 180.795C177.305 179.587 176.569 177.562 178.217 174.46Z" fill="#FCF8E6"/>
<path d="M201.795 329.899C200.845 330.013 200.059 329.56 199.448 328.767C197.863 326.71 196.454 324.552 195.504 322.118C195.013 320.859 194.837 319.67 196.146 318.765C197.379 317.909 198.769 317.783 199.876 318.714C202.481 320.903 204.066 323.804 204.569 327.144C204.827 328.886 203.777 329.95 201.795 329.899Z" fill="#31080B"/>
<path d="M202.5 341.342C202.293 339.927 202.859 338.656 204.337 338.084C205.954 337.455 207.426 337.895 208.489 339.342C210.03 341.443 210.59 343.865 210.527 346.406C210.49 347.954 209.565 349.023 208.068 349.495C206.577 349.967 205.652 349.048 204.948 347.985C203.652 346.016 202.456 343.991 202.5 341.342Z" fill="#31080B"/>
<path d="M138.945 18.5122C139.021 16.9898 140.109 16.2412 141.852 16.2789C143.582 16.3167 144.985 17.9083 144.922 19.7326C144.865 21.4374 143.657 21.9973 142.261 22.1231C140.65 22.2678 138.933 20.4749 138.945 18.5122Z" fill="#FCF8E6"/>
<path d="M132.749 19.4242C131.51 19.4431 130.837 18.8518 130.938 17.5936C131.032 16.4172 131.755 15.7819 132.925 15.7567C134.209 15.7315 134.674 16.5116 134.681 17.6943C134.681 19.009 133.945 19.462 132.749 19.4242Z" fill="#FCF8E6"/>
<path d="M178.947 368.55C178.715 368.544 178.476 368.518 178.249 368.537C174.877 368.789 173.154 367.732 172.883 365.222C172.606 362.687 174.286 360.913 177.45 360.397C181.225 362.045 181.841 364.492 179.312 367.726C179.13 367.952 179.061 368.273 178.947 368.55Z" fill="#447F59"/>
<path d="M54.0945 357.163C52.0563 354.05 52.2513 352.835 55.2583 349.942C56.831 350.206 58.6931 349.954 59.3348 352.011C59.8191 353.546 60.0519 355.094 58.8252 356.427C57.4601 357.925 55.8245 357.899 54.0945 357.163Z" fill="#447F59"/>
<path d="M168.492 165.622C168.121 167.352 167.051 168.402 165.409 168.402C164.044 168.402 162.855 167.553 162.566 166.119C162.346 165.012 164.579 163.212 165.9 163.401C167.196 163.577 168.259 164.194 168.492 165.622Z" fill="#31080B"/>
<path d="M15.9225 226.523C15.3563 225.85 14.8594 225.151 14.8027 224.233C15.5262 223.736 15.4444 222.855 15.7778 222.17C16.539 220.61 17.5329 219.634 19.4265 219.949C21.2508 220.251 22.4649 221.201 22.7794 223.038C23.0877 224.837 22.402 226.271 20.7601 227.139C19.7158 227.693 18.5898 228.001 17.382 227.875C17.0171 227.555 16.6459 227.234 16.2811 226.907C16.1615 226.787 16.042 226.655 15.9225 226.523Z" fill="#447F59"/>
<path d="M28.459 247.088C28.5219 245.54 29.3649 244.445 31.3087 244.427C33.1582 244.414 34.5862 245.653 34.5107 247.427C34.4352 249.226 33.2463 250.258 31.5478 250.535C30.0568 250.787 28.5219 249.126 28.459 247.088Z" fill="#447F59"/>
<path d="M15.9227 226.523C16.0422 226.655 16.1618 226.781 16.2813 226.907C16.0171 226.919 15.8913 226.793 15.9227 226.523Z" fill="#74CD92"/>
<path d="M47.1359 241.74C47.2051 243.596 45.299 245.791 43.6131 245.798C42.0404 245.81 39.9078 243.678 39.9141 242.111C39.9204 240.532 41.6126 238.846 43.2419 238.79C45.2424 238.727 47.073 240.104 47.1359 241.74Z" fill="#31080B"/>
<path d="M100.665 307.8C100.168 307.661 99.5324 307.875 99.2305 307.24C99.7463 307.347 100.338 307.233 100.665 307.8Z" fill="#FCF8E6"/>
<path d="M120.016 307.712C120.204 307.586 120.399 307.466 120.588 307.341C120.399 307.466 120.211 307.586 120.016 307.712Z" fill="#F1BB7E"/>
<path d="M114.386 179.663C114.386 179.663 115.468 170.195 116.481 167.446C116.481 167.446 110.599 167.169 108.718 166.949C108.718 166.949 106.812 178.77 106.396 181.085" fill="#31080B"/>
<path d="M90.4058 168.811C90.4058 168.811 93.2618 165.213 94.2872 164.59L86.7194 161.992C86.7194 161.992 84.4673 164.093 82.6367 166.395" fill="#FCF8E6"/>
<path d="M147.744 243.407C147.744 243.407 165.912 245.986 168.208 246.414V244.433C168.208 244.433 157.64 241.941 147.744 240.759" fill="#FCF8E6"/>
<path d="M143.619 189.388C143.619 189.388 156.27 189.2 160.673 190.552L162.051 193.666L148.765 192.987" fill="#FCF8E6"/>
<path d="M117.763 180.443C117.763 180.443 116.876 175.536 119.285 167.855L116.316 167.679C116.316 167.679 114.863 174.234 114.385 180.015L117.763 180.443Z" fill="#FCF8E6"/>
</svg>
