<svg width="32" height="29" viewBox="0 0 32 29" fill="none" xmlns="http://www.w3.org/2000/svg">
<path d="M31.3686 0H1.10382C0.816844 0 0.582031 0.234812 0.582031 0.521785V23.318C0.582031 23.6049 0.816844 23.8397 1.10382 23.8397H31.3686C31.6555 23.8397 31.8903 23.6049 31.8903 23.318V0.521785C31.8903 0.234812 31.6555 0 31.3686 0ZM4.03921 20.3826V3.45731H28.4332V20.3827H4.22456L4.03921 20.3826Z" fill="#2C5CA3"/>
<path d="M10.398 25.7965H7.50141L7.47757 25.7964V25.7965H7.46289C7.46289 26.3258 7.46289 28.1526 7.46289 28.711V28.7169C7.46289 28.7213 7.46289 28.7273 7.46289 28.7316H10.398H22.0735H25.0085C25.0085 28.1963 25.0085 26.3317 25.0085 25.7964H22.0735H10.398V25.7965Z" fill="#2C5CA3"/>
<path d="M9.64749 8.8147H9.63281V10.5995H11.5412V15.0254H13.7965V10.5995H15.6862H15.6902H15.7049V8.8147H9.65996H9.64749Z" fill="#2C5CA3"/>
<path d="M23.8115 8.82914L23.8182 8.81459H21.4086L20.7017 10.4973L20.2086 11.6452L19.0193 8.81459H17.3312L16.6345 8.80859L16.6371 8.81459H16.6211L19.4152 15.0252H21.0121L22.9961 10.6339L23.8182 8.82914H23.8115Z" fill="#2C5CA3"/>
</svg>
