<svg width="49" height="49" viewBox="0 0 49 49" fill="none" xmlns="http://www.w3.org/2000/svg">
<circle cx="24.425" cy="24.425" r="24.425" fill="white"/>
<path d="M41.8435 14.2909C40.5981 14.849 39.26 15.2263 37.8555 15.396C39.2892 14.5274 40.3901 13.152 40.9084 11.5133C39.5455 12.3307 38.0543 12.9067 36.4994 13.2163C35.2328 11.8524 33.4284 11 31.4312 11C27.5966 11 24.4876 14.1423 24.4876 18.0179C24.4876 18.5681 24.5491 19.1036 24.6674 19.6174C18.8968 19.3247 13.7806 16.5307 10.356 12.2847C9.75841 13.3212 9.41601 14.5269 9.41601 15.8129C9.41601 18.2478 10.6419 20.3958 12.5049 21.6544C11.4023 21.6195 10.3239 21.3185 9.35982 20.7765C9.35942 20.8059 9.35942 20.8353 9.35942 20.8648C9.35942 24.2652 11.7528 27.1017 14.9291 27.7465C13.9066 28.0275 12.8341 28.0687 11.7935 27.8667C12.677 30.6549 15.2413 32.6839 18.2796 32.7407C15.9032 34.6229 12.9093 35.7449 9.65635 35.7449C9.09581 35.7449 8.54321 35.7117 8 35.6469C11.0727 37.6381 14.7224 38.8 18.6435 38.8C31.4151 38.8 38.3988 28.1059 38.3988 18.8319C38.3988 18.5275 38.3922 18.2248 38.3788 17.9239C39.7381 16.9306 40.9113 15.7004 41.8435 14.2909Z" fill="#2C5CA3"/>
</svg>
