<svg width="54" height="54" viewBox="0 0 54 54" fill="none" xmlns="http://www.w3.org/2000/svg">
<path d="M49.3395 5.16588C47.831 3.47805 45.9703 2.14155 43.8887 1.25066C41.807 0.359774 39.5551 -0.0638005 37.2918 0.00981688C33.4193 0.43305 29.7981 2.13323 27 4.84194C24.2019 2.13323 20.5807 0.43305 16.7082 0.00981688C14.4465 -0.0708848 12.1947 0.346783 10.1126 1.23319C8.03057 2.1196 6.16918 3.45303 4.66055 5.13888C-2.7139 12.4546 -0.579905 25.6552 5.79508 34.2126C11.2951 41.5956 17.9006 48.0876 25.3792 53.4601C25.8468 53.8106 26.4155 54 27 54C27.5845 54 28.1532 53.8106 28.6208 53.4601C36.0994 48.0876 42.7049 41.5956 48.2049 34.2126C54.5799 25.6552 56.7139 12.4546 49.3395 5.16588Z" fill="#2C5CA3"/>
</svg>
