<svg width="54" height="54" viewBox="0 0 54 54" fill="none" xmlns="http://www.w3.org/2000/svg">
<path d="M48.0333 25.326C47.6553 24.84 38.6103 13.5 27.0003 13.5C15.3903 13.5 6.34532 24.84 5.96732 25.326C5.59064 25.8027 5.38574 26.3925 5.38574 27C5.38574 27.6075 5.59064 28.1973 5.96732 28.674C6.34532 29.16 15.3903 40.5 27.0003 40.5C38.6103 40.5 47.6553 29.16 48.0333 28.674C48.41 28.1973 48.6149 27.6075 48.6149 27C48.6149 26.3925 48.41 25.8027 48.0333 25.326Z" fill="#2C5CA3"/>
<path d="M35.1 27C35.1 28.602 34.6249 30.1681 33.7349 31.5001C32.8449 32.8322 31.5798 33.8704 30.0997 34.4834C28.6197 35.0965 26.991 35.2569 25.4198 34.9444C23.8485 34.6318 22.4052 33.8604 21.2724 32.7276C20.1396 31.5948 19.3682 30.1515 19.0556 28.5802C18.7431 27.009 18.9035 25.3803 19.5166 23.9003C20.1296 22.4202 21.1678 21.1551 22.4999 20.2651C23.8319 19.3751 25.398 18.9 27 18.9C29.1483 18.9 31.2085 19.7534 32.7276 21.2724C34.2466 22.7915 35.1 24.8517 35.1 27ZM5.4 13.5V5.4H13.5C14.2161 5.4 14.9028 5.11554 15.4092 4.60919C15.9155 4.10284 16.2 3.41608 16.2 2.7C16.2 1.98392 15.9155 1.29716 15.4092 0.790812C14.9028 0.284463 14.2161 0 13.5 0H5.4C3.96783 0 2.59432 0.568927 1.58162 1.58162C0.568927 2.59432 0 3.96783 0 5.4V13.5C0 14.2161 0.284463 14.9028 0.790812 15.4092C1.29716 15.9155 1.98392 16.2 2.7 16.2C3.41608 16.2 4.10284 15.9155 4.60919 15.4092C5.11554 14.9028 5.4 14.2161 5.4 13.5ZM54 13.5V5.4C54 3.96783 53.4311 2.59432 52.4184 1.58162C51.4057 0.568927 50.0322 0 48.6 0H40.5C39.7839 0 39.0972 0.284463 38.5908 0.790812C38.0845 1.29716 37.8 1.98392 37.8 2.7C37.8 3.41608 38.0845 4.10284 38.5908 4.60919C39.0972 5.11554 39.7839 5.4 40.5 5.4H48.6V13.5C48.6 14.2161 48.8845 14.9028 49.3908 15.4092C49.8972 15.9155 50.5839 16.2 51.3 16.2C52.0161 16.2 52.7028 15.9155 53.2092 15.4092C53.7155 14.9028 54 14.2161 54 13.5ZM16.2 51.3C16.2 50.5839 15.9155 49.8972 15.4092 49.3908C14.9028 48.8845 14.2161 48.6 13.5 48.6H5.4V40.5C5.4 39.7839 5.11554 39.0972 4.60919 38.5908C4.10284 38.0845 3.41608 37.8 2.7 37.8C1.98392 37.8 1.29716 38.0845 0.790812 38.5908C0.284463 39.0972 0 39.7839 0 40.5V48.6C0 50.0322 0.568927 51.4057 1.58162 52.4184C2.59432 53.4311 3.96783 54 5.4 54H13.5C14.2161 54 14.9028 53.7155 15.4092 53.2092C15.9155 52.7028 16.2 52.0161 16.2 51.3ZM54 48.6V40.5C54 39.7839 53.7155 39.0972 53.2092 38.5908C52.7028 38.0845 52.0161 37.8 51.3 37.8C50.5839 37.8 49.8972 38.0845 49.3908 38.5908C48.8845 39.0972 48.6 39.7839 48.6 40.5V48.6H40.5C39.7839 48.6 39.0972 48.8845 38.5908 49.3908C38.0845 49.8972 37.8 50.5839 37.8 51.3C37.8 52.0161 38.0845 52.7028 38.5908 53.2092C39.0972 53.7155 39.7839 54 40.5 54H48.6C50.0322 54 51.4057 53.4311 52.4184 52.4184C53.4311 51.4057 54 50.0322 54 48.6Z" fill="#ABC5EC"/>
</svg>
