<svg width="136" height="136" viewBox="0 0 136 136" fill="none" xmlns="http://www.w3.org/2000/svg">
<circle cx="67.9893" cy="67.9893" r="67.9893" fill="#00E676"/>
<path d="M93.0546 42.5697C86.4535 35.7783 77.3285 32.0913 68.0093 32.0913C48.2064 32.0913 32.2861 48.197 32.4801 67.7955C32.4801 74.005 34.2274 80.0206 37.1398 85.4537L32.0918 103.888L50.9242 99.0369C56.1662 101.948 61.9905 103.306 67.8153 103.306C87.4243 103.306 103.345 87.2001 103.345 67.6019C103.345 58.0935 99.6554 49.1673 93.0546 42.5697ZM68.0093 97.2907C62.7673 97.2907 57.5253 95.9327 53.0598 93.216L51.895 92.6338L40.6345 95.5443L43.5466 84.484L42.7701 83.3195C34.2274 69.5424 38.3046 51.3017 52.2833 42.7636C66.262 34.2258 84.3179 38.3008 92.8606 52.272C101.403 66.2433 97.3258 84.2895 83.3474 92.8276C78.8816 95.7382 73.4456 97.2905 68.0093 97.2905V97.2907ZM85.0944 75.7519L82.9588 74.7817C82.9588 74.7817 79.8527 73.4233 77.9111 72.453C77.7168 72.453 77.5228 72.2589 77.3285 72.2589C76.746 72.2589 76.3577 72.453 75.9695 72.6472C75.9695 72.6472 75.7755 72.8411 73.0573 75.9458C72.8631 76.3339 72.4748 76.5281 72.0865 76.5281H71.8923C71.6983 76.5281 71.31 76.3339 71.1157 76.14L70.1449 75.7519C68.0093 74.7817 66.068 73.6172 64.5146 72.065C64.1264 71.6769 63.5438 71.2889 63.1556 70.9008C61.7965 69.5424 60.4374 67.9899 59.4669 66.2435L59.2726 65.8555C59.0786 65.6613 59.0786 65.4674 58.8844 65.0794C58.8844 64.6913 58.8844 64.3032 59.0786 64.1091C59.0786 64.1091 59.8552 63.1388 60.4374 62.5568C60.826 62.1685 61.02 61.5866 61.4082 61.1985C61.7965 60.6163 61.9908 59.8401 61.7965 59.2579C61.6025 58.2876 59.2726 53.0484 58.6904 51.8842C58.3018 51.302 57.9138 51.1081 57.3313 50.914H55.1957C54.8072 50.914 54.4192 51.1081 54.0306 51.1081L53.8364 51.302C53.4481 51.4962 53.0598 51.8842 52.6716 52.0781C52.2833 52.4665 52.089 52.8543 51.7008 53.2426C50.3417 54.989 49.5652 57.1235 49.5652 59.2579C49.5652 60.8102 49.9534 62.3627 50.536 63.721L50.7302 64.3032C52.4776 67.9899 54.8072 71.2889 57.9138 74.1994L58.6904 74.9755C59.2726 75.5578 59.8552 75.9458 60.2434 76.5278C64.3207 80.0209 68.9801 82.5434 74.2221 83.9017C74.8047 84.0956 75.5812 84.0956 76.1637 84.2898H78.1051C79.0759 84.2898 80.2407 83.9017 81.0175 83.5137C81.5997 83.1256 81.988 83.1256 82.3763 82.7376L82.7648 82.3492C83.1531 81.9612 83.5413 81.7673 83.9296 81.3792C84.3179 80.9912 84.7061 80.6031 84.9004 80.2148C85.2887 79.4386 85.4827 78.4684 85.6769 77.4983V76.14C85.6769 76.14 85.4827 75.9458 85.0944 75.7519Z" fill="white"/>
</svg>
