<svg width="49" height="49" viewBox="0 0 49 49" fill="none" xmlns="http://www.w3.org/2000/svg">
<circle cx="24.425" cy="24.425" r="24.425" fill="white"/>
<path d="M18.2323 34.8203L18.6805 35.0437C20.548 36.1606 22.6394 36.6819 24.7309 36.6819C31.304 36.6819 36.6821 31.3205 36.6821 24.7676C36.6821 21.6402 35.4122 18.5871 33.1714 16.3531C30.9305 14.1192 27.9427 12.8533 24.7309 12.8533C18.1577 12.8533 12.7795 18.2148 12.8543 24.8421C12.8543 27.076 13.5265 29.2355 14.6469 31.0971L14.9457 31.5439L13.7507 35.9373L18.2323 34.8203Z" fill="white"/>
<path d="M34.5587 15.0573C32.0078 12.4276 28.4815 11 24.8801 11C17.2274 11 11.0751 17.2362 11.15 24.8248C11.15 27.2292 11.8253 29.5584 12.9508 31.6621L11 38.8L18.2777 36.9216C20.3034 38.0487 22.5542 38.5747 24.8052 38.5747C32.3829 38.5747 38.5352 32.3384 38.5352 24.7498C38.5352 21.0681 37.1096 17.6119 34.5587 15.0573ZM24.8801 36.2455C22.8544 36.2455 20.8286 35.7197 19.103 34.6677L18.6528 34.4423L14.3013 35.5693L15.4267 31.2867L15.1266 30.8358C11.8253 25.5012 13.4009 18.4384 18.8029 15.1324C24.2049 11.8265 31.1825 13.4043 34.4838 18.8141C37.7849 24.2238 36.2093 31.2114 30.8074 34.5174C29.0817 35.6444 26.9809 36.2454 24.8801 36.2454V36.2455ZM31.4826 27.9056L30.6573 27.5299C30.6573 27.5299 29.4569 27.0039 28.7066 26.6282C28.6315 26.6282 28.5566 26.5531 28.4815 26.5531C28.2564 26.5531 28.1063 26.6282 27.9563 26.7034C27.9563 26.7034 27.8813 26.7785 26.8309 27.9807C26.7558 28.1309 26.6058 28.2061 26.4557 28.2061H26.3807C26.3057 28.2061 26.1557 28.1309 26.0806 28.0558L25.7054 27.9056C24.8801 27.5299 24.1299 27.079 23.5296 26.478C23.3796 26.3277 23.1545 26.1775 23.0044 26.0272C22.4792 25.5012 21.954 24.9001 21.579 24.2239L21.5039 24.0736C21.4289 23.9985 21.4289 23.9234 21.3538 23.7731C21.3538 23.6229 21.3538 23.4726 21.4289 23.3974C21.4289 23.3974 21.729 23.0217 21.954 22.7964C22.1042 22.646 22.1791 22.4207 22.3292 22.2704C22.4792 22.045 22.5543 21.7445 22.4792 21.519C22.4043 21.1433 21.5039 19.1147 21.2789 18.6639C21.1287 18.4385 20.9788 18.3634 20.7537 18.2882H19.9284C19.7782 18.2882 19.6283 18.3634 19.4781 18.3634L19.4031 18.4385C19.253 18.5137 19.103 18.6639 18.9529 18.739C18.8029 18.8894 18.7278 19.0395 18.5778 19.1899C18.0526 19.8661 17.7525 20.6926 17.7525 21.519C17.7525 22.1201 17.9025 22.7212 18.1276 23.2472L18.2027 23.4726C18.878 24.9001 19.7782 26.1775 20.9788 27.3045L21.2789 27.605C21.5039 27.8304 21.729 27.9807 21.879 28.206C23.4547 29.5585 25.2553 30.5353 27.281 31.0612C27.5061 31.1363 27.8062 31.1363 28.0314 31.2115H28.7816C29.1567 31.2115 29.6069 31.0612 29.9071 30.911C30.1321 30.7607 30.2821 30.7607 30.4322 30.6105L30.5823 30.4601C30.7323 30.3098 30.8824 30.2348 31.0324 30.0845C31.1825 29.9342 31.3325 29.784 31.4076 29.6336C31.5576 29.3331 31.6326 28.9574 31.7077 28.5818V28.0558C31.7077 28.0558 31.6326 27.9807 31.4826 27.9056Z" fill="#2C5CA3"/>
</svg>
